<svg width="168" height="44" viewBox="0 0 168 44" fill="none" xmlns="http://www.w3.org/2000/svg">
<path d="M152.971 18.9902V29.2042C152.971 31.2982 154.59 32.7362 156.74 32.7362C158.925 32.7362 160.509 30.9602 160.509 29.2042C160.509 27.4702 158.994 25.6742 156.74 25.6742C156.197 25.6742 155.688 25.7662 155.225 25.9202C155.017 25.4882 154.301 23.9182 154.173 23.6202C154.999 23.3395 155.867 23.2008 156.74 23.2102C160.717 23.2102 163.665 25.9702 163.665 29.2042C163.665 32.5822 160.509 35.2202 156.74 35.2202C152.913 35.2202 149.838 32.5502 149.838 29.2042V18.9912L152.971 18.9902ZM141.521 23.2102C142.064 23.2102 142.55 23.2502 143.012 23.3432L143.267 23.3842C143.348 23.4042 143.452 23.4252 143.521 23.4562C146.365 24.1852 148.446 26.4842 148.446 29.2252C148.446 29.3892 148.423 29.5432 148.423 29.7072C148.379 30.1541 148.274 30.5928 148.111 31.0112C146.955 30.5082 145.672 30.2612 144.307 30.2612C142.943 30.2612 141.66 30.5082 140.457 30.9912V28.3212C141.707 28.0006 142.993 27.8387 144.284 27.8392C144.515 27.8392 144.723 27.8592 144.955 27.8592C144.469 26.8852 143.232 25.9502 141.521 25.9502C139.44 25.9502 137.752 27.4292 137.752 29.2352C137.752 31.0622 139.498 32.4892 141.521 32.4892C142.573 32.4892 143.475 32.1712 144.215 31.5142L146.365 33.5882C145.163 34.5942 143.463 35.2302 141.509 35.2302C137.613 35.2302 134.607 32.5002 134.607 29.2352C134.607 25.8682 137.694 23.2102 141.521 23.2102ZM106.906 19.2682H109.912V28.6502C109.912 30.7242 111.808 32.5402 114.294 32.5402C116.733 32.5402 118.676 30.8162 118.676 28.6502V19.2682H121.682V28.6502C121.682 30.7242 123.554 32.5402 126.04 32.5402C128.479 32.5402 130.422 30.8162 130.422 28.6502V19.2682H133.428V28.6502C133.428 32.3352 130.075 35.2202 126.04 35.2202C123.647 35.2202 121.531 34.2342 120.179 32.6332C118.803 34.2452 116.687 35.2202 114.294 35.2202C110.201 35.2202 106.906 32.2942 106.906 28.6502V19.2682ZM98.005 23.2102C98.549 23.2102 99.035 23.2502 99.497 23.3432L99.751 23.3842C99.832 23.4042 99.936 23.4252 100.005 23.4562C102.85 24.1852 104.931 26.4842 104.931 29.2252C104.931 29.3892 104.907 29.5432 104.907 29.7072C104.863 30.1541 104.758 30.5928 104.595 31.0112C103.439 30.5082 102.156 30.2612 100.792 30.2612C99.4736 30.2542 98.1663 30.5021 96.942 30.9912V28.3212C98.1924 28.0006 99.4782 27.8386 100.769 27.8392C101 27.8392 101.208 27.8592 101.439 27.8592C100.954 26.8852 99.717 25.9502 98.005 25.9502C95.925 25.9502 94.236 27.4292 94.236 29.2352C94.236 31.0622 95.982 32.4892 98.006 32.4892C99.058 32.4892 99.959 32.1712 100.699 31.5142C101.243 32.0382 102.167 32.9312 102.85 33.5882C101.647 34.5942 99.948 35.2302 97.994 35.2302C94.098 35.2302 91.092 32.5002 91.092 29.2352C91.092 25.8682 94.179 23.2102 98.005 23.2102ZM86.389 35.2202V19.2682H89.545V35.2202H86.389ZM78.828 21.5172H81.961V25.1812H83.811V27.9112H81.961V30.2622C81.961 31.4742 83.094 32.4692 84.447 32.4692H85.222V35.1992H84.447C81.337 35.1992 78.828 32.9212 78.828 30.1912V21.5172ZM71.264 21.5172H74.397V25.1812H76.247V27.9112H74.397V30.2622C74.397 31.4742 75.53 32.4692 76.882 32.4692H77.657V35.1992H76.882C73.772 35.1992 71.264 32.9212 71.264 30.1912V21.5172ZM69.424 23.8252V35.2202H66.291V23.8252H69.424Z" fill="#FFFFFD"/>
<path fill-rule="evenodd" clip-rule="evenodd" d="M69.7541 20.0177L67.5971 21.8797L65.9041 20.3337L68.0611 18.4717L69.7541 20.0177Z" fill="#F09926"/>
<path d="M54.707 19.2891H57.84V28.2391C57.84 30.7241 60.384 32.4281 63.54 32.4281H65.054V35.2101H63.332C58.557 35.2101 54.707 32.1601 54.707 28.3731V19.2901V19.2891Z" fill="#FFFFFD"/>
<path d="M60.408 14.1119C59.428 14.1119 58.541 13.8969 57.748 13.4679C56.9825 13.0471 56.3442 12.4282 55.9 11.6759C55.452 10.9109 55.228 10.0519 55.228 9.09989C55.228 8.14789 55.452 7.29389 55.9 6.53789C56.3416 5.77874 56.9865 5.15807 57.762 4.74589C58.555 4.30689 59.442 4.08789 60.422 4.08789C61.187 4.08789 61.887 4.21789 62.522 4.47989C63.1455 4.72403 63.7021 5.11269 64.146 5.61389L63.236 6.49589C62.499 5.72089 61.579 5.33389 60.478 5.33389C59.75 5.33389 59.092 5.49689 58.504 5.82389C57.916 6.15089 57.454 6.60389 57.118 7.18189C56.7874 7.76642 56.6183 8.4284 56.628 9.09989C56.628 9.80989 56.791 10.4529 57.118 11.0319C57.4498 11.5971 57.9289 12.0616 58.504 12.3759C59.092 12.7029 59.75 12.8659 60.478 12.8659C61.57 12.8659 62.489 12.4739 63.236 11.6899L64.146 12.5719C63.6968 13.0768 63.1359 13.4699 62.508 13.7199C61.8406 13.9874 61.127 14.1206 60.408 14.1119ZM68.714 14.0839C67.977 14.0839 67.314 13.9209 66.726 13.5939C66.1509 13.2796 65.6718 12.8151 65.34 12.2499C65.014 11.6709 64.85 11.0179 64.85 10.2899C64.85 9.56189 65.014 8.91289 65.34 8.34389C65.6665 7.77447 66.1468 7.30865 66.726 6.99989C67.314 6.67289 67.977 6.50989 68.714 6.50989C69.452 6.50989 70.11 6.67289 70.688 6.99989C71.2651 7.30659 71.7415 7.77324 72.06 8.34389C72.396 8.91389 72.564 9.56189 72.564 10.2899C72.564 11.0179 72.396 11.6709 72.06 12.2499C71.7362 12.8164 71.2611 13.2818 70.688 13.5939C70.11 13.9209 69.452 14.0839 68.714 14.0839ZM68.714 12.9079C69.19 12.9079 69.615 12.8009 69.988 12.5859C70.3662 12.3664 70.6763 12.0466 70.884 11.6619C71.1041 11.2386 71.2148 10.7669 71.206 10.2899C71.206 9.77689 71.099 9.32389 70.884 8.93189C70.6817 8.54325 70.3703 8.22212 69.988 8.00789C69.5995 7.78933 69.1597 7.67818 68.714 7.68589C68.238 7.68589 67.809 7.79289 67.426 8.00789C67.0479 8.22743 66.7378 8.5472 66.53 8.93189C66.316 9.32389 66.208 9.77689 66.208 10.2899C66.208 10.8029 66.316 11.2599 66.53 11.6619C66.754 12.0539 67.053 12.3619 67.426 12.5859C67.809 12.8009 68.238 12.9079 68.714 12.9079ZM78.441 10.1359C78.936 10.2659 79.318 10.4759 79.589 10.7659C79.859 11.0559 79.995 11.4149 79.995 11.8439C79.995 12.2829 79.845 12.6739 79.547 13.0199C79.248 13.3559 78.833 13.6219 78.301 13.8179C77.778 14.0049 77.191 14.0979 76.537 14.0979C75.987 14.0979 75.445 14.0279 74.913 13.8879C74.4169 13.7506 73.9448 13.5382 73.513 13.2579L73.919 12.2359C74.274 12.4599 74.679 12.6369 75.137 12.7679C75.5892 12.8884 76.0551 12.9495 76.523 12.9499C77.158 12.9499 77.662 12.8429 78.035 12.6279C78.418 12.4039 78.609 12.1049 78.609 11.7319C78.609 11.3869 78.455 11.1209 78.147 10.9339C77.848 10.7469 77.424 10.6539 76.873 10.6539H75.515V9.68789H76.775C77.279 9.68789 77.675 9.59889 77.965 9.42189C78.255 9.24489 78.399 9.00189 78.399 8.69389C78.399 8.35789 78.226 8.09689 77.881 7.90989C77.545 7.72289 77.088 7.62989 76.509 7.62989C75.772 7.62989 74.992 7.82089 74.171 8.20389L73.807 7.16789C74.6865 6.71681 75.6607 6.48166 76.649 6.48189C77.246 6.48189 77.783 6.56589 78.259 6.73389C78.735 6.90189 79.109 7.13989 79.379 7.44789C79.649 7.75589 79.785 8.10589 79.785 8.49789C79.785 8.86189 79.664 9.18789 79.421 9.47789C79.178 9.76789 78.851 9.98689 78.441 10.1359ZM89.094 6.57989V12.9919C89.094 14.2889 88.772 15.2459 88.128 15.8619C87.484 16.4869 86.523 16.7999 85.244 16.7999C84.544 16.7999 83.877 16.7019 83.242 16.5059C82.608 16.3189 82.094 16.0489 81.702 15.6939L82.346 14.6579C82.692 14.9569 83.116 15.1899 83.62 15.3579C84.1288 15.5342 84.6635 15.6241 85.202 15.6239C86.07 15.6239 86.71 15.4189 87.12 15.0079C87.54 14.5979 87.75 13.9719 87.75 13.1319V12.5439C87.4351 12.9252 87.0312 13.2233 86.574 13.4119C86.117 13.5989 85.618 13.6919 85.076 13.6919C84.4053 13.7009 83.7424 13.5472 83.144 13.2439C82.5887 12.9491 82.1241 12.5087 81.8 11.9699C81.474 11.4199 81.31 10.7939 81.31 10.0939C81.31 9.39389 81.474 8.77389 81.8 8.23189C82.127 7.68189 82.575 7.25689 83.144 6.95789C83.7424 6.65461 84.4053 6.50089 85.076 6.50989C85.636 6.50989 86.154 6.61289 86.63 6.81789C87.116 7.02289 87.512 7.32689 87.82 7.72789V6.57989H89.094ZM85.23 12.5159C85.716 12.5159 86.15 12.4129 86.532 12.2079C86.924 12.0029 87.228 11.7179 87.442 11.3539C87.6682 10.973 87.7845 10.5369 87.778 10.0939C87.778 9.37489 87.54 8.79689 87.064 8.35789C86.588 7.90989 85.977 7.68589 85.23 7.68589C84.474 7.68589 83.858 7.90989 83.382 8.35789C82.906 8.79689 82.668 9.37489 82.668 10.0939C82.668 10.5609 82.776 10.9809 82.99 11.3539C83.214 11.7179 83.518 12.0029 83.9 12.2079C84.292 12.4129 84.736 12.5159 85.23 12.5159ZM98.69 6.57989V13.9999H97.402V12.8239C97.1106 13.2286 96.7201 13.5515 96.268 13.7619C95.7942 13.9802 95.2777 14.0902 94.756 14.0839C94.037 14.0839 93.393 13.9249 92.824 13.6079C92.2616 13.2974 91.7964 12.837 91.48 12.2779C91.163 11.6989 91.004 11.0369 91.004 10.2899C91.004 9.54289 91.163 8.88489 91.48 8.31589C91.7964 7.75679 92.2616 7.29639 92.824 6.98589C93.394 6.66889 94.037 6.50989 94.756 6.50989C95.2626 6.50466 95.7642 6.60976 96.226 6.81789C96.674 7.01389 97.047 7.30789 97.346 7.69989V6.57989H98.69ZM94.868 12.9079C95.335 12.9079 95.759 12.8009 96.142 12.5859C96.525 12.3619 96.823 12.0539 97.038 11.6619C97.2581 11.2386 97.3688 10.7669 97.36 10.2899C97.36 9.77689 97.253 9.32389 97.038 8.93189C96.8357 8.54321 96.5243 8.22207 96.142 8.00789C95.7526 7.79149 95.3135 7.6805 94.868 7.68589C94.392 7.68589 93.963 7.79289 93.58 8.00789C93.2019 8.22743 92.8918 8.5472 92.684 8.93189C92.469 9.32389 92.362 9.77689 92.362 10.2899C92.362 10.8029 92.469 11.2599 92.684 11.6619C92.908 12.0539 93.207 12.3619 93.58 12.5859C93.963 12.8009 94.392 12.9079 94.868 12.9079ZM101.261 6.57989H102.605V9.72989H106.833V6.57989H108.177V13.9999H106.833V10.8919H102.605V13.9999H101.261V6.57989ZM113.968 14.0839C113.231 14.0839 112.568 13.9209 111.98 13.5939C111.405 13.2796 110.926 12.8151 110.594 12.2499C110.268 11.6709 110.104 11.0179 110.104 10.2899C110.104 9.56189 110.268 8.91289 110.594 8.34389C110.92 7.77447 111.401 7.30865 111.98 6.99989C112.568 6.67289 113.231 6.50989 113.968 6.50989C114.706 6.50989 115.364 6.67289 115.942 6.99989C116.519 7.30636 116.996 7.77307 117.314 8.34389C117.65 8.91389 117.818 9.56189 117.818 10.2899C117.818 11.0179 117.65 11.6709 117.314 12.2499C116.99 12.8166 116.515 13.282 115.942 13.5939C115.364 13.9209 114.706 14.0839 113.968 14.0839ZM113.968 12.9079C114.444 12.9079 114.869 12.8009 115.242 12.5859C115.625 12.3619 115.924 12.0539 116.138 11.6619C116.358 11.2386 116.469 10.7669 116.46 10.2899C116.46 9.77689 116.353 9.32389 116.138 8.93189C115.936 8.54304 115.624 8.22184 115.242 8.00789C114.854 7.78924 114.414 7.67809 113.968 7.68589C113.492 7.68589 113.063 7.79289 112.68 8.00789C112.302 8.22755 111.992 8.54729 111.784 8.93189C111.57 9.32389 111.462 9.77689 111.462 10.2899C111.462 10.8029 111.57 11.2599 111.784 11.6619C112.008 12.0539 112.307 12.3619 112.68 12.5859C113.063 12.8009 113.492 12.9079 113.968 12.9079ZM128.573 10.1499C129.534 10.3929 130.015 10.9949 130.015 11.9559C130.015 12.6089 129.767 13.1129 129.273 13.4679C128.787 13.8229 128.059 13.9999 127.089 13.9999H123.519V6.57989H126.963C127.84 6.57989 128.526 6.74789 129.021 7.08389C129.515 7.41089 129.763 7.87689 129.763 8.48389C129.763 8.87589 129.655 9.21689 129.441 9.50589C129.219 9.79845 128.918 10.0218 128.573 10.1499ZM124.835 9.77189H126.851C127.364 9.77189 127.751 9.67889 128.013 9.49189C128.283 9.30489 128.419 9.03489 128.419 8.67989C128.419 7.96989 127.896 7.61589 126.851 7.61589H124.835V9.77189ZM126.991 12.9639C127.551 12.9639 127.971 12.8749 128.251 12.6979C128.531 12.5209 128.671 12.2449 128.671 11.8719C128.671 11.4889 128.54 11.2049 128.279 11.0179C128.027 10.8309 127.625 10.7379 127.075 10.7379H124.835V12.9639H126.991Z" fill="white"/>
<path fill-rule="evenodd" clip-rule="evenodd" d="M38.5551 10.2206C29.0081 4.43265 19.6471 7.91765 16.6151 9.90065C12.2951 12.7236 9.45608 16.4177 9.53508 21.7937L9.55408 23.0106L12.3281 22.9796L12.3101 21.7616C12.2451 17.3386 14.4901 14.3236 18.2731 11.8516C20.7231 10.2516 28.7451 7.23165 36.9781 12.2236L36.9801 12.2246C39.9051 13.9907 41.6681 16.8257 42.5911 20.3047C43.0851 22.1517 43.2091 25.3626 42.2361 28.0476C41.7561 29.3766 41.0341 30.4966 40.0491 31.2736C39.0911 32.0296 37.8071 32.5236 36.0231 32.5156C34.4531 32.5076 33.4191 31.7496 32.7131 30.8586C32.3209 30.3597 32.0082 29.8032 31.7861 29.2086C31.7738 29.1755 31.7622 29.1422 31.7511 29.1086L31.7451 29.0886V29.0876L31.4811 28.1816L28.9301 28.1686L28.6131 29.0006V29.0026L28.6041 29.0226C28.5324 29.1893 28.453 29.3524 28.3661 29.5116C28.1337 29.9387 27.8554 30.339 27.5361 30.7056C26.7791 31.5696 25.7561 32.2477 24.3681 32.2127C22.2831 32.1627 20.7601 31.2146 19.8291 29.5326V29.5306L19.8281 29.5286C19.5309 28.9969 19.2963 28.4324 19.1291 27.8466C22.4231 26.3966 24.1261 24.0686 24.9921 22.0967C25.4501 21.0547 25.6801 20.1037 25.7961 19.4096C25.8566 19.0515 25.8966 18.6903 25.9161 18.3276L25.9171 18.2566V18.2226C25.9171 18.2206 25.9171 18.2206 24.5311 18.2156L25.9181 18.2207L25.9221 17.3387L19.8971 15.5827L19.3071 16.3467L19.3051 16.3506L19.3001 16.3567L19.2841 16.3777C19.2029 16.4845 19.1245 16.5936 19.0491 16.7046C18.1652 17.9987 17.4467 19.3983 16.9101 20.8707C16.3511 22.4216 15.9271 24.3136 16.0671 26.3166C13.2771 27.1076 11.1241 26.8016 9.63908 26.2986C8.93881 26.0637 8.27193 25.739 7.65508 25.3326C7.44816 25.1955 7.24979 25.0459 7.06108 24.8846L7.04408 24.8686L7.04308 24.8676L6.11908 23.9696L4.05908 25.5996L4.98908 26.5036L6.01908 25.6886C4.98908 26.5046 4.99008 26.5056 4.99008 26.5056H4.99208L4.99408 26.5096L5.00108 26.5156L5.02108 26.5336C5.10208 26.61 5.1858 26.6834 5.27208 26.7536C5.43708 26.8876 5.67208 27.0696 5.97808 27.2716C6.58608 27.6766 7.47808 28.1756 8.63908 28.5696C10.6091 29.2366 13.2811 29.5776 16.5281 28.7396C16.7261 29.3596 16.9911 29.9796 17.3341 30.5966C18.6661 33.0016 21.0581 34.5676 24.2901 34.6466L24.3291 33.4296L24.2891 34.6466C26.9241 34.7126 28.7001 33.3717 29.7361 32.1907C29.8601 32.0497 29.9761 31.9086 30.0821 31.7696C30.1901 31.9277 30.3071 32.0886 30.4351 32.2496C31.4451 33.5236 33.2191 34.9356 36.0081 34.9496C38.4551 34.9616 40.4131 34.2606 41.9041 33.0846C43.3681 31.9296 44.3031 30.3806 44.8811 28.7846C46.0271 25.6196 45.8831 21.9566 45.2931 19.7506C44.2751 15.9166 42.2391 12.4446 38.5551 10.2206ZM17.3341 30.5966V30.5946L18.5811 30.0636L17.3351 30.5976L17.3341 30.5966ZM6.01908 25.6886C7.04908 24.8726 7.04808 24.8716 7.04808 24.8716V24.8736L6.01908 25.6886ZM16.5281 28.7396C16.2779 27.9534 16.1232 27.1399 16.0671 26.3166L16.2281 27.5606L16.5281 28.7396ZM24.5311 18.2566C24.5763 17.9882 24.5157 18.4875 24.5311 18.2156L23.1431 18.2107V18.2096L24.5311 18.2156V18.2566ZM23.0491 19.0666C22.9223 19.8083 22.7054 20.5317 22.4031 21.2207C21.6742 22.9014 20.4165 24.2982 18.8211 25.1986C18.8651 23.9316 19.1591 22.7067 19.5561 21.6057C19.9528 20.5171 20.4629 19.4734 21.0781 18.4917L23.0491 19.0666ZM15.5041 19.6557L17.6481 17.7956L15.9411 16.2807L13.7961 18.1407L15.5041 19.6557Z" fill="#F09926"/>
<path d="M23.0001 17.9997H25.0001V18.9997H23.0001V17.9997Z" fill="#F09926"/>
</svg>
