<svg width="80" height="80" viewBox="0 0 80 80" fill="none" xmlns="http://www.w3.org/2000/svg">
<g filter="url(#filter0_d_643_561)">
<path d="M10 36C10 19.4315 23.4315 6 40 6C56.5685 6 70 19.4315 70 36C70 52.5685 56.5685 66 40 66H13.75C11.6789 66 10 64.3211 10 62.25L10 36Z" fill="#D1BE99"/>
</g>
<path d="M16 36C16 22.7452 26.7452 12 40 12C53.2548 12 64 22.7452 64 36C64 49.2548 53.2548 60 40 60H19C17.3431 60 16 58.6569 16 57L16 36Z" fill="white"/>
<path d="M39.6581 21.7266L28.3721 30.6906H51.6341L40.3421 21.7266C40.1381 21.5885 39.8681 21.5885 39.6581 21.7266ZM41.611 26.8355C41.611 27.7289 40.8934 28.4465 40.0001 28.4465C39.1137 28.4465 38.3891 27.7289 38.3891 26.8355C38.3891 25.9491 39.1137 25.2245 40.0001 25.2245C40.8934 25.2245 41.611 25.9491 41.611 26.8355Z" fill="#474350"/>
<path d="M35.1058 42.0488H34.0798V44.651H35.1058V42.0488Z" fill="#474350"/>
<path d="M30.6879 42.0488C30.3579 42.0488 30.0879 42.3128 30.0879 42.6488V49.7768C30.0879 50.1128 30.3579 50.3768 30.6879 50.3768H38.4939C38.8299 50.3768 39.0939 50.1128 39.0939 49.7768V42.6488C39.0939 42.3128 38.8299 42.0488 38.4939 42.0488H36.3057V45.2513C36.3057 45.5827 36.0373 45.8513 35.7057 45.8513H33.4797C33.1481 45.8513 32.8797 45.5827 32.8797 45.2513V42.0488H30.6879ZM41.5059 42.0488C41.1759 42.0488 40.9059 42.3128 40.9059 42.6488V49.7768C40.9059 50.1128 41.1759 50.3768 41.5059 50.3768H49.3119C49.6419 50.3768 49.9119 50.1128 49.9119 49.7768V42.6488C49.9119 42.3128 49.6419 42.0488 49.3119 42.0488H47.1227V45.2513C47.1227 45.5827 46.8543 45.8513 46.5227 45.8513H44.2967C43.9651 45.8513 43.6967 45.5827 43.6967 45.2513V42.0488H41.5059Z" fill="#474350"/>
<path d="M45.9225 42.0488H44.8965V44.651H45.9225V42.0488Z" fill="#474350"/>
<path d="M53.8001 31.8906H26.2001C25.8701 31.8906 25.6001 32.1606 25.6001 32.4906V34.4946C25.6001 34.8246 25.8701 35.0946 26.2001 35.0946H26.9561V49.7766C26.9561 50.1126 27.2261 50.3766 27.5561 50.3766C27.8861 50.3766 28.1561 50.1126 28.1561 49.7766V39.5946H51.8441V49.7766C51.8441 50.1126 52.1141 50.3766 52.4441 50.3766C52.7801 50.3766 53.0441 50.1126 53.0441 49.7766V35.0946H53.8001C54.1301 35.0946 54.4001 34.8246 54.4001 34.4946V32.4906C54.4001 32.1606 54.1301 31.8906 53.8001 31.8906ZM51.8441 36.7446H28.1561V35.0946H51.8441V36.7446Z" fill="#474350"/>
<defs>
<filter id="filter0_d_643_561" x="0" y="0" width="80" height="80" filterUnits="userSpaceOnUse" color-interpolation-filters="sRGB">
<feFlood flood-opacity="0" result="BackgroundImageFix"/>
<feColorMatrix in="SourceAlpha" type="matrix" values="0 0 0 0 0 0 0 0 0 0 0 0 0 0 0 0 0 0 127 0" result="hardAlpha"/>
<feOffset dy="4"/>
<feGaussianBlur stdDeviation="5"/>
<feComposite in2="hardAlpha" operator="out"/>
<feColorMatrix type="matrix" values="0 0 0 0 0.392157 0 0 0 0 0.368627 0 0 0 0 0.439216 0 0 0 0.3 0"/>
<feBlend mode="normal" in2="BackgroundImageFix" result="effect1_dropShadow_643_561"/>
<feBlend mode="normal" in="SourceGraphic" in2="effect1_dropShadow_643_561" result="shape"/>
</filter>
</defs>
</svg>
