<svg width="36" height="36" viewBox="0 0 36 36" fill="none" xmlns="http://www.w3.org/2000/svg">
<path d="M4.19991 31.1995H5.48992V4.19948C5.48992 4.00747 5.5799 3.82748 5.7359 3.71348C5.89191 3.60548 6.08992 3.56948 6.26991 3.62951L21.5699 8.59148C21.8219 8.67549 21.9899 8.90349 21.9899 9.16149V31.1995H23.1899V17.6875L30.3119 24.1555C30.4379 24.2695 30.5099 24.4315 30.5099 24.5995V31.1995H31.7999C32.1299 31.1995 32.3999 31.4695 32.3999 31.7995C32.3999 32.1355 32.1299 32.3995 31.7999 32.3995H29.9099H23.0819H21.3899H6.08992H4.19991C3.86992 32.3995 3.59991 32.1355 3.59991 31.7995C3.59991 31.4695 3.86992 31.1995 4.19991 31.1995ZM10.6679 12.5095C10.6679 12.3655 10.5479 12.2515 10.4039 12.2515H8.44191C8.29792 12.2515 8.18391 12.3655 8.18391 12.5095V14.4715C8.18391 14.6155 8.29792 14.7355 8.44191 14.7355H10.4039C10.5479 14.7355 10.6679 14.6155 10.6679 14.4715V12.5095ZM10.6679 17.4175C10.6679 17.2735 10.5479 17.1535 10.4039 17.1535H8.44191C8.29792 17.1535 8.18391 17.2735 8.18391 17.4175V19.3735C8.18391 19.5175 8.29792 19.6375 8.44191 19.6375H10.4039C10.5479 19.6375 10.6679 19.5175 10.6679 19.3735V17.4175ZM10.6679 22.3195C10.6679 22.1755 10.5479 22.0555 10.4039 22.0555H8.44191C8.29792 22.0555 8.18391 22.1755 8.18391 22.3195V24.2815C8.18391 24.4255 8.29792 24.5395 8.44191 24.5395H10.4039C10.5479 24.5395 10.6679 24.4255 10.6679 24.2815V22.3195ZM10.6679 27.2215C10.6679 27.0775 10.5479 26.9635 10.4039 26.9635H8.44191C8.29792 26.9635 8.18391 27.0775 8.18391 27.2215V29.1835C8.18391 29.3275 8.29792 29.4475 8.44191 29.4475H10.4039C10.5479 29.4475 10.6679 29.3275 10.6679 29.1835V27.2215ZM14.9819 12.5095C14.9819 12.3655 14.8619 12.2515 14.7179 12.2515H12.7559C12.6119 12.2515 12.4979 12.3655 12.4979 12.5095V14.4715C12.4979 14.6155 12.6119 14.7355 12.7559 14.7355H14.7179C14.8619 14.7355 14.9819 14.6155 14.9819 14.4715V12.5095ZM14.9819 17.4175C14.9819 17.2735 14.8619 17.1535 14.7179 17.1535H12.7559C12.6119 17.1535 12.4979 17.2735 12.4979 17.4175V19.3735C12.4979 19.5175 12.6119 19.6375 12.7559 19.6375H14.7179C14.8619 19.6375 14.9819 19.5175 14.9819 19.3735V17.4175ZM14.9819 22.3195C14.9819 22.1755 14.8619 22.0555 14.7179 22.0555H12.7559C12.6119 22.0555 12.4979 22.1755 12.4979 22.3195V24.2815C12.4979 24.4255 12.6119 24.5395 12.7559 24.5395H14.7179C14.8619 24.5395 14.9819 24.4255 14.9819 24.2815V22.3195ZM14.9819 27.2215C14.9819 27.0775 14.8619 26.9635 14.7179 26.9635H12.7559C12.6119 26.9635 12.4979 27.0775 12.4979 27.2215V29.1835C12.4979 29.3275 12.6119 29.4475 12.7559 29.4475H14.7179C14.8619 29.4475 14.9819 29.3275 14.9819 29.1835V27.2215ZM19.2959 12.5095C19.2959 12.3655 19.1759 12.2515 19.0319 12.2515H17.0699C16.9259 12.2515 16.8119 12.3655 16.8119 12.5095V14.4715C16.8119 14.6155 16.9259 14.7355 17.0699 14.7355H19.0319C19.1759 14.7355 19.2959 14.6155 19.2959 14.4715V12.5095ZM19.2959 17.4175C19.2959 17.2735 19.1759 17.1535 19.0319 17.1535H17.0699C16.9259 17.1535 16.8119 17.2735 16.8119 17.4175V19.3735C16.8119 19.5175 16.9259 19.6375 17.0699 19.6375H19.0319C19.1759 19.6375 19.2959 19.5175 19.2959 19.3735V17.4175ZM19.2959 22.3195C19.2959 22.1755 19.1759 22.0555 19.0319 22.0555H17.0699C16.9259 22.0555 16.8119 22.1755 16.8119 22.3195V24.2815C16.8119 24.4255 16.9259 24.5395 17.0699 24.5395H19.0319C19.1759 24.5395 19.2959 24.4255 19.2959 24.2815V22.3195ZM19.2959 27.2215C19.2959 27.0775 19.1759 26.9635 19.0319 26.9635H17.0699C16.9259 26.9635 16.8119 27.0775 16.8119 27.2215V29.1835C16.8119 29.3275 16.9259 29.4475 17.0699 29.4475H19.0319C19.1759 29.4475 19.2959 29.3275 19.2959 29.1835V27.2215Z" fill="#474350"/>
</svg>
