<svg width="240" height="56" viewBox="0 0 240 56" fill="none" xmlns="http://www.w3.org/2000/svg">
<g clip-path="url(#clip0_558_38)">
<path d="M0 34.8462C0 26.8275 6.54406 20.3271 14.6166 20.3271H65.2873C65.2873 28.3458 58.7433 34.8462 50.6707 34.8462H0Z" fill="#F6DFB5"/>
<path d="M0 55.1724C0 47.1537 6.54406 40.6533 14.6166 40.6533H65.2873C65.2873 48.672 58.7433 55.1724 50.6707 55.1724H0Z" fill="#F6DFB5"/>
<path d="M0 14.519C0 6.5004 6.54406 0 14.6166 0H65.2873C65.2873 8.01865 58.7433 14.519 50.6707 14.519H0Z" fill="#F6DFB5"/>
</g>
<g clip-path="url(#clip1_558_38)">
<path d="M91.0586 5.49687C91.6774 5.70928 92.1593 6.04307 92.5042 6.49824C92.8592 6.94328 93.0368 7.46424 93.0368 8.061C93.0368 8.70838 92.8238 9.26976 92.3977 9.74514C91.9716 10.2205 91.3933 10.5847 90.6629 10.8376C89.9426 11.0904 89.1514 11.2169 88.289 11.2169C87.5586 11.2169 86.8282 11.1258 86.0978 10.9438C85.3775 10.7617 84.6927 10.4836 84.0435 10.1093L84.8043 8.34928C85.271 8.63252 85.7833 8.84997 86.3412 9.00169C86.9094 9.14328 87.4622 9.2141 87.9999 9.2141C88.7303 9.2141 89.334 9.08259 89.8108 8.81962C90.2977 8.55666 90.5412 8.18742 90.5412 7.71204C90.5412 7.31755 90.3738 7.01914 90.039 6.81686C89.7144 6.61457 89.268 6.51342 88.6999 6.51342H86.0978V4.66238H88.5173C89.0144 4.66238 89.3999 4.56123 89.6738 4.35894C89.9579 4.15664 90.0999 3.87847 90.0999 3.52445C90.0999 3.10974 89.897 2.78606 89.4912 2.55342C89.0956 2.32078 88.5832 2.20445 87.9543 2.20445C87.4876 2.20445 87.0057 2.2702 86.5086 2.4017C86.0115 2.52307 85.5398 2.7102 85.0934 2.96307L84.3478 1.05135C85.4739 0.474799 86.6912 0.186523 87.9999 0.186523C88.8318 0.186523 89.5977 0.307903 90.2977 0.550661C90.9977 0.79342 91.5557 1.14744 91.9716 1.61273C92.3875 2.07802 92.5955 2.61916 92.5955 3.23618C92.5955 3.74192 92.4585 4.19204 92.1846 4.58652C91.9107 4.981 91.5353 5.28445 91.0586 5.49687ZM102.734 8.75893H97.7884L96.8449 11.0348H94.3188L99.0666 0.414109H101.501L106.264 11.0348H103.677L102.734 8.75893ZM101.958 6.89273L100.269 2.82652L98.5797 6.89273H101.958ZM115.59 5.49687C116.239 5.68905 116.736 6.00261 117.081 6.43755C117.426 6.8725 117.598 7.40859 117.598 8.04583C117.598 8.98652 117.238 9.71983 116.518 10.2458C115.808 10.7718 114.788 11.0348 113.459 11.0348H108.209V0.414109H113.17C114.408 0.414109 115.372 0.651811 116.062 1.12721C116.751 1.60261 117.096 2.28032 117.096 3.16032C117.096 3.68629 116.964 4.15158 116.701 4.55618C116.437 4.95066 116.067 5.26422 115.59 5.49687ZM110.659 4.81411H112.957C113.495 4.81411 113.901 4.7079 114.175 4.49549C114.449 4.27296 114.585 3.94928 114.585 3.52445C114.585 3.10974 114.443 2.79112 114.159 2.56859C113.885 2.34606 113.485 2.2348 112.957 2.2348H110.659V4.81411ZM113.368 9.2141C114.525 9.2141 115.103 8.75893 115.103 7.84859C115.103 6.96859 114.525 6.52859 113.368 6.52859H110.659V9.2141H113.368ZM125.163 11.2169C124.057 11.2169 123.058 10.9791 122.165 10.5038C121.283 10.0284 120.588 9.37597 120.081 8.54652C119.584 7.707 119.335 6.76629 119.335 5.72445C119.335 4.68261 119.584 3.74698 120.081 2.91756C120.588 2.07802 121.283 1.42054 122.165 0.945144C123.058 0.469742 124.057 0.232041 125.163 0.232041C126.269 0.232041 127.263 0.469742 128.146 0.945144C129.028 1.42054 129.723 2.07802 130.231 2.91756C130.738 3.74698 130.991 4.68261 130.991 5.72445C130.991 6.76629 130.738 7.707 130.231 8.54652C129.723 9.37597 129.028 10.0284 128.146 10.5038C127.263 10.9791 126.269 11.2169 125.163 11.2169ZM125.163 9.12307C125.792 9.12307 126.36 8.98148 126.868 8.69824C127.375 8.40493 127.77 8.00031 128.054 7.48445C128.349 6.96859 128.496 6.38192 128.496 5.72445C128.496 5.06698 128.349 4.48031 128.054 3.96445C127.77 3.44859 127.375 3.04905 126.868 2.76583C126.36 2.4725 125.792 2.32583 125.163 2.32583C124.534 2.32583 123.966 2.4725 123.459 2.76583C122.952 3.04905 122.551 3.44859 122.257 3.96445C121.973 4.48031 121.831 5.06698 121.831 5.72445C121.831 6.38192 121.973 6.96859 122.257 7.48445C122.551 8.00031 122.952 8.40493 123.459 8.69824C123.966 8.98148 124.534 9.12307 125.163 9.12307ZM144.113 9.03204V13.2348H141.83V11.0348H134.313V13.2348H132.03L132.045 9.03204H132.471C133.111 9.01183 133.562 8.54652 133.826 7.63617C134.09 6.72583 134.252 5.42606 134.313 3.73687L134.434 0.414109H142.621V9.03204H144.113ZM136.489 3.96445C136.438 5.22882 136.332 6.29089 136.169 7.15066C136.007 8.00031 135.758 8.62741 135.424 9.03204H140.187V2.41687H136.534L136.489 3.96445Z" fill="white"/>
<path d="M94.6952 31.6231L94.68 25.2658L91.5453 30.5003H90.4496L87.3149 25.3872V31.6231H85.0019V21.0024H87.041L91.0279 27.6024L94.9539 21.0024H96.993L97.0082 31.6231H94.6952ZM108.435 29.6507V31.6231H100.187V21.0024H108.237V22.9748H102.637V25.281H107.582V27.1927H102.637V29.6507H108.435ZM119.1 23.0051H115.691V31.6231H113.256V23.0051H109.863V21.0024H119.1V23.0051ZM127.858 29.3472H122.912L121.969 31.6231H119.443L124.191 21.0024H126.625L131.388 31.6231H128.802L127.858 29.3472ZM127.082 27.481L125.393 23.4148L123.704 27.481H127.082ZM142.918 21.0024V31.6231H140.484V23.0051H136.831L136.755 25.2203C136.705 26.7274 136.583 27.9513 136.39 28.892C136.197 29.8226 135.873 30.5408 135.416 31.0465C134.97 31.5422 134.341 31.79 133.529 31.79C133.194 31.79 132.789 31.7343 132.312 31.6231L132.464 29.5444C132.596 29.5849 132.743 29.6051 132.905 29.6051C133.494 29.6051 133.905 29.2612 134.138 28.5734C134.371 27.8755 134.518 26.7881 134.579 25.3113L134.731 21.0024H142.918ZM155.533 21.0024V31.6231H153.098V23.0051H149.446L149.37 25.2203C149.319 26.7274 149.197 27.9513 149.004 28.892C148.812 29.8226 148.487 30.5408 148.03 31.0465C147.584 31.5422 146.955 31.79 146.143 31.79C145.809 31.79 145.403 31.7343 144.926 31.6231L145.078 29.5444C145.21 29.5849 145.357 29.6051 145.52 29.6051C146.108 29.6051 146.519 29.2612 146.752 28.5734C146.986 27.8755 147.133 26.7881 147.193 25.3113L147.346 21.0024H155.533ZM158.726 21.0024H161.176V27.921L166.258 21.0024H168.571V31.6231H166.136V24.7196L161.054 31.6231H158.726V21.0024ZM180.209 21.0024V31.6231H177.774V27.7996C176.851 28.1334 175.994 28.3003 175.202 28.3003C173.772 28.3003 172.676 27.9615 171.915 27.2838C171.155 26.596 170.774 25.6098 170.774 24.3251V21.0024H173.209V24.052C173.209 24.7803 173.401 25.3315 173.787 25.7058C174.183 26.07 174.751 26.252 175.491 26.252C176.303 26.252 177.064 26.0953 177.774 25.7817V21.0024H180.209ZM191.637 29.6507V31.6231H183.389V21.0024H191.439V22.9748H185.839V25.281H190.785V27.1927H185.839V29.6507H191.637ZM199.168 31.8051C198.082 31.8051 197.098 31.5725 196.216 31.1072C195.343 30.6318 194.653 29.9794 194.146 29.15C193.649 28.3104 193.401 27.3647 193.401 26.3127C193.401 25.2608 193.649 24.3201 194.146 23.4907C194.653 22.6511 195.343 21.9987 196.216 21.5334C197.098 21.058 198.088 20.8203 199.183 20.8203C200.106 20.8203 200.938 20.9822 201.679 21.3058C202.429 21.6295 203.058 22.0948 203.566 22.7017L201.983 24.1582C201.262 23.3288 200.37 22.9141 199.305 22.9141C198.645 22.9141 198.057 23.0608 197.54 23.3541C197.022 23.6373 196.616 24.0369 196.322 24.5527C196.038 25.0686 195.896 25.6553 195.896 26.3127C195.896 26.9702 196.038 27.5569 196.322 28.0727C196.616 28.5886 197.022 28.9932 197.54 29.2865C198.057 29.5698 198.645 29.7113 199.305 29.7113C200.37 29.7113 201.262 29.2915 201.983 28.452L203.566 29.9086C203.058 30.5256 202.429 30.996 201.679 31.3196C200.928 31.6433 200.091 31.8051 199.168 31.8051ZM209.829 27.3444H208.125V31.6231H205.675V21.0024H208.125V25.2962H209.89L212.69 21.0024H215.292L211.807 26.1307L215.398 31.6231H212.598L209.829 27.3444ZM217.085 21.0024H219.535V27.921L224.618 21.0024H226.931V31.6231H224.496V24.7196L219.414 31.6231H217.085V21.0024ZM232.034 21.0024L234.24 24.2189L236.447 21.0024H239.338L235.792 26.0851L239.627 31.6231H236.72L234.24 28.1031L231.79 31.6231H228.944L232.749 26.1913L229.188 21.0024H232.034ZM95.9887 50.3099V54.5127H93.7061V52.3127H86.1888V54.5127H83.9062L83.9215 50.3099H84.3475C84.9867 50.2897 85.4381 49.8244 85.7019 48.9141C85.9656 48.0037 86.128 46.704 86.1888 45.0148L86.3106 41.692H94.4974V50.3099H95.9887ZM88.3649 45.2424C88.3142 46.5067 88.2076 47.5688 88.0453 48.4286C87.883 49.2782 87.6345 49.9053 87.2997 50.3099H92.0626V43.6948H88.4105L88.3649 45.2424ZM105.561 46.7748C106.21 46.967 106.707 47.2805 107.052 47.7155C107.397 48.1504 107.57 48.6865 107.57 49.3237C107.57 50.2644 107.21 50.9977 106.489 51.5237C105.779 52.0497 104.76 52.3127 103.431 52.3127H98.1808V41.692H103.142C104.379 41.692 105.343 41.9297 106.033 42.4051C106.723 42.8805 107.068 43.5582 107.068 44.4382C107.068 44.9642 106.936 45.4295 106.672 45.8341C106.408 46.2286 106.038 46.5422 105.561 46.7748ZM100.631 46.092H102.929C103.466 46.092 103.872 45.9858 104.146 45.7734C104.42 45.5508 104.557 45.2272 104.557 44.8024C104.557 44.3877 104.415 44.0691 104.131 43.8465C103.857 43.624 103.456 43.5127 102.929 43.5127H100.631V46.092ZM103.339 50.492C104.496 50.492 105.074 50.0368 105.074 49.1265C105.074 48.2465 104.496 47.8065 103.339 47.8065H100.631V50.492H103.339ZM118.3 50.3403V52.3127H110.052V41.692H118.102V43.6644H112.502V45.9706H117.447V47.8824H112.502V50.3403H118.3ZM125.434 41.692C126.378 41.692 127.194 41.8488 127.884 42.1624C128.584 42.476 129.122 42.921 129.497 43.4975C129.873 44.0741 130.06 44.7569 130.06 45.5458C130.06 46.3246 129.873 47.0074 129.497 47.5941C129.122 48.1706 128.584 48.6157 127.884 48.9293C127.194 49.2327 126.378 49.3844 125.434 49.3844H123.289V52.3127H120.823V41.692H125.434ZM125.297 47.3817C126.038 47.3817 126.601 47.2249 126.986 46.9113C127.372 46.5877 127.565 46.1325 127.565 45.5458C127.565 44.9491 127.372 44.4939 126.986 44.1803C126.601 43.8566 126.038 43.6948 125.297 43.6948H123.289V47.3817H125.297ZM140.467 50.3403V52.3127H132.219V41.692H140.269V43.6644H134.669V45.9706H139.615V47.8824H134.669V50.3403H140.467ZM142.991 41.692H145.44V48.6106L150.523 41.692H152.836V52.3127H150.401V45.4093L145.319 52.3127H142.991V41.692ZM147.906 41.0093C145.958 41.0093 144.974 40.2355 144.954 38.6879H146.643C146.663 39.4263 147.084 39.7955 147.906 39.7955C148.311 39.7955 148.621 39.7044 148.834 39.5224C149.047 39.3302 149.159 39.052 149.169 38.6879H150.858C150.848 39.4465 150.599 40.0231 150.112 40.4175C149.625 40.812 148.89 41.0093 147.906 41.0093Z" fill="#F6DFB5"/>
</g>
<defs>
<clipPath id="clip0_558_38">
<rect width="65.2873" height="55.1724" fill="white"/>
</clipPath>
<clipPath id="clip1_558_38">
<rect width="156.322" height="55.1724" fill="white" transform="translate(83.6782)"/>
</clipPath>
</defs>
</svg>
