<svg width="36" height="36" viewBox="0 0 36 36" fill="none" xmlns="http://www.w3.org/2000/svg">
<path d="M17.6581 3.72657L6.37207 12.6906H29.6341L18.3421 3.72657C18.1381 3.58854 17.8681 3.58854 17.6581 3.72657ZM19.611 8.83554C19.611 9.72891 18.8934 10.4465 18.0001 10.4465C17.1137 10.4465 16.3891 9.72891 16.3891 8.83554C16.3891 7.94912 17.1137 7.22454 18.0001 7.22454C18.8934 7.22454 19.611 7.94912 19.611 8.83554Z" fill="#474350"/>
<path d="M13.1058 24.0488H12.0798V26.651H13.1058V24.0488Z" fill="#474350"/>
<path d="M8.68789 24.0488C8.3579 24.0488 8.08789 24.3128 8.08789 24.6488V31.7768C8.08789 32.1128 8.3579 32.3768 8.68789 32.3768H16.4939C16.8299 32.3768 17.0939 32.1128 17.0939 31.7768V24.6488C17.0939 24.3128 16.8299 24.0488 16.4939 24.0488H14.3057V27.2513C14.3057 27.5827 14.0373 27.8513 13.7057 27.8513H11.4797C11.1481 27.8513 10.8797 27.5827 10.8797 27.2513V24.0488H8.68789ZM19.5059 24.0488C19.1759 24.0488 18.9059 24.3128 18.9059 24.6488V31.7768C18.9059 32.1128 19.1759 32.3768 19.5059 32.3768H27.3119C27.6419 32.3768 27.9119 32.1128 27.9119 31.7768V24.6488C27.9119 24.3128 27.6419 24.0488 27.3119 24.0488H25.1227V27.2513C25.1227 27.5827 24.8543 27.8513 24.5227 27.8513H22.2967C21.9651 27.8513 21.6967 27.5827 21.6967 27.2513V24.0488H19.5059Z" fill="#474350"/>
<path d="M23.9225 24.0488H22.8965V26.651H23.9225V24.0488Z" fill="#474350"/>
<path d="M31.8001 13.8906H4.2001C3.8701 13.8906 3.6001 14.1606 3.6001 14.4906V16.4946C3.6001 16.8246 3.8701 17.0946 4.2001 17.0946H4.9561V31.7766C4.9561 32.1126 5.22607 32.3766 5.5561 32.3766C5.8861 32.3766 6.1561 32.1126 6.1561 31.7766V21.5946H29.8441V31.7766C29.8441 32.1126 30.1141 32.3766 30.4441 32.3766C30.7801 32.3766 31.0441 32.1126 31.0441 31.7766V17.0946H31.8001C32.1301 17.0946 32.4001 16.8246 32.4001 16.4946V14.4906C32.4001 14.1606 32.1301 13.8906 31.8001 13.8906ZM29.8441 18.7446H6.1561V17.0946H29.8441V18.7446Z" fill="#474350"/>
</svg>
