<svg width="80" height="80" fill="none" xmlns="http://www.w3.org/2000/svg">
    <g filter="url(#a)">
        <path d="M10 36C10 19.431 23.431 6 40 6c16.569 0 30 13.431 30 30 0 16.569-13.431 30-30 30H13.75A3.75 3.75 0 0 1 10 62.25V36Z" fill="#D1BE99"/>
    </g>
    <path d="M16 36c0-13.255 10.745-24 24-24s24 10.745 24 24-10.745 24-24 24H19a3 3 0 0 1-3-3V36Z" fill="#fff"/>
    <path d="M26.2 49.2h1.29v-27a.6.6 0 0 1 .246-.486.606.606 0 0 1 .534-.084l15.3 4.962c.252.084.42.312.42.57V49.2h1.2V35.687l7.122 6.469a.6.6 0 0 1 .198.444v6.6h1.29c.33 0 .6.27.6.6 0 .336-.27.6-.6.6H26.2c-.33 0-.6-.264-.6-.6 0-.33.27-.6.6-.6Zm6.468-18.69a.261.261 0 0 0-.264-.259h-1.962a.256.256 0 0 0-.258.258v1.962c0 .145.114.265.258.265h1.962c.144 0 .264-.12.264-.264v-1.963Zm0 4.907a.266.266 0 0 0-.264-.264h-1.962a.261.261 0 0 0-.258.264v1.956c0 .145.114.265.258.265h1.962c.144 0 .264-.12.264-.264v-1.957Zm0 4.902a.266.266 0 0 0-.264-.264h-1.962a.261.261 0 0 0-.258.264v1.962c0 .145.114.258.258.258h1.962a.261.261 0 0 0 .264-.258V40.32Zm0 4.902a.261.261 0 0 0-.264-.257h-1.962a.256.256 0 0 0-.258.258v1.962c0 .144.114.264.258.264h1.962c.144 0 .264-.12.264-.264v-1.962Zm4.314-14.711a.261.261 0 0 0-.264-.259h-1.962a.256.256 0 0 0-.258.258v1.962c0 .145.114.265.258.265h1.962c.144 0 .264-.12.264-.264v-1.963Zm0 4.907a.266.266 0 0 0-.264-.264h-1.962a.261.261 0 0 0-.258.264v1.956c0 .145.114.265.258.265h1.962c.144 0 .264-.12.264-.264v-1.957Zm0 4.902a.266.266 0 0 0-.264-.264h-1.962a.261.261 0 0 0-.258.264v1.962c0 .145.114.258.258.258h1.962a.261.261 0 0 0 .264-.258V40.32Zm0 4.902a.261.261 0 0 0-.264-.257h-1.962a.256.256 0 0 0-.258.258v1.962c0 .144.114.264.258.264h1.962c.144 0 .264-.12.264-.264v-1.962Zm4.314-14.711a.261.261 0 0 0-.264-.259H39.07a.256.256 0 0 0-.258.258v1.962c0 .145.114.265.258.265h1.962c.144 0 .264-.12.264-.264v-1.963Zm0 4.907a.266.266 0 0 0-.264-.264H39.07a.261.261 0 0 0-.258.264v1.956c0 .145.114.265.258.265h1.962c.144 0 .264-.12.264-.264v-1.957Zm0 4.902a.266.266 0 0 0-.264-.264H39.07a.261.261 0 0 0-.258.264v1.962c0 .145.114.258.258.258h1.962a.261.261 0 0 0 .264-.258V40.32Zm0 4.902a.261.261 0 0 0-.264-.257H39.07a.256.256 0 0 0-.258.258v1.962c0 .144.114.264.258.264h1.962c.144 0 .264-.12.264-.264v-1.962Z" fill="#474350"/>
    <defs>
        <filter id="a" x="0" y="0" width="80" height="80" filterUnits="userSpaceOnUse" color-interpolation-filters="sRGB">
            <feFlood flood-opacity="0" result="BackgroundImageFix"/>
            <feColorMatrix in="SourceAlpha" values="0 0 0 0 0 0 0 0 0 0 0 0 0 0 0 0 0 0 127 0" result="hardAlpha"/>
            <feOffset dy="4"/>
            <feGaussianBlur stdDeviation="5"/>
            <feComposite in2="hardAlpha" operator="out"/>
            <feColorMatrix values="0 0 0 0 0.392157 0 0 0 0 0.368627 0 0 0 0 0.439216 0 0 0 0.3 0"/>
            <feBlend in2="BackgroundImageFix" result="effect1_dropShadow_643_560"/>
            <feBlend in="SourceGraphic" in2="effect1_dropShadow_643_560" result="shape"/>
        </filter>
    </defs>
</svg>
