<svg width="36" height="36" fill="none" xmlns="http://www.w3.org/2000/svg">
    <path d="M4.2 31.2h1.29v-27a.6.6 0 0 1 .246-.487.606.606 0 0 1 .534-.083l15.3 4.961c.252.084.42.312.42.57V31.2h1.2V17.688l7.122 6.468a.6.6 0 0 1 .198.444v6.6h1.29c.33 0 .6.27.6.6 0 .337-.27.6-.6.6H4.2c-.33 0-.6-.264-.6-.6 0-.33.27-.6.6-.6Zm6.468-18.69a.261.261 0 0 0-.264-.258H8.442a.256.256 0 0 0-.258.257v1.963c0 .144.114.264.258.264h1.962c.144 0 .264-.12.264-.264v-1.963Zm0 4.908a.266.266 0 0 0-.264-.264H8.442a.261.261 0 0 0-.258.264v1.956c0 .143.114.264.258.264h1.962c.144 0 .264-.12.264-.265v-1.956Zm0 4.902a.266.266 0 0 0-.264-.265H8.442a.261.261 0 0 0-.258.265v1.962c0 .143.114.258.258.258h1.962a.261.261 0 0 0 .264-.258V22.32Zm0 4.901a.261.261 0 0 0-.264-.258H8.442a.256.256 0 0 0-.258.258v1.962c0 .145.114.265.258.265h1.962c.144 0 .264-.12.264-.265v-1.962Zm4.314-14.712a.261.261 0 0 0-.264-.258h-1.962a.256.256 0 0 0-.258.258v1.963c0 .144.114.264.258.264h1.962c.144 0 .264-.12.264-.264v-1.963Zm0 4.909a.266.266 0 0 0-.264-.264h-1.962a.261.261 0 0 0-.258.264v1.956c0 .143.114.264.258.264h1.962c.144 0 .264-.12.264-.265v-1.956Zm0 4.902a.266.266 0 0 0-.264-.265h-1.962a.261.261 0 0 0-.258.265v1.962c0 .143.114.258.258.258h1.962a.261.261 0 0 0 .264-.258V22.32Zm0 4.901a.261.261 0 0 0-.264-.258h-1.962a.256.256 0 0 0-.258.258v1.962c0 .145.114.265.258.265h1.962c.144 0 .264-.12.264-.265v-1.962Zm4.314-14.712a.261.261 0 0 0-.264-.258H17.07a.256.256 0 0 0-.258.258v1.963c0 .144.114.264.258.264h1.962c.144 0 .264-.12.264-.264v-1.963Zm0 4.909a.266.266 0 0 0-.264-.264H17.07a.261.261 0 0 0-.258.264v1.956c0 .143.114.264.258.264h1.962c.144 0 .264-.12.264-.265v-1.956Zm0 4.902a.266.266 0 0 0-.264-.265H17.07a.261.261 0 0 0-.258.265v1.962c0 .143.114.258.258.258h1.962a.261.261 0 0 0 .264-.258V22.32Zm0 4.901a.261.261 0 0 0-.264-.258H17.07a.256.256 0 0 0-.258.258v1.962c0 .145.114.265.258.265h1.962c.144 0 .264-.12.264-.265v-1.962Z" fill="#474350"/>
</svg>
