<svg width="36" height="36" fill="none" xmlns="http://www.w3.org/2000/svg">
    <path d="M17.658 3.727 6.372 12.69h23.262L18.342 3.727a.617.617 0 0 0-.684 0Zm1.953 5.109a1.61 1.61 0 1 1-3.222 0 1.61 1.61 0 0 1 3.222 0ZM13.106 24.049H12.08v2.602h1.026v-2.602Z" fill="#474350"/>
    <path d="M8.688 24.049c-.33 0-.6.264-.6.6v7.128c0 .336.27.6.6.6h7.806c.336 0 .6-.264.6-.6v-7.128c0-.336-.264-.6-.6-.6h-2.188v3.202a.6.6 0 0 1-.6.6H11.48a.6.6 0 0 1-.6-.6V24.05H8.688Zm10.818 0c-.33 0-.6.264-.6.6v7.128c0 .336.27.6.6.6h7.806c.33 0 .6-.264.6-.6v-7.128c0-.336-.27-.6-.6-.6h-2.19v3.202a.6.6 0 0 1-.6.6h-2.225a.6.6 0 0 1-.6-.6V24.05h-2.191Z" fill="#474350"/>
    <path d="M23.922 24.049h-1.026v2.602h1.026v-2.602Z" fill="#474350"/>
    <path d="M31.8 13.89H4.2c-.33 0-.6.27-.6.6v2.005c0 .33.27.6.6.6h.756v14.682c0 .336.27.6.6.6.33 0 .6-.264.6-.6V21.595h23.688v10.182c0 .336.27.6.6.6.336 0 .6-.264.6-.6V17.095h.756c.33 0 .6-.27.6-.6V14.49c0-.33-.27-.6-.6-.6Zm-1.956 4.855H6.156v-1.65h23.688v1.65Z" fill="#474350"/>
</svg>
