<svg width="80" height="80" fill="none" xmlns="http://www.w3.org/2000/svg">
    <g filter="url(#a)">
        <path d="M10 36C10 19.431 23.431 6 40 6c16.569 0 30 13.431 30 30 0 16.569-13.431 30-30 30H13.75A3.75 3.75 0 0 1 10 62.25V36Z" fill="#D1BE99"/>
    </g>
    <path d="M16 36c0-13.255 10.745-24 24-24s24 10.745 24 24-10.745 24-24 24H19a3 3 0 0 1-3-3V36Z" fill="#fff"/>
    <path d="M39.658 21.727 28.372 30.69h23.262l-11.292-8.964a.616.616 0 0 0-.684 0Zm1.953 5.108a1.61 1.61 0 1 1-3.222 0 1.61 1.61 0 0 1 3.222 0ZM35.106 42.049H34.08v2.602h1.026v-2.602Z" fill="#474350"/>
    <path d="M30.688 42.049c-.33 0-.6.264-.6.6v7.128c0 .336.27.6.6.6h7.806c.336 0 .6-.264.6-.6v-7.128c0-.336-.264-.6-.6-.6h-2.188v3.202a.6.6 0 0 1-.6.6H33.48a.6.6 0 0 1-.6-.6V42.05h-2.192Zm10.818 0c-.33 0-.6.264-.6.6v7.128c0 .336.27.6.6.6h7.806c.33 0 .6-.264.6-.6v-7.128c0-.336-.27-.6-.6-.6h-2.19v3.202a.6.6 0 0 1-.6.6h-2.225a.6.6 0 0 1-.6-.6V42.05h-2.191Z" fill="#474350"/>
    <path d="M45.922 42.049h-1.025v2.602h1.026v-2.602Z" fill="#474350"/>
    <path d="M53.8 31.89H26.2c-.33 0-.6.27-.6.6v2.005c0 .33.27.6.6.6h.756v14.682c0 .336.27.6.6.6.33 0 .6-.264.6-.6V39.595h23.688v10.182c0 .336.27.6.6.6.336 0 .6-.264.6-.6V35.095h.756c.33 0 .6-.27.6-.6V32.49c0-.33-.27-.6-.6-.6Zm-1.956 4.855H28.156v-1.65h23.688v1.65Z" fill="#474350"/>
    <defs>
        <filter id="a" x="0" y="0" width="80" height="80" filterUnits="userSpaceOnUse" color-interpolation-filters="sRGB">
            <feFlood flood-opacity="0" result="BackgroundImageFix"/>
            <feColorMatrix in="SourceAlpha" values="0 0 0 0 0 0 0 0 0 0 0 0 0 0 0 0 0 0 127 0" result="hardAlpha"/>
            <feOffset dy="4"/>
            <feGaussianBlur stdDeviation="5"/>
            <feComposite in2="hardAlpha" operator="out"/>
            <feColorMatrix values="0 0 0 0 0.392157 0 0 0 0 0.368627 0 0 0 0 0.439216 0 0 0 0.3 0"/>
            <feBlend in2="BackgroundImageFix" result="effect1_dropShadow_643_561"/>
            <feBlend in="SourceGraphic" in2="effect1_dropShadow_643_561" result="shape"/>
        </filter>
    </defs>
</svg>
