<svg width="52" height="30" viewBox="0 0 52 30" fill="none" xmlns="http://www.w3.org/2000/svg">
<path d="M6.44 27.72L5.36622 29.4074L5.37773 29.4146L6.44 27.72ZM2.28 22.84L0.46933 23.6894L0.473445 23.6981L2.28 22.84ZM2.28 7.2L4.08658 8.05812L4.09065 8.04944L2.28 7.2ZM6.44 2.28L5.37771 0.585385L5.36625 0.592675L6.44 2.28ZM18.44 2.28L19.5138 0.592675L18.44 2.28ZM22.6 7.2L20.7894 8.04944L20.7957 8.06297L20.8022 8.0764L22.6 7.2ZM22.6 22.84L20.798 21.9724L20.7934 21.9819L22.6 22.84ZM18.44 27.72L17.3663 26.0327L18.44 27.72ZM15.84 23.84L17.011 25.4614L17.0256 25.4508L17.04 25.44L15.84 23.84ZM18.08 20.56L16.2116 19.8466L16.2059 19.8615L16.2004 19.8765L18.08 20.56ZM18.08 9.44L16.2004 10.1235L16.208 10.1443L16.216 10.1649L18.08 9.44ZM15.84 6.2L14.64 7.8L14.6544 7.81081L14.669 7.82136L15.84 6.2ZM9.08 6.2L10.251 7.82138L10.2589 7.81558L9.08 6.2ZM6.8 9.44L4.93156 8.7266L4.92799 8.73597L4.9245 8.74537L6.8 9.44ZM6.8 20.56L4.92041 21.2435L4.92587 21.2585L4.93156 21.2734L6.8 20.56ZM9.08 23.84L7.88 25.44L7.90477 25.4586L7.93011 25.4764L9.08 23.84ZM12.44 27.4C10.5829 27.4 8.9544 26.9357 7.50227 26.0254L5.37773 29.4146C7.49893 30.7443 9.87047 31.4 12.44 31.4V27.4ZM7.51375 26.0327C6.11161 25.1404 4.96037 23.8215 4.08656 21.9819L0.473445 23.6981C1.6263 26.1252 3.24839 28.0596 5.36625 29.4073L7.51375 26.0327ZM4.09065 21.9906C3.23229 20.1609 2.76 17.8538 2.76 15H-1.24C-1.24 18.2795 -0.698954 21.1991 0.469351 23.6894L4.09065 21.9906ZM2.76 15C2.76 12.145 3.23268 9.85575 4.08656 8.05811L0.473445 6.34189C-0.699344 8.81092 -1.24 11.7217 -1.24 15H2.76ZM4.09065 8.04944C4.96654 6.18241 6.11798 4.85554 7.51375 3.96732L5.36625 0.592675C3.24202 1.94445 1.62013 3.89759 0.469351 6.35056L4.09065 8.04944ZM7.50227 3.97457C8.9544 3.06428 10.5829 2.6 12.44 2.6V-1.4C9.87047 -1.4 7.49893 -0.744285 5.37773 0.585424L7.50227 3.97457ZM12.44 2.6C14.3289 2.6 15.951 3.0667 17.3663 3.96732L19.5138 0.592675C17.409 -0.746702 15.0311 -1.4 12.44 -1.4V2.6ZM17.3663 3.96732C18.762 4.85554 19.9135 6.18241 20.7894 8.04944L24.4107 6.35056C23.2599 3.89759 21.638 1.94445 19.5138 0.592675L17.3663 3.96732ZM20.8022 8.0764C21.6762 9.86903 22.16 12.1514 22.16 15H26.16C26.16 11.7152 25.6038 8.79763 24.3978 6.3236L20.8022 8.0764ZM22.16 15C22.16 17.8474 21.6765 20.1477 20.798 21.9724L24.402 23.7076C25.6035 21.2123 26.16 18.286 26.16 15H22.16ZM20.7934 21.9819C19.9196 23.8215 18.7684 25.1404 17.3663 26.0327L19.5138 29.4073C21.6316 28.0596 23.2537 26.1252 24.4066 23.6981L20.7934 21.9819ZM17.3663 26.0327C15.951 26.9333 14.3289 27.4 12.44 27.4V31.4C15.0311 31.4 17.409 30.7467 19.5138 29.4073L17.3663 26.0327ZM12.44 26.88C14.1214 26.88 15.6749 26.4263 17.011 25.4614L14.669 22.2186C14.0851 22.6404 13.3719 22.88 12.44 22.88V26.88ZM17.04 25.44C18.3915 24.4263 19.3329 22.967 19.9596 21.2435L16.2004 19.8765C15.7605 21.0864 15.2085 21.8137 14.64 22.24L17.04 25.44ZM19.9484 21.2734C20.624 19.504 20.92 17.3882 20.92 15H16.92C16.92 17.0918 16.656 18.6826 16.2116 19.8466L19.9484 21.2734ZM20.92 15C20.92 12.5908 20.6255 10.4675 19.944 8.71511L16.216 10.1649C16.6545 11.2925 16.92 12.8759 16.92 15H20.92ZM19.9596 8.75651C19.3322 7.03132 18.3845 5.57066 17.011 4.57864L14.669 7.82136C15.2155 8.21601 15.7611 8.91534 16.2004 10.1235L19.9596 8.75651ZM17.04 4.6C15.7026 3.59694 14.1387 3.12 12.44 3.12V7.12C13.3546 7.12 14.0574 7.36306 14.64 7.8L17.04 4.6ZM12.44 3.12C10.7747 3.12 9.23952 3.60771 7.90106 4.58441L10.2589 7.81558C10.8938 7.35229 11.5986 7.12 12.44 7.12V3.12ZM7.90902 4.57864C6.54531 5.56354 5.5862 7.01208 4.93156 8.7266L8.66844 10.1534C9.1338 8.93459 9.69469 8.22312 10.251 7.82136L7.90902 4.57864ZM4.9245 8.74537C4.27953 10.4868 4 12.5985 4 15H8C8 12.8681 8.2538 11.2732 8.6755 10.1346L4.9245 8.74537ZM4 15C4 17.3803 4.28089 19.4848 4.92041 21.2435L8.67959 19.8765C8.25244 18.7019 8 17.0997 8 15H4ZM4.93156 21.2734C5.5855 22.9861 6.53806 24.4335 7.88 25.44L10.28 22.24C9.70194 21.8065 9.1345 21.0672 8.66844 19.8466L4.93156 21.2734ZM7.93011 25.4764C9.26735 26.4161 10.7923 26.88 12.44 26.88V22.88C11.581 22.88 10.866 22.6506 10.2299 22.2036L7.93011 25.4764ZM31.275 29H29.275V31H31.275V29ZM31.275 25.52L29.8978 24.0697L29.275 24.6612V25.52H31.275ZM42.395 14.96L41.023 13.5048L41.0178 13.5097L42.395 14.96ZM44.475 12.64L42.8211 11.5154L42.8211 11.5154L44.475 12.64ZM45.355 10.8L43.4255 10.2738L43.4169 10.3051L43.4094 10.3368L45.355 10.8ZM44.275 6.2L43.0085 7.74791L43.0228 7.75958L43.0373 7.77098L44.275 6.2ZM36.675 5.84L35.8872 4.00171L35.8791 4.00517L35.871 4.00871L36.675 5.84ZM33.835 8.04L32.6156 9.62525L34.1608 10.8138L35.3885 9.2996L33.835 8.04ZM30.195 5.24L28.5915 4.04467L27.4141 5.62411L28.9756 6.82525L30.195 5.24ZM34.595 1.84L35.3925 3.67418L35.4049 3.6687L34.595 1.84ZM46.115 1.6L45.2997 3.42627L45.3192 3.43498L45.3389 3.44327L46.115 1.6ZM49.595 4.36L47.9309 5.4694L47.9393 5.48207L47.948 5.49461L49.595 4.36ZM50.475 11.36L52.4045 11.8862L52.4065 11.879L52.4084 11.8718L50.475 11.36ZM46.195 17.48L47.5724 18.9302L47.5788 18.924L46.195 17.48ZM36.635 26.56L34.8833 27.5252L36.1337 29.7944L38.0123 28.0102L36.635 26.56ZM35.555 24.6V22.6H32.1694L33.8033 25.5652L35.555 24.6ZM51.915 24.6H53.915V22.6H51.915V24.6ZM51.915 29V31H53.915V29H51.915ZM33.275 29V25.52H29.275V29H33.275ZM32.6522 26.9703L43.7722 16.4103L41.0178 13.5097L29.8978 24.0697L32.6522 26.9703ZM43.767 16.4152C44.7519 15.4866 45.5606 14.6003 46.1289 13.7646L42.8211 11.5154C42.4828 12.013 41.9048 12.6734 41.023 13.5048L43.767 16.4152ZM46.1289 13.7646C46.6682 12.9715 47.0934 12.1337 47.3006 11.2632L43.4094 10.3368C43.35 10.5863 43.1885 10.9752 42.8211 11.5154L46.1289 13.7646ZM47.2845 11.3262C47.4823 10.6011 47.595 9.87572 47.595 9.16H43.595C43.595 9.45761 43.5477 9.82554 43.4255 10.2738L47.2845 11.3262ZM47.595 9.16C47.595 7.36602 46.9467 5.7588 45.5127 4.62902L43.0373 7.77098C43.3633 8.02787 43.595 8.39398 43.595 9.16H47.595ZM45.5415 4.65208C44.1635 3.52463 42.3412 3.12 40.395 3.12V7.12C41.8621 7.12 42.6265 7.43536 43.0085 7.74791L45.5415 4.65208ZM40.395 3.12C38.7956 3.12 37.2835 3.40327 35.8872 4.00171L37.4628 7.67829C38.3065 7.31673 39.2744 7.12 40.395 7.12V3.12ZM35.871 4.00871C34.4673 4.62497 33.2691 5.56239 32.2815 6.78039L35.3885 9.2996C36.0009 8.54427 36.696 8.01503 37.479 7.67129L35.871 4.00871ZM35.0544 6.45475L31.4144 3.65475L28.9756 6.82525L32.6156 9.62525L35.0544 6.45475ZM31.7985 6.43533C32.6636 5.27476 33.8404 4.34893 35.3925 3.67414L33.7975 0.00585878C31.6696 0.931066 29.913 2.2719 28.5915 4.04467L31.7985 6.43533ZM35.4049 3.6687C36.9867 2.96815 38.7861 2.6 40.835 2.6V-1.4C38.2972 -1.4 35.9366 -0.941484 33.7851 0.0113006L35.4049 3.6687ZM40.835 2.6C42.6461 2.6 44.1166 2.89808 45.2997 3.42627L46.9303 -0.226279C45.1268 -1.03142 43.0772 -1.4 40.835 -1.4V2.6ZM45.3389 3.44327C46.5507 3.95352 47.3786 4.64091 47.9309 5.4694L51.2591 3.2506C50.2114 1.67909 48.7193 0.52648 46.8911 -0.243273L45.3389 3.44327ZM47.948 5.49461C48.5147 6.31721 48.835 7.33539 48.835 8.64H52.835C52.835 6.63794 52.3287 4.80279 51.242 3.22539L47.948 5.49461ZM48.835 8.64C48.835 9.36804 48.7389 10.1028 48.5416 10.8482L52.4084 11.8718C52.6911 10.8039 52.835 9.72529 52.835 8.64H48.835ZM48.5455 10.8338C48.3777 11.449 48.0372 12.1828 47.4578 13.0403L50.7722 15.2797C51.5262 14.1638 52.0923 13.031 52.4045 11.8862L48.5455 10.8338ZM47.4578 13.0403C46.8989 13.8675 46.0334 14.8648 44.8112 16.036L47.5788 18.924C48.9166 17.6419 49.9978 16.4258 50.7722 15.2797L47.4578 13.0403ZM44.8177 16.0298L35.2577 25.1098L38.0123 28.0102L47.5723 18.9301L44.8177 16.0298ZM38.3867 25.5948L37.3067 23.6348L33.8033 25.5652L34.8833 27.5252L38.3867 25.5948ZM35.555 26.6H51.915V22.6H35.555V26.6ZM49.915 24.6V29H53.915V24.6H49.915ZM51.915 27H31.275V31H51.915V27Z" fill="#D1BE99"/>
</svg>
