<svg width="68" height="32" viewBox="0 0 68 32" fill="none" xmlns="http://www.w3.org/2000/svg">
<path fill-rule="evenodd" clip-rule="evenodd" d="M7.50283 30.0559C5.09754 28.7411 3.25531 26.8538 1.94599 24.486L1.94132 24.4775C0.614451 22.0479 0 19.1995 0 16C0 12.8035 0.613311 9.9652 1.94364 7.5573C3.25046 5.16614 5.09173 3.26211 7.50283 1.94407L7.51584 1.93696C9.92493 0.639685 12.6183 0 15.5366 0C18.4794 0 21.18 0.637365 23.5704 1.94407C25.9785 3.26046 27.8182 5.16139 29.1247 7.54834C30.4893 9.95923 31.1186 12.8011 31.1186 16C31.1186 19.2037 30.4874 22.057 29.1248 24.4904C27.8156 26.8562 25.9742 28.7419 23.5704 30.0559C21.18 31.3626 18.4794 32 15.5366 32C12.6183 32 9.92496 31.3603 7.51587 30.063L7.50283 30.0559ZM27.0755 23.6488C28.2566 21.5415 28.8472 18.9919 28.8472 16C28.8472 13.0081 28.2566 10.4715 27.0755 8.39024C25.9246 6.28293 24.3498 4.68293 22.3509 3.59024C20.352 2.49756 18.0806 1.95122 15.5366 1.95122C13.0229 1.95122 10.7515 2.49756 8.72231 3.59024C6.72345 4.68293 5.14858 6.28293 3.99772 8.39024C2.84686 10.4715 2.27143 13.0081 2.27143 16C2.27143 18.9919 2.84686 21.5415 3.99772 23.6488C5.14858 25.7301 6.72345 27.3171 8.72231 28.4098C10.7515 29.5024 13.0229 30.0488 15.5366 30.0488C18.0806 30.0488 20.352 29.5024 22.3509 28.4098C24.3498 27.3171 25.9246 25.7301 27.0755 23.6488ZM19.3981 7.41463C20.4883 8.09106 21.3363 9.14472 21.9421 10.5756C22.5781 11.9805 22.8961 13.7886 22.8961 16C22.8961 18.1854 22.5781 19.9935 21.9421 21.4244C21.3363 22.8553 20.4883 23.9219 19.3981 24.6244C18.3078 25.3008 17.0206 25.639 15.5366 25.639C14.1132 25.639 12.8412 25.3008 11.7206 24.6244C10.6303 23.9219 9.76717 22.8553 9.13117 21.4244C8.52545 19.9935 8.22259 18.1854 8.22259 16C8.22259 13.7886 8.52545 11.9805 9.13117 10.5756C9.76717 9.14472 10.6303 8.09106 11.7206 7.41463C12.8412 6.71219 14.1132 6.36098 15.5366 6.36098C17.0206 6.36098 18.3078 6.71219 19.3981 7.41463ZM11.2573 11.2623C10.7807 12.3725 10.494 13.9258 10.494 16C10.494 18.0399 10.7783 19.5984 11.2597 20.7431C11.7804 21.9087 12.4117 22.6221 13.0561 23.0456C13.7711 23.4701 14.5743 23.6878 15.5366 23.6878C16.586 23.6878 17.3912 23.458 18.0513 23.053C18.6912 22.6356 19.3119 21.9281 19.8074 20.7576L19.8136 20.7429L19.82 20.7284C20.3248 19.5928 20.6246 18.0408 20.6246 16C20.6246 13.9277 20.3231 12.3829 19.8251 11.2828L19.816 11.2627L19.8074 11.2424C19.3084 10.0637 18.6887 9.38147 18.0681 8.99645L18.0516 8.98615L18.0352 8.97561C17.3735 8.54932 16.5754 8.3122 15.5366 8.3122C14.581 8.3122 13.7806 8.53882 13.0595 8.99081L13.0505 8.99646C12.4204 9.38741 11.785 10.0789 11.2573 11.2623ZM34.6553 25.4049V19.2807L51.4774 0.390244H63.4712L53.5394 11.7073H62.3668V17.2098H68V25.4049H62.3668V31.6098H52.1V25.4049H34.6553ZM54.3714 23.4537V29.6585H60.0954V23.4537H65.7286V19.161H60.0954V13.6585H54.5531V19.161H44.1535L58.9143 2.34146H52.5997L36.9268 19.9415V23.4537H54.3714ZM48.7104 17.2098H52.2817V13.1404L48.7104 17.2098Z" fill="#D1BE99"/>
</svg>
