<svg width="64" height="64" viewBox="0 0 64 64" fill="none" xmlns="http://www.w3.org/2000/svg">
<g clip-path="url(#clip0_481_164)">
<path d="M49.3333 52H57.3333C58.7478 52 60.1044 52.5619 61.1046 53.5621C62.1048 54.5623 62.6667 55.9189 62.6667 57.3334V62.6667H28V57.3334C28 55.9189 28.5619 54.5623 29.5621 53.5621C30.5623 52.5619 31.9188 52 33.3333 52H46.6667" stroke="#D1BE99" stroke-width="2" stroke-linejoin="round"/>
<path d="M42.6666 46.6667H47.9999M42.6666 46.6667C41.2521 46.6667 39.8955 47.2286 38.8954 48.2288C37.8952 49.2289 37.3333 50.5855 37.3333 52V54.6667C37.3333 55.3739 37.6142 56.0522 38.1143 56.5523C38.6144 57.0524 39.2927 57.3333 39.9999 57.3333H50.6666C51.3738 57.3333 52.0521 57.0524 52.5522 56.5523C53.0523 56.0522 53.3333 55.3739 53.3333 54.6667V52C53.3333 50.5855 52.7713 49.2289 51.7712 48.2288C50.771 47.2286 49.4144 46.6667 47.9999 46.6667M42.6666 46.6667V38.6667M47.9999 46.6667V38.6667" stroke="#D1BE99" stroke-width="2" stroke-linejoin="round"/>
<path d="M45.3332 40C49.0151 40 51.9998 37.0153 51.9998 33.3334C51.9998 29.6515 49.0151 26.6667 45.3332 26.6667C41.6513 26.6667 38.6665 29.6515 38.6665 33.3334C38.6665 37.0153 41.6513 40 45.3332 40Z" stroke="#D1BE99" stroke-width="2" stroke-linejoin="round"/>
<path d="M47.9999 33.3334C47.9999 32.6261 47.719 31.9478 47.2189 31.4477C46.7188 30.9476 46.0405 30.6667 45.3332 30.6667M13.3333 48H5.33325M1.33325 2.66668V1.33334H62.6666V2.66668M61.1039 22.4373C61.85 21.6915 62.3581 20.7412 62.564 19.7066C62.7699 18.672 62.6644 17.5996 62.2608 16.6249C61.8571 15.6503 61.1736 14.8173 60.2965 14.2311C59.4194 13.645 58.3882 13.3322 57.3332 13.3322M57.3332 13.3322C56.2783 13.3322 55.2471 13.645 54.37 14.2311C53.4929 14.8173 52.8094 15.6503 52.4057 16.6249C52.0021 17.5996 51.8966 18.672 52.1025 19.7066C52.3084 20.7412 52.8165 21.6915 53.5626 22.4373M57.3332 13.3322V1.33334" stroke="#D1BE99" stroke-width="2" stroke-linejoin="round"/>
<path d="M55.9999 1.33334V4.00001H58.6666V1.33334M43.7706 22.4373C44.5166 21.6915 45.0247 20.7412 45.2307 19.7066C45.4366 18.672 45.331 17.5996 44.9274 16.6249C44.5238 15.6503 43.8402 14.8173 42.9631 14.2311C42.086 13.645 41.0548 13.3322 39.9999 13.3322M39.9999 13.3322C38.945 13.3322 37.9138 13.645 37.0367 14.2311C36.1596 14.8173 35.476 15.6503 35.0724 16.6249C34.6688 17.5996 34.5633 18.672 34.7692 19.7066C34.9751 20.7412 35.4832 21.6915 36.2292 22.4373M39.9999 13.3322V1.33334M38.6666 1.33334V4.00001H41.3332V1.33334M5.33325 20H29.3332M14.6666 10.6667V16M19.9999 10.6667V16M9.33325 20H25.3332V25.3333C25.3332 27.4551 24.4904 29.4899 22.9901 30.9902C21.4898 32.4905 19.455 33.3333 17.3333 33.3333C15.2115 33.3333 13.1767 32.4905 11.6764 30.9902C10.1761 29.4899 9.33325 27.4551 9.33325 25.3333V20ZM19.9999 11.0587V9.33334H14.6666V11.0587C12.7409 11.6328 11.0519 12.8131 9.85081 14.424C8.64969 16.035 8.00055 17.9906 7.99992 20H26.6666C26.6659 17.9906 26.0168 16.035 24.8157 14.424C23.6146 12.8131 21.9256 11.6328 19.9999 11.0587Z" stroke="#D1BE99" stroke-width="2" stroke-linejoin="round"/>
<path d="M13.3333 32V33.3333C13.3333 34.3942 13.7547 35.4116 14.5048 36.1618C15.255 36.9119 16.2724 37.3333 17.3333 37.3333C18.3941 37.3333 19.4115 36.9119 20.1617 36.1618C20.9118 35.4116 21.3333 34.3942 21.3333 33.3333V32" stroke="#D1BE99" stroke-width="2" stroke-linejoin="round"/>
<path d="M33.3333 62.6667H1.33325V45.3334C1.33325 42.5044 2.45706 39.7913 4.45745 37.7909C6.45783 35.7905 9.17094 34.6667 11.9999 34.6667H13.3333M21.3333 34.6667H22.6666C25.4956 34.6667 28.2087 35.7905 30.2091 37.7909C32.2094 39.7913 33.3333 42.5044 33.3333 45.3334V52" stroke="#D1BE99" stroke-width="2" stroke-linejoin="round"/>
<path d="M17.3333 37.3334L20 41.3334L26.6667 34.6667M17.3333 37.3334L14.6667 41.3334L8 34.6667M17.3333 37.3334V62.6667" stroke="#D1BE99" stroke-width="2" stroke-linejoin="round"/>
</g>
<defs>
<clipPath id="clip0_481_164">
<rect width="64" height="64" fill="white"/>
</clipPath>
</defs>
</svg>
