<svg width="64" height="32" viewBox="0 0 64 32" fill="none" xmlns="http://www.w3.org/2000/svg">
<path fill-rule="evenodd" clip-rule="evenodd" d="M7.66567 30.0559C5.20817 28.7411 3.32596 26.8538 1.98822 24.486L1.98345 24.4775C0.627787 22.0479 0 19.1995 0 16C0 12.8035 0.626622 9.9652 1.98583 7.5573C3.32101 5.16614 5.20224 3.26211 7.66567 1.94407L7.67896 1.93696C10.1403 0.639685 12.8922 0 15.8738 0C18.8804 0 21.6397 0.637365 24.082 1.94407C26.5423 3.26046 28.4219 5.16139 29.7568 7.54834C31.151 9.95923 31.794 12.8011 31.794 16C31.794 19.2037 31.1491 22.057 29.7569 24.4904C28.4193 26.8562 26.5379 28.7419 24.082 30.0559C21.6397 31.3626 18.8804 32 15.8738 32C12.8922 32 10.1404 31.3603 7.67899 30.063L7.66567 30.0559ZM27.6631 23.6488C28.8699 21.5415 29.4733 18.9919 29.4733 16C29.4733 13.0081 28.8699 10.4715 27.6631 8.39024C26.4873 6.28293 24.8783 4.68293 22.836 3.59024C20.7938 2.49756 18.473 1.95122 15.8738 1.95122C13.3055 1.95122 10.9848 2.49756 8.91161 3.59024C6.86937 4.68293 5.26033 6.28293 4.08449 8.39024C2.90865 10.4715 2.32073 13.0081 2.32073 16C2.32073 18.9919 2.90865 21.5415 4.08449 23.6488C5.26033 25.7301 6.86937 27.3171 8.91161 28.4098C10.9848 29.5024 13.3055 30.0488 15.8738 30.0488C18.473 30.0488 20.7938 29.5024 22.836 28.4098C24.8783 27.3171 26.4873 25.7301 27.6631 23.6488ZM19.8191 7.41463C20.933 8.09106 21.7994 9.14472 22.4183 10.5756C23.0681 11.9805 23.393 13.7886 23.393 16C23.393 18.1854 23.0681 19.9935 22.4183 21.4244C21.7994 22.8553 20.933 23.9219 19.8191 24.6244C18.7051 25.3008 17.39 25.639 15.8738 25.639C14.4195 25.639 13.1199 25.3008 11.975 24.6244C10.861 23.9219 9.97915 22.8553 9.32934 21.4244C8.71048 19.9935 8.40105 18.1854 8.40105 16C8.40105 13.7886 8.71048 11.9805 9.32934 10.5756C9.97915 9.14472 10.861 8.09106 11.975 7.41463C13.1199 6.7122 14.4195 6.36098 15.8738 6.36098C17.39 6.36098 18.7051 6.7122 19.8191 7.41463ZM11.5016 11.2623C11.0147 12.3725 10.7218 13.9258 10.7218 16C10.7218 18.0399 11.0122 19.5984 11.5041 20.7431C12.0361 21.9087 12.6811 22.6221 13.3394 23.0456C14.07 23.47 14.8906 23.6878 15.8738 23.6878C16.946 23.6878 17.7687 23.458 18.4431 23.053C19.0969 22.6356 19.731 21.9281 20.2373 20.7576L20.2436 20.7429L20.2502 20.7284C20.7659 19.5928 21.0723 18.0408 21.0723 16C21.0723 13.9277 20.7642 12.3829 20.2553 11.2828L20.246 11.2627L20.2373 11.2424C19.7275 10.0638 19.0944 9.38147 18.4603 8.99645L18.4433 8.98615L18.4266 8.97561C17.7506 8.54932 16.9351 8.3122 15.8738 8.3122C14.8975 8.3122 14.0797 8.53882 13.343 8.99081L13.3338 8.99646C12.6899 9.38741 12.0408 10.0789 11.5016 11.2623ZM35.4086 31.6098V25.4255L49.0405 14.5413C50.0638 13.7301 50.7344 13.0858 51.1271 12.6004C51.5533 12.0734 51.7407 11.694 51.8096 11.4505L51.8184 11.4196L51.8283 11.389C51.9702 10.9517 52.025 10.5928 52.025 10.3024C52.025 9.5551 51.7562 9.19792 51.3778 8.9473L51.361 8.93617L51.3445 8.92479C50.9012 8.61987 50.0143 8.3122 48.3118 8.3122C47.0157 8.3122 45.8956 8.50289 44.9189 8.85347C44.0142 9.18891 43.2107 9.70424 42.5025 10.4386L41.0778 11.9159L33.2493 6.85279L34.6155 5.31187C36.1474 3.58403 38.1832 2.27677 40.6491 1.37422C43.1437 0.44648 45.8804 0 48.8224 0C51.4148 0 53.7852 0.356994 55.8725 1.13659C57.9778 1.88553 59.6976 3.00346 60.9084 4.52488C62.1624 6.06104 62.7468 7.8471 62.7468 9.79512C62.7468 10.8539 62.5798 11.9062 62.2518 12.9481L62.2496 12.9551L62.2473 12.9622C61.885 14.079 61.2281 15.1842 60.3532 16.2729C59.4546 17.391 58.2001 18.5774 56.6477 19.8283L56.6402 19.8343L52.1567 23.4146H64V31.6098H35.4086ZM46.3434 25.3659L55.042 18.4195C56.5272 17.2228 57.6567 16.1431 58.4302 15.1805C59.2038 14.2179 59.7299 13.3073 60.0083 12.4488C60.2868 11.5642 60.4261 10.6797 60.4261 9.79512C60.4261 8.18211 59.9465 6.79024 58.9872 5.61951C58.0589 4.44878 56.7129 3.55122 54.9491 2.92683C53.2163 2.27642 51.1741 1.95122 48.8224 1.95122C46.1613 1.95122 43.7477 2.35447 41.5817 3.16098C40.2306 3.65489 39.0529 4.27905 38.0488 5.03344C37.554 5.40512 37.1014 5.80842 36.6908 6.24334C36.6179 6.32058 36.5464 6.39881 36.4761 6.47805L40.6998 9.20975C41.6281 8.24715 42.7266 7.53171 43.9953 7.06341C45.2949 6.59512 46.7337 6.36098 48.3118 6.36098C50.2922 6.36098 51.7929 6.7122 52.8141 7.41463C53.8352 8.09106 54.3458 9.05366 54.3458 10.3024C54.3458 10.7967 54.2529 11.3301 54.0673 11.9024C53.9126 12.4488 53.5722 13.0472 53.0461 13.6976C52.5201 14.348 51.7156 15.1024 50.6326 15.961L37.7293 26.2634V29.6585H61.6793V25.3659H46.3434Z" fill="#D1BE99"/>
</svg>
