<svg width="64" height="64" viewBox="0 0 64 64" fill="none" xmlns="http://www.w3.org/2000/svg">
<g clip-path="url(#clip0_481_164)">
<path fill-rule="evenodd" clip-rule="evenodd" d="M33.3333 53C32.1841 53 31.0819 53.4566 30.2692 54.2692C29.4565 55.0819 29 56.1841 29 57.3334V61.6667H61.6667V57.3334C61.6667 56.1841 61.2101 55.0819 60.3975 54.2692C59.5848 53.4566 58.4826 53 57.3333 53H49.3333V51H57.3333C59.013 51 60.624 51.6673 61.8117 52.855C62.9994 54.0428 63.6667 55.6537 63.6667 57.3334V62.6667C63.6667 63.219 63.219 63.6667 62.6667 63.6667H28C27.4477 63.6667 27 63.219 27 62.6667V57.3334C27 55.6537 27.6673 54.0428 28.855 52.855C30.0427 51.6673 31.6536 51 33.3333 51H46.6667V53H33.3333Z" fill="#D1BE99"/>
<path fill-rule="evenodd" clip-rule="evenodd" d="M41.6666 45.7461V38.6667H43.6666V45.6667H46.9999V38.6667H48.9999V45.7461C50.3091 45.9554 51.5289 46.5723 52.4783 47.5216C53.666 48.7094 54.3333 50.3203 54.3333 52V54.6667C54.3333 55.6391 53.9469 56.5717 53.2593 57.2594C52.5717 57.947 51.639 58.3333 50.6666 58.3333H39.9999C39.0275 58.3333 38.0948 57.947 37.4072 57.2594C36.7196 56.5717 36.3333 55.6391 36.3333 54.6667V52C36.3333 50.3203 37.0005 48.7094 38.1882 47.5216C39.1376 46.5723 40.3574 45.9554 41.6666 45.7461ZM42.6666 47.6667C41.5173 47.6667 40.4151 48.1232 39.6025 48.9359C38.7898 49.7485 38.3333 50.8507 38.3333 52V54.6667C38.3333 55.1087 38.5088 55.5326 38.8214 55.8452C39.134 56.1577 39.5579 56.3333 39.9999 56.3333H50.6666C51.1086 56.3333 51.5325 56.1577 51.8451 55.8452C52.1577 55.5326 52.3333 55.1087 52.3333 54.6667V52C52.3333 50.8507 51.8767 49.7485 51.064 48.9359C50.2514 48.1232 49.1492 47.6667 47.9999 47.6667H42.6666Z" fill="#D1BE99"/>
<path fill-rule="evenodd" clip-rule="evenodd" d="M45.3332 27.6667C42.2036 27.6667 39.6665 30.2037 39.6665 33.3334C39.6665 36.463 42.2036 39 45.3332 39C48.4628 39 50.9998 36.463 50.9998 33.3334C50.9998 30.2037 48.4628 27.6667 45.3332 27.6667ZM37.6665 33.3334C37.6665 29.0992 41.099 25.6667 45.3332 25.6667C49.5674 25.6667 52.9998 29.0992 52.9998 33.3334C52.9998 37.5675 49.5674 41 45.3332 41C41.099 41 37.6665 37.5675 37.6665 33.3334Z" fill="#D1BE99"/>
<path fill-rule="evenodd" clip-rule="evenodd" d="M0.333252 1.33334C0.333252 0.781059 0.780967 0.333344 1.33325 0.333344H62.6666C63.2189 0.333344 63.6666 0.781059 63.6666 1.33334V2.66668H61.6666V2.33334H58.3332V12.4116C59.2304 12.5551 60.0902 12.8906 60.8521 13.3997C61.8936 14.0957 62.7054 15.0849 63.1847 16.2423C63.664 17.3997 63.7893 18.6732 63.5448 19.9018C63.3002 21.1304 62.6968 22.2589 61.8109 23.1446L60.3969 21.7301C61.0031 21.1242 61.4159 20.352 61.5832 19.5114C61.7505 18.6708 61.6648 17.7994 61.3368 17.0075C61.0089 16.2157 60.4535 15.5388 59.7409 15.0626C59.0282 14.5864 58.1904 14.3322 57.3332 14.3322C56.4761 14.3322 55.6383 14.5864 54.9256 15.0626C54.213 15.5388 53.6576 16.2157 53.3296 17.0075C53.0017 17.7994 52.916 18.6708 53.0833 19.5114C53.2506 20.352 53.6634 21.1242 54.2696 21.7301L52.8556 23.1446C51.9697 22.2589 51.3663 21.1304 51.1217 19.9018C50.8772 18.6732 51.0025 17.3997 51.4818 16.2423C51.9611 15.0849 52.7729 14.0957 53.8144 13.3997C54.5763 12.8906 55.4361 12.5551 56.3332 12.4116V2.33334H2.33325V2.66668H0.333252V1.33334ZM45.3332 29.6667C46.3057 29.6667 47.2383 30.053 47.926 30.7406C48.6136 31.4283 48.9999 32.3609 48.9999 33.3334H46.9999C46.9999 32.8913 46.8243 32.4674 46.5118 32.1548C46.1992 31.8423 45.7753 31.6667 45.3332 31.6667V29.6667ZM5.33325 47H13.3333V49H5.33325V47Z" fill="#D1BE99"/>
<path fill-rule="evenodd" clip-rule="evenodd" d="M37.6666 4.00001V1.33334H42.3332V4.00001C42.3332 4.55229 41.8855 5.00001 41.3332 5.00001H40.9999V12.4116C41.897 12.5551 42.7568 12.8906 43.5187 13.3997C44.5603 14.0957 45.372 15.0849 45.8513 16.2423C46.3306 17.3997 46.4559 18.6732 46.2114 19.9018C45.9669 21.1304 45.3635 22.2589 44.4776 23.1446L43.0636 21.7301C43.6697 21.1242 44.0826 20.352 44.2499 19.5114C44.4172 18.6708 44.3315 17.7994 44.0035 17.0075C43.6756 16.2157 43.1202 15.5388 42.4075 15.0626C41.6949 14.5864 40.857 14.3322 39.9999 14.3322C39.1428 14.3322 38.3049 14.5864 37.5923 15.0626C36.8797 15.5388 36.3243 16.2157 35.9963 17.0075C35.6684 17.7994 35.5826 18.6708 35.7499 19.5114C35.9172 20.352 36.3301 21.1242 36.9362 21.7301L35.5222 23.1446C34.6363 22.2589 34.0329 21.1304 33.7884 19.9018C33.5439 18.6732 33.6692 17.3997 34.1485 16.2423C34.6278 15.0849 35.4396 14.0957 36.4811 13.3997C37.243 12.8906 38.1028 12.5551 38.9999 12.4116V5.00001H38.6666C38.1143 5.00001 37.6666 4.55229 37.6666 4.00001ZM54.9999 4.00001V1.33334H56.9999V3.00001H57.6666V1.33334H59.6666V4.00001C59.6666 4.55229 59.2189 5.00001 58.6666 5.00001H55.9999C55.4476 5.00001 54.9999 4.55229 54.9999 4.00001ZM13.6666 9.33334C13.6666 8.78106 14.1143 8.33334 14.6666 8.33334H19.9999C20.5522 8.33334 20.9999 8.78106 20.9999 9.33334V10.342C22.8345 11.0383 24.4383 12.2449 25.6174 13.8263C26.747 15.3413 27.4356 17.1317 27.6178 19H29.3332V21H26.3332V25.3333C26.3332 27.7203 25.385 30.0095 23.6972 31.6973C22.0094 33.3851 19.7202 34.3333 17.3333 34.3333C14.9463 34.3333 12.6571 33.3851 10.9693 31.6973C9.28146 30.0095 8.33325 27.7203 8.33325 25.3333V21H5.33325V19H7.04869C7.23088 17.1317 7.91952 15.3413 9.04912 13.8263C10.2282 12.2449 11.832 11.0383 13.6666 10.342V9.33334ZM15.6666 16H13.6666V12.5196C12.4832 13.0995 11.448 13.9548 10.6525 15.0218C9.78073 16.191 9.23462 17.5636 9.06048 19H25.606C25.4319 17.5636 24.8858 16.191 24.014 15.0218C23.2185 13.9548 22.1833 13.0995 20.9999 12.5196V16H18.9999V10.3333H15.6666V16ZM10.3333 21V25.3333C10.3333 27.1899 11.0707 28.9703 12.3835 30.2831C13.6963 31.5958 15.4767 32.3333 17.3333 32.3333C19.1898 32.3333 20.9702 31.5958 22.283 30.2831C23.5958 28.9703 24.3332 27.1899 24.3332 25.3333V21H10.3333Z" fill="#D1BE99"/>
<path fill-rule="evenodd" clip-rule="evenodd" d="M12.3333 33.3333V32H14.3333V33.3333C14.3333 34.129 14.6493 34.892 15.2119 35.4547C15.7745 36.0173 16.5376 36.3333 17.3333 36.3333C18.1289 36.3333 18.892 36.0173 19.4546 35.4547C20.0172 34.892 20.3333 34.129 20.3333 33.3333V32H22.3333V33.3333C22.3333 34.6594 21.8065 35.9312 20.8688 36.8689C19.9311 37.8066 18.6593 38.3333 17.3333 38.3333C16.0072 38.3333 14.7354 37.8066 13.7977 36.8689C12.86 35.9312 12.3333 34.6594 12.3333 33.3333Z" fill="#D1BE99"/>
<path fill-rule="evenodd" clip-rule="evenodd" d="M11.9999 35.6667C9.43616 35.6667 6.97741 36.6851 5.16455 38.498C3.3517 40.3108 2.33325 42.7696 2.33325 45.3334V61.6667H33.3333V63.6667H1.33325C0.780967 63.6667 0.333252 63.219 0.333252 62.6667V45.3334C0.333252 42.2392 1.56242 39.2717 3.75034 37.0838C5.93826 34.8958 8.90573 33.6667 11.9999 33.6667H13.3333V35.6667H11.9999ZM22.6666 35.6667H21.3333V33.6667H22.6666C25.7608 33.6667 28.7282 34.8958 30.9162 37.0838C33.1041 39.2717 34.3333 42.2392 34.3333 45.3334V52H32.3333V45.3334C32.3333 42.7696 31.3148 40.3108 29.502 38.498C27.6891 36.6851 25.2303 35.6667 22.6666 35.6667Z" fill="#D1BE99"/>
<path fill-rule="evenodd" clip-rule="evenodd" d="M13.9594 42.0404L7.29272 35.3738L8.70694 33.9596L14.5111 39.7637L16.5011 36.7786C16.6866 36.5004 16.9988 36.3333 17.3332 36.3333C17.6675 36.3333 17.9797 36.5004 18.1652 36.7786L20.1553 39.7637L25.9594 33.9596L27.3736 35.3738L20.7069 42.0404C20.4951 42.2523 20.1994 42.358 19.9013 42.3285C19.6032 42.2989 19.334 42.1373 19.1678 41.888L18.3332 40.6361V62.6667H16.3332V40.6361L15.4985 41.888C15.3324 42.1373 15.0632 42.2989 14.765 42.3285C14.4669 42.358 14.1712 42.2523 13.9594 42.0404Z" fill="#D1BE99"/>
</g>
<defs>
<clipPath id="clip0_481_164">
<rect width="64" height="64" fill="white"/>
</clipPath>
</defs>
</svg>
