<svg width="64" height="64" viewBox="0 0 64 64" fill="none" xmlns="http://www.w3.org/2000/svg">
<path d="M32 18C32.5933 18 33.1734 17.8241 33.6667 17.4944C34.1601 17.1648 34.5446 16.6962 34.7716 16.1481C34.9987 15.5999 35.0581 14.9967 34.9424 14.4147C34.8266 13.8328 34.5409 13.2982 34.1213 12.8787C33.7018 12.4591 33.1672 12.1734 32.5853 12.0576C32.0033 11.9419 31.4001 12.0013 30.8519 12.2284C30.3038 12.4554 29.8352 12.8399 29.5056 13.3333C29.1759 13.8266 29 14.4067 29 15C29 15.7957 29.3161 16.5587 29.8787 17.1213C30.4413 17.6839 31.2044 18 32 18ZM32 14C32.1978 14 32.3911 14.0587 32.5556 14.1685C32.72 14.2784 32.8482 14.4346 32.9239 14.6173C32.9996 14.8 33.0194 15.0011 32.9808 15.1951C32.9422 15.3891 32.847 15.5673 32.7071 15.7071C32.5673 15.847 32.3891 15.9422 32.1951 15.9808C32.0011 16.0194 31.8 15.9996 31.6173 15.9239C31.4346 15.8482 31.2784 15.72 31.1685 15.5556C31.0586 15.3911 31 15.1978 31 15C31 14.7348 31.1054 14.4804 31.2929 14.2929C31.4804 14.1054 31.7348 14 32 14Z" fill="#D1BE99"/>
<path d="M58.5 18H43C42.9112 18.0001 42.8227 18.0118 42.737 18.035L42 18.235V18C42 15.3478 40.9464 12.8043 39.0711 10.9289C37.1957 9.05357 34.6522 8 32 8C29.3478 8 26.8043 9.05357 24.9289 10.9289C23.0536 12.8043 22 15.3478 22 18V49C22 51.6522 23.0536 54.1957 24.9289 56.0711C26.8043 57.9464 29.3478 59 32 59C34.6522 59 37.1957 57.9464 39.0711 56.0711C40.9464 54.1957 42 51.6522 42 49V27.31L43.134 27H58.5C59.6935 27 60.8381 26.5259 61.682 25.682C62.5259 24.8381 63 23.6935 63 22.5C63 21.3065 62.5259 20.1619 61.682 19.318C60.8381 18.4741 59.6935 18 58.5 18ZM40 49C40 51.1217 39.1571 53.1566 37.6569 54.6569C36.1566 56.1571 34.1217 57 32 57C29.8783 57 27.8434 56.1571 26.3431 54.6569C24.8429 53.1566 24 51.1217 24 49V18C24 15.8783 24.8429 13.8434 26.3431 12.3431C27.8434 10.8429 29.8783 10 32 10C34.1217 10 36.1566 10.8429 37.6569 12.3431C39.1571 13.8434 40 15.8783 40 18V18.783L34.108 20.39C33.0166 19.9784 31.829 19.8938 30.6903 20.1466C29.5516 20.3994 28.5113 20.9786 27.6966 21.8134C26.882 22.6481 26.3283 23.7023 26.1033 24.8468C25.8784 25.9913 25.9919 27.1765 26.43 28.2575C26.868 29.3385 27.6117 30.2684 28.57 30.9334C29.5283 31.5984 30.6596 31.9696 31.8256 32.0017C32.9916 32.0338 34.1416 31.7254 35.135 31.1141C36.1284 30.5028 36.9221 29.6153 37.419 28.56L40 27.86V49ZM36 26C36 26.7911 35.7654 27.5645 35.3259 28.2223C34.8864 28.8801 34.2616 29.3928 33.5307 29.6955C32.7998 29.9983 31.9956 30.0775 31.2196 29.9231C30.4437 29.7688 29.731 29.3878 29.1716 28.8284C28.6122 28.269 28.2312 27.5563 28.0769 26.7804C27.9225 26.0044 28.0017 25.2002 28.3045 24.4693C28.6072 23.7384 29.1199 23.1136 29.7777 22.6741C30.4355 22.2346 31.2089 22 32 22C33.0609 22 34.0783 22.4214 34.8284 23.1716C35.5786 23.9217 36 24.9391 36 26ZM58.5 25H43C42.9112 25.0001 42.8227 25.0118 42.737 25.035L37.983 26.335C37.989 26.224 38 26.114 38 26.002C37.9996 24.4569 37.4007 22.972 36.329 21.859L43.134 20H58.5C59.163 20 59.7989 20.2634 60.2678 20.7322C60.7366 21.2011 61 21.837 61 22.5C61 23.163 60.7366 23.7989 60.2678 24.2678C59.7989 24.7366 59.163 25 58.5 25Z" fill="#D1BE99"/>
<path d="M31.9999 34C31.2316 33.9962 30.4787 34.2148 29.8319 34.6294C29.1852 35.0441 28.6722 35.6371 28.3551 36.3368C28.0379 37.0365 27.93 37.8131 28.0444 38.5728C28.1588 39.3325 28.4907 40.0428 28.9999 40.618V44C28.9999 44.7957 29.316 45.5588 29.8786 46.1214C30.4412 46.684 31.2042 47 31.9999 47C32.7955 47 33.5586 46.684 34.1212 46.1214C34.6838 45.5588 34.9999 44.7957 34.9999 44V40.618C35.5091 40.0428 35.841 39.3325 35.9554 38.5728C36.0698 37.8131 35.9619 37.0365 35.6447 36.3368C35.3275 35.6371 34.8146 35.0441 34.1678 34.6294C33.5211 34.2148 32.7681 33.9962 31.9999 34ZM31.9999 36C32.3954 36 32.7821 36.1173 33.111 36.3371C33.4399 36.5569 33.6963 36.8692 33.8476 37.2347C33.999 37.6001 34.0386 38.0023 33.9615 38.3902C33.8843 38.7782 33.6938 39.1346 33.4141 39.4143C33.1344 39.694 32.778 39.8844 32.3901 39.9616C32.0021 40.0388 31.6 39.9992 31.2345 39.8478C30.8691 39.6964 30.5567 39.4401 30.3369 39.1112C30.1172 38.7823 29.9999 38.3956 29.9999 38C29.9999 37.4696 30.2106 36.9609 30.5857 36.5858C30.9607 36.2108 31.4695 36 31.9999 36ZM31.9999 45C31.7347 45 31.4803 44.8947 31.2928 44.7072C31.1052 44.5196 30.9999 44.2653 30.9999 44V41.8581C31.6531 42.0474 32.3467 42.0474 32.9999 41.8581V44C32.9999 44.2653 32.8945 44.5196 32.707 44.7072C32.5195 44.8947 32.2651 45 31.9999 45ZM31.9999 49C31.4065 49 30.8265 49.176 30.3332 49.5056C29.8398 49.8353 29.4553 50.3038 29.2282 50.852C29.0012 51.4002 28.9418 52.0034 29.0575 52.5853C29.1733 53.1673 29.459 53.7018 29.8786 54.1214C30.2981 54.5409 30.8327 54.8267 31.4146 54.9424C31.9966 55.0582 32.5998 54.9987 33.1479 54.7717C33.6961 54.5446 34.1646 54.1601 34.4943 53.6668C34.8239 53.1734 34.9999 52.5934 34.9999 52C34.9999 51.2044 34.6838 50.4413 34.1212 49.8787C33.5586 49.3161 32.7955 49 31.9999 49ZM31.9999 53C31.8021 53 31.6088 52.9414 31.4443 52.8315C31.2799 52.7216 31.1517 52.5655 31.076 52.3827C31.0003 52.2 30.9805 51.9989 31.0191 51.805C31.0577 51.611 31.1529 51.4328 31.2928 51.2929C31.4326 51.1531 31.6108 51.0578 31.8048 51.0193C31.9988 50.9807 32.1998 51.0005 32.3826 51.0762C32.5653 51.1519 32.7215 51.28 32.8314 51.4445C32.9412 51.6089 32.9999 51.8023 32.9999 52C32.9999 52.2653 32.8945 52.5196 32.707 52.7072C32.5195 52.8947 32.2651 53 31.9999 53Z" fill="#D1BE99"/>
<path d="M19 1H17V63H19V1Z" fill="#D1BE99"/>
<path d="M2 51H10V63H12V1H10V13H2C1.73478 13 1.48043 13.1054 1.29289 13.2929C1.10536 13.4804 1 13.7348 1 14V17C1.00006 17.2652 1.10545 17.5195 1.293 17.707L2.586 19C2.71792 19.1309 2.82246 19.2867 2.89354 19.4584C2.96462 19.6301 3.00081 19.8142 3 20C2.99888 20.3748 2.85014 20.7341 2.586 21L1.293 22.293C1.10545 22.4805 1.00006 22.7348 1 23V26C1 26.2652 1.10536 26.5196 1.29289 26.7071C1.48043 26.8946 1.73478 27 2 27H10V37H2C1.73478 37 1.48043 37.1054 1.29289 37.2929C1.10536 37.4804 1 37.7348 1 38V42C1 42.2652 1.10536 42.5196 1.29289 42.7071C1.48043 42.8946 1.73478 43 2 43H10V45H2C1.73478 45 1.48043 45.1054 1.29289 45.2929C1.10536 45.4804 1 45.7348 1 46V50C1 50.2652 1.10536 50.5196 1.29289 50.7071C1.48043 50.8946 1.73478 51 2 51ZM3 25V23.414L4 22.414C4.63804 21.7723 4.99735 20.9049 5 20C5.00141 19.5515 4.91374 19.1071 4.74208 18.6927C4.57042 18.2783 4.31818 17.9021 4 17.586L3 16.586V15H10V25H3ZM3 41V39H10V41H3ZM3 47H10V49H3V47Z" fill="#D1BE99"/>
</svg>
