<svg width="48" height="48" viewBox="0 0 48 48" fill="none" xmlns="http://www.w3.org/2000/svg">
<path d="M24 6C20.4399 6 16.9598 7.05568 13.9997 9.03355C11.0397 11.0114 8.73255 13.8226 7.37018 17.1117C6.0078 20.4008 5.65134 24.02 6.34587 27.5116C7.04041 31.0033 8.75474 34.2106 11.2721 36.7279C13.7894 39.2453 16.9967 40.9596 20.4884 41.6541C23.98 42.3487 27.5992 41.9922 30.8883 40.6298C34.1774 39.2675 36.9886 36.9603 38.9665 34.0003C40.9443 31.0402 42 27.5601 42 24C42 19.2261 40.1036 14.6477 36.7279 11.2721C33.3523 7.89642 28.7739 6 24 6ZM24 39C21.0333 39 18.1332 38.1203 15.6665 36.472C13.1997 34.8238 11.2771 32.4811 10.1418 29.7402C9.0065 26.9994 8.70945 23.9834 9.28823 21.0736C9.86701 18.1639 11.2956 15.4912 13.3934 13.3934C15.4912 11.2956 18.1639 9.867 21.0737 9.28822C23.9834 8.70944 26.9994 9.00649 29.7403 10.1418C32.4812 11.2771 34.8238 13.1997 36.4721 15.6664C38.1203 18.1332 39 21.0333 39 24C39 27.9782 37.4197 31.7936 34.6066 34.6066C31.7936 37.4196 27.9783 39 24 39Z" fill="#21BF73"/>
<path d="M30.36 18.2551L21.885 26.7451C21.7455 26.8857 21.5796 26.9973 21.3969 27.0734C21.2141 27.1496 21.018 27.1888 20.82 27.1888C20.622 27.1888 20.4259 27.1496 20.2431 27.0734C20.0603 26.9973 19.8944 26.8857 19.755 26.7451L17.64 24.6151C17.5001 24.4752 17.3341 24.3643 17.1514 24.2886C16.9686 24.2129 16.7728 24.174 16.575 24.174C16.3772 24.174 16.1813 24.2129 15.9986 24.2886C15.8159 24.3643 15.6498 24.4752 15.51 24.6151C15.3701 24.755 15.2592 24.921 15.1835 25.1037C15.1078 25.2865 15.0688 25.4823 15.0688 25.6801C15.0688 25.8779 15.1078 26.0737 15.1835 26.2565C15.2592 26.4392 15.3701 26.6052 15.51 26.7451L17.64 28.8601C18.4837 29.7028 19.6275 30.1761 20.82 30.1761C22.0125 30.1761 23.1562 29.7028 24 28.8601L32.49 20.3851C32.6298 20.2452 32.7408 20.0792 32.8165 19.8965C32.8922 19.7137 32.9311 19.5179 32.9311 19.3201C32.9311 19.1223 32.8922 18.9265 32.8165 18.7437C32.7408 18.561 32.6298 18.395 32.49 18.2551C32.3501 18.1152 32.1841 18.0043 32.0014 17.9286C31.8186 17.8529 31.6228 17.814 31.425 17.814C31.2272 17.814 31.0313 17.8529 30.8486 17.9286C30.6659 18.0043 30.4998 18.1152 30.36 18.2551Z" fill="#21BF73"/>
</svg>
