<svg width="64" height="32" viewBox="0 0 64 32" fill="none" xmlns="http://www.w3.org/2000/svg">
<path fill-rule="evenodd" clip-rule="evenodd" d="M7.77157 30.0559C5.28012 28.7411 3.3719 26.8538 2.01569 24.486L2.01085 24.4775C0.63646 22.0479 0 19.1995 0 16C0 12.8035 0.635279 9.9652 2.01326 7.5573C3.36688 5.16614 5.27411 3.26211 7.77157 1.94407L7.78504 1.93696C10.2804 0.639685 13.0703 0 16.0931 0C19.1413 0 21.9386 0.637365 24.4146 1.94407C26.909 3.26046 28.8146 5.16139 30.1679 7.54834C31.5814 9.95923 32.2333 12.8011 32.2333 16C32.2333 19.2037 31.5794 22.057 30.168 24.4904C28.8119 26.8562 26.9045 28.7419 24.4146 30.0559C21.9386 31.3626 19.1413 32 16.0931 32C13.0703 32 10.2804 31.3603 7.78507 30.063L7.77157 30.0559ZM28.0453 23.6488C29.2687 21.5415 29.8805 18.9919 29.8805 16C29.8805 13.0081 29.2687 10.4715 28.0453 8.39024C26.8532 6.28293 25.2219 4.68293 23.1515 3.59024C21.081 2.49756 18.7282 1.95122 16.0931 1.95122C13.4893 1.95122 11.1366 2.49756 9.03472 3.59024C6.96427 4.68293 5.333 6.28293 4.14091 8.39024C2.94883 10.4715 2.35279 13.0081 2.35279 16C2.35279 18.9919 2.94883 21.5415 4.14091 23.6488C5.333 25.7301 6.96427 27.3171 9.03472 28.4098C11.1366 29.5024 13.4893 30.0488 16.0931 30.0488C18.7282 30.0488 21.081 29.5024 23.1515 28.4098C25.2219 27.3171 26.8532 25.7301 28.0453 23.6488ZM20.0928 7.41463C21.2222 8.09106 22.1006 9.14472 22.728 10.5756C23.3868 11.9805 23.7162 13.7886 23.7162 16C23.7162 18.1854 23.3868 19.9935 22.728 21.4244C22.1006 22.8553 21.2222 23.9219 20.0928 24.6244C18.9635 25.3008 17.6303 25.639 16.0931 25.639C14.6187 25.639 13.3011 25.3008 12.1404 24.6244C11.0111 23.9219 10.117 22.8553 9.45823 21.4244C8.83081 19.9935 8.51711 18.1854 8.51711 16C8.51711 13.7886 8.83081 11.9805 9.45823 10.5756C10.117 9.14472 11.0111 8.09106 12.1404 7.41463C13.3011 6.71219 14.6187 6.36098 16.0931 6.36098C17.6303 6.36098 18.9635 6.71219 20.0928 7.41463ZM11.6605 11.2623C11.1669 12.3725 10.8699 13.9258 10.8699 16C10.8699 18.0399 11.1644 19.5984 11.663 20.7431C12.2024 21.9087 12.8563 22.6221 13.5237 23.0456C14.2644 23.4701 15.0964 23.6878 16.0931 23.6878C17.1801 23.6878 18.0142 23.458 18.6979 23.053C19.3607 22.6356 20.0036 21.9281 20.5168 20.7576L20.5233 20.7429L20.53 20.7284C21.0528 19.5928 21.3634 18.0408 21.3634 16C21.3634 13.9277 21.051 12.3829 20.5352 11.2828L20.5257 11.2627L20.5168 11.2424C20 10.0637 19.3581 9.38147 18.7153 8.99645L18.6981 8.98615L18.6812 8.97561C17.9958 8.54932 17.1691 8.3122 16.0931 8.3122C15.1033 8.3122 14.2742 8.53882 13.5273 8.99081L13.518 8.99646C12.8653 9.38741 12.2071 10.0789 11.6605 11.2623ZM41.1032 31.0957L41.0842 31.0907C38.6673 30.4608 36.5474 29.5802 34.7767 28.4177L33.2112 27.3898L38.179 19.9592L40.3594 21.4344C41.3088 22.0767 42.5027 22.6252 43.9822 23.057C45.4177 23.4758 46.9255 23.6878 48.5186 23.6878C50.4231 23.6878 51.5795 23.3701 52.2598 22.9706C52.869 22.5903 53.1301 22.1605 53.1301 21.5024C53.1301 20.8191 52.8666 20.4136 52.3444 20.0768C51.8395 19.7511 50.6694 19.3951 48.3304 19.3951H42.966V13.4316L44.7368 11.5122L47.742 8.54634H35.4842V0.390244H62.6354V6.44757L56.5435 12.4596C57.9009 12.8949 59.1137 13.4911 60.1542 14.2703C62.7165 16.1393 64 18.5917 64 21.4634C64 23.3476 63.4163 25.1131 62.253 26.721C61.0413 28.3958 59.2272 29.6826 56.9586 30.6233L56.9448 30.629C54.6088 31.5818 51.7917 32 48.6127 32C46.0653 32 43.5662 31.6998 41.1223 31.1004L41.1032 31.0957ZM58.5886 15.7268C57.6096 14.991 56.3881 14.4346 54.9243 14.0576C54.1261 13.8521 53.256 13.6999 52.3138 13.601L60.2826 5.73659V2.34146H37.8369V6.59512H52.7924L45.3188 13.9707V17.4439H48.3304C50.84 17.4439 52.6595 17.8081 53.7889 18.5366C54.9182 19.265 55.4829 20.2537 55.4829 21.5024C55.4829 22.7772 54.8712 23.7919 53.6477 24.5463C52.4243 25.2748 50.7146 25.639 48.5186 25.639C46.6678 25.639 44.8953 25.3919 43.2013 24.8976C42.3493 24.6489 41.5608 24.3608 40.8357 24.0333C40.1192 23.7095 39.4647 23.3472 38.8722 22.9463L36.237 26.8878C37.7428 27.8764 39.5937 28.6569 41.7896 29.2293C44.017 29.7756 46.2913 30.0488 48.6127 30.0488C51.5616 30.0488 53.9928 29.6585 55.9064 28.878C57.8514 28.0715 59.2944 27.0179 60.2355 25.7171C61.1767 24.4163 61.6472 22.9984 61.6472 21.4634C61.6472 19.122 60.6277 17.2098 58.5886 15.7268Z" fill="#D1BE99"/>
</svg>
