<svg width="64" height="32" viewBox="0 0 64 32" fill="none" xmlns="http://www.w3.org/2000/svg">
<path fill-rule="evenodd" clip-rule="evenodd" d="M7.37195 30.0503L7.36192 30.0446C5.00128 28.7018 3.19449 26.7898 1.91009 24.3995L1.90563 24.3912C0.608235 21.9468 0 19.1311 0 16C0 12.8717 0.607204 10.0662 1.90785 7.64374C3.18948 5.23083 4.99753 3.31053 7.37192 1.98873C9.72354 0.653502 12.3845 0 15.2865 0C18.1859 0 20.8446 0.652316 23.1947 1.9851C25.5986 3.305 27.4253 5.22537 28.7098 7.64364C30.0105 10.0661 30.6177 12.8716 30.6177 16C30.6177 19.1311 30.0094 21.9468 28.712 24.3911L28.7076 24.3995C27.4192 26.7972 25.5917 28.7107 23.1982 30.0519L23.191 30.0559C20.839 31.3626 18.1819 32 15.2865 32C12.3911 32 9.73395 31.3626 7.38205 30.0559L7.37195 30.0503ZM26.6843 8.46829C25.552 6.33496 23.9876 4.72195 21.9911 3.62927C20.0244 2.51057 17.7896 1.95122 15.2865 1.95122C12.7834 1.95122 10.5486 2.51057 8.58189 3.62927C6.61521 4.72195 5.0657 6.33496 3.93337 8.46829C2.80103 10.5756 2.23487 13.0862 2.23487 16C2.23487 18.9138 2.80103 21.4374 3.93337 23.5707C5.0657 25.678 6.61521 27.2911 8.58189 28.4098C10.5486 29.5024 12.7834 30.0488 15.2865 30.0488C17.7896 30.0488 20.0244 29.5024 21.9911 28.4098C23.9876 27.2911 25.552 25.678 26.6843 23.5707C27.8167 21.4374 28.3828 18.9138 28.3828 16C28.3828 13.0862 27.8167 10.5756 26.6843 8.46829ZM18.7312 22.0988L18.7382 22.0902C19.6613 20.9546 20.2926 19.0244 20.2926 16C20.2926 12.9756 19.6613 11.0454 18.7382 9.90975L18.7312 9.90115L18.7244 9.89249C17.8576 8.80133 16.7834 8.3122 15.2865 8.3122C13.8327 8.3122 12.7461 8.79305 11.8419 9.901C10.9408 11.0412 10.3251 12.9769 10.3251 16C10.3251 19.0232 10.9408 20.9589 11.8419 22.099C12.7461 23.207 13.8327 23.6878 15.2865 23.6878C16.7834 23.6878 17.8576 23.1987 18.7244 22.1075L18.7312 22.0988ZM10.0122 8.78049C11.3233 7.16748 13.0814 6.36098 15.2865 6.36098C17.5214 6.36098 19.2795 7.16748 20.5608 8.78049C21.8719 10.3935 22.5275 12.8 22.5275 16C22.5275 19.2 21.8719 21.6065 20.5608 23.2195C19.2795 24.8325 17.5214 25.639 15.2865 25.639C13.0814 25.639 11.3233 24.8325 10.0122 23.2195C8.73089 21.6065 8.09022 19.2 8.09022 16C8.09022 12.8 8.73089 10.3935 10.0122 8.78049ZM56.3817 6.75869C55.183 6.38948 53.804 6.20488 52.2446 6.20488C49.235 6.20488 46.8809 7.01138 45.1824 8.62439C44.0442 9.7053 43.2874 11.1075 42.9119 12.8309C42.7271 13.6794 42.6347 14.6056 42.6347 15.6098V15.6488C42.6475 15.6357 42.6605 15.6227 42.6734 15.6098C43.3166 14.9671 44.0808 14.4362 44.9659 14.0171C45.3438 13.8382 45.7437 13.6796 46.1657 13.5415C47.5961 13.0472 49.2052 12.8 50.9931 12.8C53.0491 12.8 54.8966 13.1512 56.5355 13.8537C58.1744 14.5301 59.4558 15.5057 60.3795 16.7805C61.3033 18.0553 61.7651 19.5252 61.7651 21.1902C61.7651 22.9593 61.2586 24.5203 60.2454 25.8732C59.2323 27.2 57.8616 28.2276 56.1333 28.9561C54.405 29.6846 52.4681 30.0488 50.3226 30.0488C46.0317 30.0488 42.6943 28.878 40.3104 26.5366C37.9563 24.1951 36.7793 20.839 36.7793 16.4683C36.7793 13.3984 37.42 10.7837 38.7013 8.62439C39.9826 6.43902 41.7705 4.78699 44.065 3.66829C46.3892 2.52358 49.0711 1.95122 52.1105 1.95122C53.7196 1.95122 55.2244 2.10732 56.6249 2.41951C57.2254 2.53967 57.7918 2.68504 58.3241 2.85564C58.3504 2.8641 58.3767 2.87261 58.403 2.88119C59.1075 3.1118 59.7515 3.38718 60.3348 3.70732L58.1893 7.53171C57.6409 7.21863 57.0384 6.96096 56.3817 6.75869ZM57.151 0.522996C55.5587 0.170309 53.8754 0 52.1105 0C48.7424 0 45.6739 0.636576 42.9713 1.96668C40.2675 3.28588 38.1813 5.23102 36.7144 7.73098C35.2327 10.2301 34.5444 13.1678 34.5444 16.4683C34.5444 21.1228 35.7975 25.0057 38.6308 27.8238L38.64 27.8329C41.531 30.6724 45.5298 32 50.3226 32C52.7645 32 55.0395 31.5838 57.1049 30.7133C59.1739 29.8412 60.8588 28.5875 62.1049 26.9555L62.1105 26.9483L62.1159 26.941C63.3892 25.2408 64 23.3013 64 21.1902C64 19.1955 63.4412 17.3561 62.2682 15.7373C61.1093 14.138 59.5009 12.922 57.5055 12.0958C55.5273 11.2506 53.3413 10.8488 50.9931 10.8488C49.0779 10.8488 47.2792 11.0995 45.625 11.6331C45.9434 10.9534 46.3514 10.3973 46.8276 9.94497C48.0194 8.81324 49.7251 8.1561 52.2446 8.1561C54.3539 8.1561 55.8758 8.54229 56.9663 9.16482L59.0836 10.3735L63.2261 2.98938L61.5241 2.05534C60.2398 1.35049 58.7697 0.849134 57.151 0.522996ZM52.9822 23.3365C52.3392 23.8044 51.4155 24.1171 50.0097 24.1171C48.3554 24.1171 47.3368 23.7733 46.6937 23.3078C46.0519 22.7982 45.7635 22.226 45.7635 21.4634C45.7635 20.6753 46.0648 20.096 46.7299 19.5861C47.4398 19.0632 48.4251 18.7317 49.8756 18.7317C51.4108 18.7317 52.3702 19.0623 52.9952 19.5218C53.5654 19.941 53.8984 20.4995 53.8984 21.4244C53.8984 22.3045 53.5785 22.8797 52.9822 23.3365ZM45.2718 18.1073C46.4637 17.2228 47.9983 16.7805 49.8756 16.7805C51.7827 16.7805 53.3024 17.1967 54.4348 18.0293C55.5671 18.8618 56.1333 19.9935 56.1333 21.4244C56.1333 22.8293 55.5671 23.961 54.4348 24.8195C53.3024 25.652 51.8274 26.0683 50.0097 26.0683C47.9834 26.0683 46.3892 25.639 45.2271 24.7805C44.0948 23.8959 43.5286 22.7902 43.5286 21.4634C43.5286 20.1106 44.1097 18.9919 45.2718 18.1073Z" fill="#D1BE99"/>
</svg>
