<svg width="64" height="64" viewBox="0 0 64 64" fill="none" xmlns="http://www.w3.org/2000/svg">
<path d="M62 11H2C1.73478 11 1.48043 11.1054 1.29289 11.2929C1.10536 11.4804 1 11.7348 1 12V62C1 62.2652 1.10536 62.5196 1.29289 62.7071C1.48043 62.8946 1.73478 63 2 63H62C62.2652 63 62.5196 62.8946 62.7071 62.7071C62.8946 62.5196 63 62.2652 63 62V12C63 11.7348 62.8946 11.4804 62.7071 11.2929C62.5196 11.1054 62.2652 11 62 11ZM57 61H33V17H57V61ZM31 61H7V17H31V61ZM61 61H59V16C59 15.7348 58.8946 15.4804 58.7071 15.2929C58.5196 15.1054 58.2652 15 58 15H6C5.73478 15 5.48043 15.1054 5.29289 15.2929C5.10536 15.4804 5 15.7348 5 16V61H3V13H61V61ZM26 1C25.7348 1 25.4804 1.10536 25.2929 1.29289C25.1054 1.48043 25 1.73478 25 2V8C25 8.26522 25.1054 8.51957 25.2929 8.70711C25.4804 8.89464 25.7348 9 26 9H38C38.2652 9 38.5196 8.89464 38.7071 8.70711C38.8946 8.51957 39 8.26522 39 8V2C39 1.73478 38.8946 1.48043 38.7071 1.29289C38.5196 1.10536 38.2652 1 38 1H26ZM37 7H27V3H37V7Z" fill="#D1BE99"/>
<path d="M23 35H28C28.2652 35 28.5196 34.8946 28.7071 34.7071C28.8946 34.5196 29 34.2652 29 34V20C29 19.7348 28.8946 19.4804 28.7071 19.2929C28.5196 19.1054 28.2652 19 28 19H23C22.7348 19 22.4804 19.1054 22.2929 19.2929C22.1054 19.4804 22 19.7348 22 20V34C22 34.2652 22.1054 34.5196 22.2929 34.7071C22.4804 34.8946 22.7348 35 23 35ZM24 21H27V33H24V21Z" fill="#D1BE99"/>
<path d="M27 43H29V37H27V39H10V41H27V43Z" fill="#D1BE99"/>
<path d="M36 35H41C41.2652 35 41.5196 34.8946 41.7071 34.7071C41.8946 34.5196 42 34.2652 42 34V20C42 19.7348 41.8946 19.4804 41.7071 19.2929C41.5196 19.1054 41.2652 19 41 19H36C35.7348 19 35.4804 19.1054 35.2929 19.2929C35.1054 19.4804 35 19.7348 35 20V34C35 34.2652 35.1054 34.5196 35.2929 34.7071C35.4804 34.8946 35.7348 35 36 35ZM37 21H40V33H37V21Z" fill="#D1BE99"/>
<path d="M37 43V41H54V39H37V37H35V43H37Z" fill="#D1BE99"/>
</svg>
