<svg width="64" height="64" viewBox="0 0 64 64" fill="none" xmlns="http://www.w3.org/2000/svg">
<g clip-path="url(#clip0_540_95)">
<path d="M60 60H4C1.8 60 0 58.2 0 56C0 53.8 1.8 52 4 52H60C62.2 52 64 53.8 64 56C64 58.2 62.2 60 60 60ZM4 54C2.8 54 2 54.8 2 56C2 57.2 2.8 58 4 58H60C61.2 58 62 57.2 62 56C62 54.8 61.2 54 60 54H4Z" fill="#D1BE99"/>
<path d="M59 64C58.4 64 58 63.6 58 63V60H6V63C6 63.6 5.6 64 5 64C4.4 64 4 63.6 4 63V59C4 58.4 4.4 58 5 58H59C59.6 58 60 58.4 60 59V63C60 63.6 59.6 64 59 64ZM49 17.6H48.4C47.8 17.6 47.4 17.2 47.4 16.6C47.4 16 47.8 15.6 48.2 15.6L50 10.6C50.2 9.80001 50 8.80001 49.4 8.20001C48.8 7.40001 48 7.00001 47 7.00001C46.4 7.00001 46 6.60001 46 6.00001C46 4.80001 45.4 3.60001 44.6 2.80001C43.8 2.00001 42.6 1.80001 41.4 2.00001L29.4 4.00001C28.4 4.20001 27.4 4.80001 26.8 5.60001C26.2 6.40001 26 7.60001 26.2 8.60001L28 15.4C28.4 15.4 28.8 15.8 28.8 16.4C28.8 17 28.4 17.4 27.8 17.4H27.2C26.8 17.4 26.4 17 26.2 16.6L24.2 9.00001C23.8 7.40001 24.2 5.80001 25.2 4.40001C26.2 3.00001 27.6 2.20001 29.2 2.00001L41.2 7.86409e-06C43 -0.199992 44.6 0.200008 46 1.40001C47.2 2.40001 47.8 3.80001 48 5.20001C49.2 5.40001 50.2 6.00001 51 7.00001C52 8.20001 52.4 9.80001 52 11.2L50 16.8C49.8 17.4 49.4 17.6 49 17.6Z" fill="#D1BE99"/>
<path d="M48.8 17.6H48.2C46.8 17.6 45.4 16.4 45.4 14.8V11.8C41.8 14.4 37 15.4 32.6 14.6L30.8 14.2C30.6 14.2 30.2 14.6 30.2 15C30.2 16.4 29 17.8 27.4 17.8H26.8C26.2 17.8 25.8 17.4 25.8 16.8C25.8 16.2 26.2 15.8 26.8 15.8H27.4C27.8 15.8 28.2 15.4 28.2 15C28.2 13.6 29.4 12.2 31 12.2L33 12.6C37 13.4 41.2 12.4 44.4 10C45 9.60001 45.8 9.60001 46.4 9.80001C47 10.2 47.4 10.8 47.4 11.4V14.8C47.4 15.2 47.8 15.6 48.2 15.6H48.8C49.4 15.6 49.8 16 49.8 16.6C49.8 17.2 49.4 17.6 48.8 17.6ZM59 54H17C16.4 54 16 53.6 16 53C16 52.4 16.4 52 17 52H58V45.6C58 42.4 56 39.6 53 38.6L43.6 35.4C43 35.2 42.8 34.6 43 34.2C43.2 33.6 43.8 33.4 44.2 33.6L53.6 36.8C57.4 38 60 41.6 60 45.8V53.2C60 53.6 59.6 54 59 54Z" fill="#D1BE99"/>
<path d="M59 54H49C48.4 54 48 53.6 48 53V51.4C48 45.8 52.2 41 57.8 40.4C58.2 40.4 58.6 40.6 58.8 40.8C59.6 42.2 60.2 44 60.2 45.6V53C60 53.6 59.6 54 59 54ZM50 52H58V45.6C58 44.6 57.8 43.4 57.2 42.4C53 43.2 49.8 47 49.8 51.4V52H50ZM48 27.2H41C40.4 27.2 40 26.8 40 26.2C40 25.6 40.4 25.2 41 25.2H48C50.2 25.2 52 23.4 52 21.2V17.8C52 17.2 52.4 16.8 53 16.8C53.6 16.8 54 17.2 54 17.8V21.2C54 24.4 51.2 27.2 48 27.2ZM27 22H25C23.4 22 22 20.6 22 19V17C22 15.4 23.4 14 25 14H26C26.6 14 27 14.4 27 15C27 15.6 26.6 16 26 16H25C24.4 16 24 16.4 24 17V19C24 19.6 24.4 20 25 20H26V18C26 17.4 26.4 17 27 17C27.6 17 28 17.4 28 18V21C28 21.6 27.6 22 27 22Z" fill="#D1BE99"/>
<path d="M51 22H49C48.4 22 48 21.6 48 21V18C48 17.4 48.4 17 49 17C49.6 17 50 17.4 50 18V20H51C51.6 20 52 19.6 52 19V17C52 16.4 51.6 16 51 16H50C49.4 16 49 15.6 49 15C49 14.4 49.4 14 50 14H51C52.6 14 54 15.4 54 17V19C54 20.6 52.6 22 51 22ZM36 54H8C5.8 54 4 52.2 4 50V47C4 46.4 4.4 46 5 46H39C39.6 46 40 46.4 40 47V50C40 52.2 38.2 54 36 54ZM6 48V50C6 51.2 6.8 52 8 52H36C37.2 52 38 51.2 38 50V48H6Z" fill="#D1BE99"/>
<path d="M35 48H5C4.4 48 4 47.6 4 47V27C4 26.4 4.4 26 5 26H35C35.6 26 36 26.4 36 27V47C36 47.6 35.6 48 35 48ZM6 46H34V28H6V46Z" fill="#D1BE99"/>
<path d="M38 40.6H37.6C37.6 40.6 36 39.8 34.4 38.8C34 38.4 33.8 37.8 34.2 37.4C34.6 37 35.2 36.8 35.6 37.2C36.6 37.8 37.4 38.4 38 38.6C39.6 37.8 42.8 35.8 42.8 33.8V29.6C42.8 29 43.2 28.6 43.8 28.6C44.4 28.6 44.8 29 44.8 29.6V33.8C44.8 37.6 39 40.2 38.4 40.6H38Z" fill="#D1BE99"/>
<path d="M38 32C37 32 35.8 31.8 34.8 31.6C34.4 31.4 34 31 34 30.6V28H29.6C29.4 28 29 27.8 28.8 27.6C27 25.6 26 22.8 26 20V17C26 16.4 26.4 16 27 16C27.6 16 28 16.4 28 17V20C28 22.2 28.8 24.4 30 26H35C35.6 26 36 26.4 36 27V29.8C36.6 30 37.4 30 38 30C43.6 30 48 25.6 48 20V17C48 16.4 48.4 16 49 16C49.6 16 50 16.4 50 17V20C50 26.6 44.6 32 38 32Z" fill="#D1BE99"/>
<path d="M20 39C21.1046 39 22 38.1046 22 37C22 35.8954 21.1046 35 20 35C18.8954 35 18 35.8954 18 37C18 38.1046 18.8954 39 20 39Z" fill="#D1BE99"/>
</g>
<defs>
<clipPath id="clip0_540_95">
<rect width="64" height="64" fill="white"/>
</clipPath>
</defs>
</svg>
