<svg width="64" height="64" viewBox="0 0 64 64" fill="none" xmlns="http://www.w3.org/2000/svg">
<g clip-path="url(#clip0_540_108)">
<path fill-rule="evenodd" clip-rule="evenodd" d="M47.9998 9C43.3975 9 39.6665 12.731 39.6665 17.3333C39.6665 21.9357 43.3975 25.6667 47.9998 25.6667C52.6022 25.6667 56.3332 21.9357 56.3332 17.3333C56.3332 12.731 52.6022 9 47.9998 9ZM37.6665 17.3333C37.6665 11.6264 42.2929 7 47.9998 7C53.7068 7 58.3332 11.6264 58.3332 17.3333C58.3332 23.0403 53.7068 27.6667 47.9998 27.6667C42.2929 27.6667 37.6665 23.0403 37.6665 17.3333Z" fill="#D1BE99"/>
<path fill-rule="evenodd" clip-rule="evenodd" d="M52.707 15.3738L47.3737 20.7071C46.9832 21.0977 46.35 21.0977 45.9595 20.7071L43.2928 18.0405L44.707 16.6263L46.6666 18.5858L51.2928 13.9596L52.707 15.3738ZM8.30262 18.9694C9.99045 17.2816 12.2796 16.3334 14.6666 16.3334H29.3333C30.6593 16.3334 31.9311 16.8602 32.8688 17.7978C33.8065 18.7355 34.3333 20.0073 34.3333 21.3334C34.3333 22.6595 33.8065 23.9312 32.8688 24.8689C31.9311 25.8066 30.6593 26.3334 29.3333 26.3334H14.6666V24.3334H29.3333C30.1289 24.3334 30.892 24.0173 31.4546 23.4547C32.0172 22.8921 32.3333 22.129 32.3333 21.3334C32.3333 20.5377 32.0172 19.7747 31.4546 19.212C30.892 18.6494 30.1289 18.3334 29.3333 18.3334H14.6666C12.8101 18.3334 11.0296 19.0709 9.71684 20.3836C8.40408 21.6964 7.66659 23.4769 7.66659 25.3334H5.66659C5.66659 24.7702 5.71938 24.2124 5.82221 23.6667H2.33325V24H0.333252V22.6667C0.333252 22.1144 0.780967 21.6667 1.33325 21.6667H6.44737C6.89148 20.6712 7.51691 19.7551 8.30262 18.9694ZM45.3333 37H26.6666V35H45.3333V37Z" fill="#D1BE99"/>
<path fill-rule="evenodd" clip-rule="evenodd" d="M29.9596 0.626206C30.1471 0.43867 30.4015 0.333313 30.6667 0.333313H57.3333C59.013 0.333313 60.6239 1.00057 61.8117 2.1883C62.9994 3.37603 63.6667 4.98694 63.6667 6.66665V25.3333H61.6667V6.66665C61.6667 5.51737 61.2101 4.41517 60.3975 3.60252C59.5848 2.78986 58.4826 2.33331 57.3333 2.33331H31.0809L20.7071 12.7071L19.2929 11.2929L29.9596 0.626206ZM19 57.3333V25.3333H21V57.3333C21 58.4826 21.4565 59.5848 22.2692 60.3974C23.0819 61.2101 24.1841 61.6666 25.3333 61.6666H57.3333C58.4826 61.6666 59.5848 61.2101 60.3975 60.3974C61.2101 59.5848 61.6667 58.4826 61.6667 57.3333V38.6666H63.6667V57.3333C63.6667 59.013 62.9994 60.6239 61.8117 61.8117C60.6239 62.9994 59.013 63.6666 57.3333 63.6666H25.3333C23.6536 63.6666 22.0427 62.9994 20.855 61.8117C19.6673 60.6239 19 59.013 19 57.3333Z" fill="#D1BE99"/>
<path fill-rule="evenodd" clip-rule="evenodd" d="M31.0493 0.409463C31.4229 0.564244 31.6666 0.92888 31.6666 1.33334V9.33334C31.6666 10.3058 31.2803 11.2384 30.5926 11.9261C29.905 12.6137 28.9724 13 27.9999 13H25.3333V11H27.9999C28.4419 11 28.8659 10.8244 29.1784 10.5119C29.491 10.1993 29.6666 9.77537 29.6666 9.33334V3.74755L20.9999 12.4142V17.3333H18.9999V12C18.9999 11.7348 19.1053 11.4804 19.2928 11.2929L29.9595 0.626235C30.2455 0.340237 30.6756 0.254682 31.0493 0.409463ZM60.0499 30.333C59.8377 30.333 59.6276 30.3749 59.4315 30.4561C59.2355 30.5374 59.0574 30.6565 58.9075 30.8067L58.907 30.8071L41.1141 48.6L43.3999 50.8858L61.1928 33.0929L61.1932 33.0925C61.3434 32.9425 61.4625 32.7644 61.5438 32.5684C61.6251 32.3723 61.6669 32.1622 61.6669 31.95C61.6669 31.7378 61.6251 31.5277 61.5438 31.3316C61.4625 31.1356 61.3434 30.9575 61.1932 30.8076L61.1924 30.8067C61.0424 30.6565 60.8643 30.5374 60.6683 30.4561C60.4723 30.3749 60.2621 30.333 60.0499 30.333ZM58.6656 28.6086C59.1045 28.4267 59.5748 28.333 60.0499 28.333C60.525 28.333 60.9954 28.4267 61.4342 28.6086C61.8729 28.7905 62.2714 29.057 62.607 29.3929C62.9429 29.7285 63.2094 30.127 63.3913 30.5657C63.5732 31.0045 63.6669 31.4749 63.6669 31.95C63.6669 32.4251 63.5732 32.8955 63.3913 33.3343C63.2094 33.7732 62.9427 34.1718 62.6066 34.5076L44.107 53.0071C43.7165 53.3976 43.0833 53.3976 42.6928 53.0071L38.9928 49.3071C38.8053 49.1196 38.6999 48.8652 38.6999 48.6C38.6999 48.3348 38.8053 48.0804 38.9928 47.8929L57.4924 29.3933C57.4925 29.3932 57.4927 29.393 57.4928 29.3929C57.8284 29.057 58.2269 28.7905 58.6656 28.6086ZM5.82221 37.6667C5.71938 37.121 5.66658 36.5632 5.66658 36H7.66658C7.66658 37.8565 8.40408 39.637 9.71684 40.9498C11.0296 42.2625 12.8101 43 14.6666 43H19.9999V45H14.6666C12.2796 45 9.99045 44.0518 8.30262 42.364C7.51691 41.5783 6.89148 40.6622 6.44737 39.6667H1.33325C0.780967 39.6667 0.333252 39.219 0.333252 38.6667V37.3333H2.33325V37.6667H5.82221Z" fill="#D1BE99"/>
<path fill-rule="evenodd" clip-rule="evenodd" d="M54.2816 34.0182L57.9816 37.7182L56.5674 39.1325L52.8674 35.4325L54.2816 34.0182ZM38.6665 43.6667H26.6665V41.6667H38.6665V43.6667ZM40.5943 49.0472L38.2359 53.764L42.9526 51.4056L43.847 53.1944L36.4471 56.8945C36.3082 56.9639 36.1551 57 35.9998 57H26.6665V55H35.3818L38.8054 48.1528L40.5943 49.0472ZM34.6665 50.3334H26.6665V48.3334H34.6665V50.3334ZM55.9998 50.3334H50.6665V48.3334H55.9998V50.3334ZM55.9998 57H43.9998V55H55.9998V57Z" fill="#D1BE99"/>
</g>
<defs>
<clipPath id="clip0_540_108">
<rect width="64" height="64" fill="white"/>
</clipPath>
</defs>
</svg>
