<svg width="64" height="64" viewBox="0 0 64 64" fill="none" xmlns="http://www.w3.org/2000/svg">
<g clip-path="url(#clip0_540_108)">
<path d="M47.9998 26.6667C53.1545 26.6667 57.3332 22.488 57.3332 17.3333C57.3332 12.1787 53.1545 8 47.9998 8C42.8452 8 38.6665 12.1787 38.6665 17.3333C38.6665 22.488 42.8452 26.6667 47.9998 26.6667Z" stroke="#D1BE99" stroke-width="2" stroke-linejoin="round"/>
<path d="M43.9999 17.3333L46.6666 20L51.9999 14.6666M26.6666 36H45.3333M14.6666 25.3333H29.3333C30.3941 25.3333 31.4115 24.9119 32.1617 24.1617C32.9118 23.4116 33.3333 22.3942 33.3333 21.3333C33.3333 20.2724 32.9118 19.255 32.1617 18.5049C31.4115 17.7547 30.3941 17.3333 29.3333 17.3333H14.6666C12.5449 17.3333 10.51 18.1761 9.00973 19.6764C7.50944 21.1767 6.66659 23.2116 6.66659 25.3333M6.66659 22.6666H1.33325V24" stroke="#D1BE99" stroke-width="2" stroke-linejoin="round"/>
<path d="M20 25.3333V57.3333C20 58.7478 20.5619 60.1044 21.5621 61.1045C22.5623 62.1047 23.9188 62.6666 25.3333 62.6666H57.3333C58.7478 62.6666 60.1044 62.1047 61.1046 61.1045C62.1048 60.1044 62.6667 58.7478 62.6667 57.3333V38.6666M20 12L30.6667 1.33331H57.3333C58.7478 1.33331 60.1044 1.89522 61.1046 2.89541C62.1048 3.8956 62.6667 5.25216 62.6667 6.66665V25.3333" stroke="#D1BE99" stroke-width="2" stroke-linejoin="round"/>
<path d="M25.3333 12H27.9999C28.7072 12 29.3854 11.719 29.8855 11.2189C30.3856 10.7188 30.6666 10.0406 30.6666 9.33331V1.33331L19.9999 12V17.3333M6.66658 36C6.66658 38.1217 7.50944 40.1565 9.00973 41.6568C10.51 43.1571 12.5449 44 14.6666 44H19.9999M6.66658 38.6666H1.33325V37.3333M61.8999 30.1C62.1431 30.3428 62.3359 30.6312 62.4675 30.9486C62.5991 31.2661 62.6669 31.6063 62.6669 31.95C62.6669 32.2936 62.5991 32.6339 62.4675 32.9513C62.3359 33.2688 62.1431 33.5571 61.8999 33.8L43.3999 52.3L39.6999 48.6L58.1999 30.1C58.4428 29.8568 58.7311 29.664 59.0486 29.5323C59.366 29.4007 59.7063 29.333 60.0499 29.333C60.3936 29.333 60.7338 29.4007 61.0513 29.5323C61.3687 29.664 61.6571 29.8568 61.8999 30.1Z" stroke="#D1BE99" stroke-width="2" stroke-linejoin="round"/>
<path d="M43.3998 52.3L35.9998 56M35.9998 56L39.6998 48.6M35.9998 56H26.6665M57.2745 38.4253L53.5745 34.7253M26.6665 49.3333H34.6665M26.6665 42.6667H38.6665M43.9998 56H55.9998M50.6665 49.3333H55.9998" stroke="#D1BE99" stroke-width="2" stroke-linejoin="round"/>
</g>
<defs>
<clipPath id="clip0_540_108">
<rect width="64" height="64" fill="white"/>
</clipPath>
</defs>
</svg>
