<svg width="48" height="48" viewBox="0 0 48 48" fill="none" xmlns="http://www.w3.org/2000/svg">
<path d="M24 6C20.4399 6 16.9598 7.05568 13.9997 9.03355C11.0397 11.0114 8.73255 13.8226 7.37018 17.1117C6.0078 20.4008 5.65134 24.02 6.34587 27.5116C7.04041 31.0033 8.75474 34.2106 11.2721 36.7279C13.7894 39.2453 16.9967 40.9596 20.4884 41.6541C23.98 42.3487 27.5992 41.9922 30.8883 40.6298C34.1774 39.2675 36.9886 36.9603 38.9665 34.0003C40.9443 31.0402 42 27.5601 42 24C42 19.2261 40.1036 14.6477 36.7279 11.2721C33.3523 7.89642 28.7739 6 24 6ZM24 39C21.0333 39 18.1332 38.1203 15.6665 36.472C13.1997 34.8238 11.2771 32.4811 10.1418 29.7402C9.0065 26.9994 8.70945 23.9834 9.28823 21.0736C9.86701 18.1639 11.2956 15.4912 13.3934 13.3934C15.4912 11.2956 18.1639 9.867 21.0737 9.28822C23.9834 8.70944 26.9994 9.00649 29.7403 10.1418C32.4812 11.2771 34.8238 13.1997 36.4721 15.6664C38.1203 18.1332 39 21.0333 39 24C39 27.9782 37.4197 31.7936 34.6066 34.6066C31.7936 37.4196 27.9783 39 24 39Z" fill="#FF3030"/>
<path d="M24 27C24.3978 27 24.7794 26.842 25.0607 26.5607C25.342 26.2794 25.5 25.8978 25.5 25.5V16.5C25.5 16.1022 25.342 15.7206 25.0607 15.4393C24.7794 15.158 24.3978 15 24 15C23.6022 15 23.2206 15.158 22.9393 15.4393C22.658 15.7206 22.5 16.1022 22.5 16.5V25.5C22.5 25.8978 22.658 26.2794 22.9393 26.5607C23.2206 26.842 23.6022 27 24 27ZM24 30C23.6022 30 23.2206 30.158 22.9393 30.4393C22.658 30.7206 22.5 31.1022 22.5 31.5C22.5 31.8978 22.658 32.2794 22.9393 32.5607C23.2206 32.842 23.6022 33 24 33C24.3978 33 24.7794 32.842 25.0607 32.5607C25.342 32.2794 25.5 31.8978 25.5 31.5C25.5 31.1022 25.342 30.7206 25.0607 30.4393C24.7794 30.158 24.3978 30 24 30Z" fill="#FF3030"/>
</svg>
