<svg width="53" height="30" viewBox="0 0 53 30" fill="none" xmlns="http://www.w3.org/2000/svg">
<path d="M6.44 27.72L5.36622 29.4074L5.37773 29.4146L6.44 27.72ZM2.28 22.84L0.46933 23.6894L0.473445 23.6981L2.28 22.84ZM2.28 7.2L4.08658 8.05812L4.09065 8.04944L2.28 7.2ZM6.44 2.28L5.37771 0.585385L5.36625 0.592675L6.44 2.28ZM18.44 2.28L19.5138 0.592675L18.44 2.28ZM22.6 7.2L20.7894 8.04944L20.7957 8.06297L20.8022 8.0764L22.6 7.2ZM22.6 22.84L20.798 21.9724L20.7934 21.9819L22.6 22.84ZM18.44 27.72L17.3663 26.0327L18.44 27.72ZM15.84 23.84L17.011 25.4614L17.0256 25.4508L17.04 25.44L15.84 23.84ZM18.08 20.56L16.2116 19.8466L16.2059 19.8615L16.2004 19.8765L18.08 20.56ZM18.08 9.44L16.2004 10.1235L16.208 10.1443L16.216 10.1649L18.08 9.44ZM15.84 6.2L14.64 7.8L14.6544 7.81081L14.669 7.82136L15.84 6.2ZM9.08 6.2L10.251 7.82138L10.2589 7.81558L9.08 6.2ZM6.8 9.44L4.93156 8.7266L4.92799 8.73597L4.9245 8.74537L6.8 9.44ZM6.8 20.56L4.92041 21.2435L4.92587 21.2585L4.93156 21.2734L6.8 20.56ZM9.08 23.84L7.88 25.44L7.90477 25.4586L7.93011 25.4764L9.08 23.84ZM12.44 27.4C10.5829 27.4 8.9544 26.9357 7.50227 26.0254L5.37773 29.4146C7.49893 30.7443 9.87047 31.4 12.44 31.4V27.4ZM7.51375 26.0327C6.11161 25.1404 4.96037 23.8215 4.08656 21.9819L0.473445 23.6981C1.6263 26.1252 3.24839 28.0596 5.36625 29.4073L7.51375 26.0327ZM4.09065 21.9906C3.23229 20.1609 2.76 17.8538 2.76 15H-1.24C-1.24 18.2795 -0.698954 21.1991 0.469351 23.6894L4.09065 21.9906ZM2.76 15C2.76 12.145 3.23268 9.85575 4.08656 8.05811L0.473445 6.34189C-0.699344 8.81092 -1.24 11.7217 -1.24 15H2.76ZM4.09065 8.04944C4.96654 6.18241 6.11798 4.85554 7.51375 3.96732L5.36625 0.592675C3.24202 1.94445 1.62013 3.89759 0.469351 6.35056L4.09065 8.04944ZM7.50227 3.97457C8.9544 3.06428 10.5829 2.6 12.44 2.6V-1.4C9.87047 -1.4 7.49893 -0.744285 5.37773 0.585424L7.50227 3.97457ZM12.44 2.6C14.3289 2.6 15.951 3.0667 17.3663 3.96732L19.5138 0.592675C17.409 -0.746702 15.0311 -1.4 12.44 -1.4V2.6ZM17.3663 3.96732C18.762 4.85554 19.9135 6.18241 20.7894 8.04944L24.4107 6.35056C23.2599 3.89759 21.638 1.94445 19.5138 0.592675L17.3663 3.96732ZM20.8022 8.0764C21.6762 9.86903 22.16 12.1514 22.16 15H26.16C26.16 11.7152 25.6038 8.79763 24.3978 6.3236L20.8022 8.0764ZM22.16 15C22.16 17.8474 21.6765 20.1477 20.798 21.9724L24.402 23.7076C25.6035 21.2123 26.16 18.286 26.16 15H22.16ZM20.7934 21.9819C19.9196 23.8215 18.7684 25.1404 17.3663 26.0327L19.5138 29.4073C21.6316 28.0596 23.2537 26.1252 24.4066 23.6981L20.7934 21.9819ZM17.3663 26.0327C15.951 26.9333 14.3289 27.4 12.44 27.4V31.4C15.0311 31.4 17.409 30.7467 19.5138 29.4073L17.3663 26.0327ZM12.44 26.88C14.1214 26.88 15.6749 26.4263 17.011 25.4614L14.669 22.2186C14.0851 22.6404 13.3719 22.88 12.44 22.88V26.88ZM17.04 25.44C18.3915 24.4263 19.3329 22.967 19.9596 21.2435L16.2004 19.8765C15.7605 21.0864 15.2085 21.8137 14.64 22.24L17.04 25.44ZM19.9484 21.2734C20.624 19.504 20.92 17.3882 20.92 15H16.92C16.92 17.0918 16.656 18.6826 16.2116 19.8466L19.9484 21.2734ZM20.92 15C20.92 12.5908 20.6255 10.4675 19.944 8.71511L16.216 10.1649C16.6545 11.2925 16.92 12.8759 16.92 15H20.92ZM19.9596 8.75651C19.3322 7.03132 18.3845 5.57066 17.011 4.57864L14.669 7.82136C15.2155 8.21601 15.7611 8.91534 16.2004 10.1235L19.9596 8.75651ZM17.04 4.6C15.7026 3.59694 14.1387 3.12 12.44 3.12V7.12C13.3546 7.12 14.0574 7.36306 14.64 7.8L17.04 4.6ZM12.44 3.12C10.7747 3.12 9.23952 3.60771 7.90106 4.58441L10.2589 7.81558C10.8938 7.35229 11.5986 7.12 12.44 7.12V3.12ZM7.90902 4.57864C6.54531 5.56354 5.5862 7.01208 4.93156 8.7266L8.66844 10.1534C9.1338 8.93459 9.69469 8.22312 10.251 7.82136L7.90902 4.57864ZM4.9245 8.74537C4.27953 10.4868 4 12.5985 4 15H8C8 12.8681 8.2538 11.2732 8.6755 10.1346L4.9245 8.74537ZM4 15C4 17.3803 4.28089 19.4848 4.92041 21.2435L8.67959 19.8765C8.25244 18.7019 8 17.0997 8 15H4ZM4.93156 21.2734C5.5855 22.9861 6.53806 24.4335 7.88 25.44L10.28 22.24C9.70194 21.8065 9.1345 21.0672 8.66844 19.8466L4.93156 21.2734ZM7.93011 25.4764C9.26735 26.4161 10.7923 26.88 12.44 26.88V22.88C11.581 22.88 10.866 22.6506 10.2299 22.2036L7.93011 25.4764ZM35.1541 28.56L34.5544 30.468L34.5706 30.4731L34.5868 30.4779L35.1541 28.56ZM30.4341 26.16L28.6776 25.2035L27.8721 26.6827L29.1927 27.7281L30.4341 26.16ZM32.6341 22.12L33.8983 20.5703L32.0304 19.0465L30.8776 21.1635L32.6341 22.12ZM36.3141 24.12L35.6502 26.0067L35.661 26.0104L36.3141 24.12ZM45.1941 23.72L44.0201 22.1008L44.0104 22.1079L44.0007 22.1151L45.1941 23.72ZM46.1141 18.28L44.4295 19.3581L44.4445 19.3816L44.4602 19.4046L46.1141 18.28ZM43.7941 16.76L43.1896 18.6665L43.2027 18.6706L43.7941 16.76ZM32.5141 16.24L30.5229 16.0519L30.3162 18.24H32.5141V16.24ZM33.9541 0.999998V-1H32.1341L31.9629 0.81186L33.9541 0.999998ZM50.3941 0.999998H52.3941V-1H50.3941V0.999998ZM50.3941 5.36V7.36H52.3941V5.36H50.3941ZM35.8741 5.36L34.5266 3.88209L30.7121 7.36H35.8741V5.36ZM38.5941 2.88L40.5851 3.06863L41.0736 -2.08728L37.2466 1.40209L38.5941 2.88ZM37.5141 14.28L36.1786 15.7688L39.1311 18.4173L39.5051 14.4686L37.5141 14.28ZM34.7941 11.84V9.84H29.5694L33.4586 13.3288L34.7941 11.84ZM47.1141 12.96L46.3018 14.7876L46.3192 14.7953L46.3367 14.8027L47.1141 12.96ZM50.8341 16L49.1129 17.0186L49.1252 17.0395L49.1381 17.06L50.8341 16ZM50.8341 24.88L49.1102 23.866L49.1102 23.866L50.8341 24.88ZM47.1541 28.16L46.2596 26.3711L46.248 26.377L47.1541 28.16ZM40.9541 27.4C39.1729 27.4 37.4306 27.1477 35.7213 26.6421L34.5868 30.4779C36.6642 31.0923 38.7886 31.4 40.9541 31.4V27.4ZM35.7537 26.652C34.0748 26.1244 32.7302 25.4269 31.6755 24.5919L29.1927 27.7281C30.6979 28.9197 32.4999 29.8223 34.5544 30.468L35.7537 26.652ZM32.1905 27.1165L34.3905 23.0765L30.8776 21.1635L28.6776 25.2035L32.1905 27.1165ZM31.3698 23.6697C32.5895 24.6647 34.0279 25.4358 35.6503 26.0066L36.9779 22.2334C35.7202 21.7909 34.7053 21.2286 33.8983 20.5703L31.3698 23.6697ZM35.661 26.0104C37.3407 26.5906 39.0816 26.88 40.8741 26.88V22.88C39.5198 22.88 38.2207 22.6627 36.9671 22.2296L35.661 26.0104ZM40.8741 26.88C42.969 26.88 44.8844 26.4426 46.3875 25.3249L44.0007 22.1151C43.4237 22.5441 42.4591 22.88 40.8741 22.88V26.88ZM46.368 25.3392C47.9484 24.1934 48.7941 22.5539 48.7941 20.6H44.7941C44.7941 21.2594 44.573 21.6999 44.0201 22.1008L46.368 25.3392ZM48.7941 20.6C48.7941 19.3573 48.4675 18.1841 47.7679 17.1554L44.4602 19.4046C44.6673 19.7092 44.7941 20.0827 44.7941 20.6H48.7941ZM47.7986 17.2019C47.0195 15.9845 45.7462 15.2706 44.3854 14.8494L43.2027 18.6706C44.082 18.9427 44.3553 19.2422 44.4295 19.3581L47.7986 17.2019ZM44.3985 14.8535C43.0221 14.4171 41.2808 14.24 39.2741 14.24V18.24C41.1074 18.24 42.3794 18.4096 43.1896 18.6665L44.3985 14.8535ZM39.2741 14.24H32.5141V18.24H39.2741V14.24ZM34.5052 16.4281L35.9452 1.18814L31.9629 0.81186L30.5229 16.0519L34.5052 16.4281ZM33.9541 3H50.3941V-1H33.9541V3ZM48.3941 0.999998V5.36H52.3941V0.999998H48.3941ZM50.3941 3.36H35.8741V7.36H50.3941V3.36ZM37.2216 6.83791L39.9416 4.35791L37.2466 1.40209L34.5266 3.88209L37.2216 6.83791ZM36.603 2.69137L35.523 14.0914L39.5051 14.4686L40.5851 3.06863L36.603 2.69137ZM38.8496 12.7912L36.1296 10.3512L33.4586 13.3288L36.1786 15.7688L38.8496 12.7912ZM34.7941 13.84H40.4341V9.84H34.7941V13.84ZM40.4341 13.84C43.0566 13.84 44.9737 14.1974 46.3018 14.7876L47.9263 11.1324C45.8944 10.2293 43.3582 9.84 40.4341 9.84V13.84ZM46.3367 14.8027C47.7373 15.3936 48.6022 16.1557 49.1129 17.0186L52.5552 14.9814C51.5193 13.231 49.9042 11.9664 47.8915 11.1173L46.3367 14.8027ZM49.1381 17.06C49.7207 17.9921 50.0341 19.0845 50.0341 20.4H54.0341C54.0341 18.4088 53.5475 16.5679 52.5301 14.94L49.1381 17.06ZM50.0341 20.4C50.0341 21.6816 49.7236 22.8231 49.1102 23.866L52.5579 25.894C53.5445 24.2169 54.0341 22.3717 54.0341 20.4H50.0341ZM49.1102 23.866C48.5377 24.8392 47.6279 25.687 46.2596 26.3711L48.0485 29.9489C49.9869 28.9796 51.5304 27.6408 52.5579 25.894L49.1102 23.866ZM46.248 26.377C44.9869 27.0179 43.2573 27.4 40.9541 27.4V31.4C43.6642 31.4 46.0679 30.9554 48.0602 29.943L46.248 26.377Z" fill="#D1BE99"/>
</svg>
