<svg width="50" height="33" viewBox="0 0 50 33" fill="none" xmlns="http://www.w3.org/2000/svg">
<path fill-rule="evenodd" clip-rule="evenodd" d="M7.41359 30.5823C5.03691 29.2674 3.21659 27.3802 1.92284 25.0123L1.91822 25.0039C0.607142 22.5743 0 19.7259 0 16.5264C0 13.3299 0.606017 10.4916 1.92053 8.08367C3.2118 5.69251 5.03117 3.78848 7.41359 2.47044L7.42644 2.46333C9.80688 1.16605 12.4683 0.526367 15.3518 0.526367C18.2596 0.526367 20.9281 1.16373 23.29 2.47044C25.6695 3.78683 27.4873 5.68775 28.7783 8.07471C30.1267 10.4856 30.7485 13.3275 30.7485 16.5264C30.7485 19.7301 30.1248 22.5834 28.7784 25.0168C27.4848 27.3826 25.6652 29.2683 23.29 30.5823C20.9281 31.889 18.2596 32.5264 15.3518 32.5264C12.4683 32.5264 9.8069 31.8866 7.42647 30.5894L7.41359 30.5823ZM26.7534 24.1751C27.9205 22.0678 28.5041 19.5182 28.5041 16.5264C28.5041 13.5345 27.9205 10.9979 26.7534 8.91661C25.6163 6.8093 24.0601 5.20929 22.0851 4.11661C20.11 3.02393 17.8656 2.47759 15.3518 2.47759C12.868 2.47759 10.6236 3.02393 8.61856 4.11661C6.64347 5.20929 5.08734 6.8093 3.95017 8.91661C2.813 10.9979 2.24442 13.5345 2.24442 16.5264C2.24442 19.5182 2.813 22.0678 3.95017 24.1751C5.08734 26.2565 6.64347 27.8434 8.61856 28.9361C10.6236 30.0288 12.868 30.5751 15.3518 30.5751C17.8656 30.5751 20.11 30.0288 22.0851 28.9361C24.0601 27.8434 25.6163 26.2565 26.7534 24.1751ZM19.1673 7.941C20.2446 8.61742 21.0826 9.67108 21.6811 11.102C22.3095 12.5069 22.6237 14.315 22.6237 16.5264C22.6237 18.7117 22.3095 20.5199 21.6811 21.9508C21.0826 23.3817 20.2446 24.4483 19.1673 25.1508C18.09 25.8272 16.8182 26.1654 15.3518 26.1654C13.9453 26.1654 12.6884 25.8272 11.5812 25.1508C10.5039 24.4483 9.65099 23.3817 9.02256 21.9508C8.42404 20.5199 8.12479 18.7117 8.12479 16.5264C8.12479 14.315 8.42404 12.5069 9.02256 11.102C9.65099 9.67108 10.5039 8.61742 11.5812 7.941C12.6884 7.23856 13.9453 6.88734 15.3518 6.88734C16.8182 6.88734 18.09 7.23856 19.1673 7.941ZM11.1234 11.7887C10.6525 12.8989 10.3692 14.4522 10.3692 16.5264C10.3692 18.5663 10.6501 20.1248 11.1258 21.2695C11.6403 22.4351 12.2641 23.1484 12.9008 23.572C13.6073 23.9964 14.401 24.2142 15.3518 24.2142C16.3887 24.2142 17.1844 23.9843 17.8366 23.5793C18.4689 23.162 19.0822 22.4545 19.5718 21.2839L19.5779 21.2693L19.5843 21.2548C20.083 20.1192 20.3793 18.5671 20.3793 16.5264C20.3793 14.4541 20.0814 12.9093 19.5893 11.8092L19.5803 11.7891L19.5718 11.7688C19.0788 10.5901 18.4665 9.90784 17.8532 9.52281L17.8368 9.51252L17.8207 9.50198C17.1669 9.07569 16.3782 8.83856 15.3518 8.83856C14.4076 8.83856 13.6167 9.06519 12.9042 9.51718L12.8953 9.52283C12.2726 9.91378 11.6448 10.6053 11.1234 11.7887ZM39.6757 32.1361V9.07271H33.0322V0.916611H39.6757L40.7042 0.916709L50 0.916611V32.1361H39.6757ZM35.2766 2.86783V7.12149H41.9201V30.1849H47.7556V2.86783H35.2766Z" fill="#D1BE99"/>
</svg>
