<svg width="57" height="30" viewBox="0 0 57 30" fill="none" xmlns="http://www.w3.org/2000/svg">
<path d="M6.44 27.72L5.36622 29.4074L5.37773 29.4146L6.44 27.72ZM2.28 22.84L0.46933 23.6894L0.473445 23.6981L2.28 22.84ZM2.28 7.2L4.08658 8.05812L4.09065 8.04944L2.28 7.2ZM6.44 2.28L5.37771 0.585385L5.36625 0.592675L6.44 2.28ZM18.44 2.28L19.5138 0.592675L18.44 2.28ZM22.6 7.2L20.7894 8.04944L20.7957 8.06297L20.8022 8.0764L22.6 7.2ZM22.6 22.84L20.798 21.9724L20.7934 21.9819L22.6 22.84ZM18.44 27.72L17.3663 26.0327L18.44 27.72ZM15.84 23.84L17.011 25.4614L17.0256 25.4508L17.04 25.44L15.84 23.84ZM18.08 20.56L16.2116 19.8466L16.2059 19.8615L16.2004 19.8765L18.08 20.56ZM18.08 9.44L16.2004 10.1235L16.208 10.1443L16.216 10.1649L18.08 9.44ZM15.84 6.2L14.64 7.8L14.6544 7.81081L14.669 7.82136L15.84 6.2ZM9.08 6.2L10.251 7.82138L10.2589 7.81558L9.08 6.2ZM6.8 9.44L4.93156 8.7266L4.92799 8.73597L4.9245 8.74537L6.8 9.44ZM6.8 20.56L4.92041 21.2435L4.92587 21.2585L4.93156 21.2734L6.8 20.56ZM9.08 23.84L7.88 25.44L7.90477 25.4586L7.93011 25.4764L9.08 23.84ZM12.44 27.4C10.5829 27.4 8.9544 26.9357 7.50227 26.0254L5.37773 29.4146C7.49893 30.7443 9.87047 31.4 12.44 31.4V27.4ZM7.51375 26.0327C6.11161 25.1404 4.96037 23.8215 4.08656 21.9819L0.473445 23.6981C1.6263 26.1252 3.24839 28.0596 5.36625 29.4073L7.51375 26.0327ZM4.09065 21.9906C3.23229 20.1609 2.76 17.8538 2.76 15H-1.24C-1.24 18.2795 -0.698954 21.1991 0.469351 23.6894L4.09065 21.9906ZM2.76 15C2.76 12.145 3.23268 9.85575 4.08656 8.05811L0.473445 6.34189C-0.699344 8.81092 -1.24 11.7217 -1.24 15H2.76ZM4.09065 8.04944C4.96654 6.18241 6.11798 4.85554 7.51375 3.96732L5.36625 0.592675C3.24202 1.94445 1.62013 3.89759 0.469351 6.35056L4.09065 8.04944ZM7.50227 3.97457C8.9544 3.06428 10.5829 2.6 12.44 2.6V-1.4C9.87047 -1.4 7.49893 -0.744285 5.37773 0.585424L7.50227 3.97457ZM12.44 2.6C14.3289 2.6 15.951 3.0667 17.3663 3.96732L19.5138 0.592675C17.409 -0.746702 15.0311 -1.4 12.44 -1.4V2.6ZM17.3663 3.96732C18.762 4.85554 19.9135 6.18241 20.7894 8.04944L24.4107 6.35056C23.2599 3.89759 21.638 1.94445 19.5138 0.592675L17.3663 3.96732ZM20.8022 8.0764C21.6762 9.86903 22.16 12.1514 22.16 15H26.16C26.16 11.7152 25.6038 8.79763 24.3978 6.3236L20.8022 8.0764ZM22.16 15C22.16 17.8474 21.6765 20.1477 20.798 21.9724L24.402 23.7076C25.6035 21.2123 26.16 18.286 26.16 15H22.16ZM20.7934 21.9819C19.9196 23.8215 18.7684 25.1404 17.3663 26.0327L19.5138 29.4073C21.6316 28.0596 23.2537 26.1252 24.4066 23.6981L20.7934 21.9819ZM17.3663 26.0327C15.951 26.9333 14.3289 27.4 12.44 27.4V31.4C15.0311 31.4 17.409 30.7467 19.5138 29.4073L17.3663 26.0327ZM12.44 26.88C14.1214 26.88 15.6749 26.4263 17.011 25.4614L14.669 22.2186C14.0851 22.6404 13.3719 22.88 12.44 22.88V26.88ZM17.04 25.44C18.3915 24.4263 19.3329 22.967 19.9596 21.2435L16.2004 19.8765C15.7605 21.0864 15.2085 21.8137 14.64 22.24L17.04 25.44ZM19.9484 21.2734C20.624 19.504 20.92 17.3882 20.92 15H16.92C16.92 17.0918 16.656 18.6826 16.2116 19.8466L19.9484 21.2734ZM20.92 15C20.92 12.5908 20.6255 10.4675 19.944 8.71511L16.216 10.1649C16.6545 11.2925 16.92 12.8759 16.92 15H20.92ZM19.9596 8.75651C19.3322 7.03132 18.3845 5.57066 17.011 4.57864L14.669 7.82136C15.2155 8.21601 15.7611 8.91534 16.2004 10.1235L19.9596 8.75651ZM17.04 4.6C15.7026 3.59694 14.1387 3.12 12.44 3.12V7.12C13.3546 7.12 14.0574 7.36306 14.64 7.8L17.04 4.6ZM12.44 3.12C10.7747 3.12 9.23952 3.60771 7.90106 4.58441L10.2589 7.81558C10.8938 7.35229 11.5986 7.12 12.44 7.12V3.12ZM7.90902 4.57864C6.54531 5.56354 5.5862 7.01208 4.93156 8.7266L8.66844 10.1534C9.1338 8.93459 9.69469 8.22312 10.251 7.82136L7.90902 4.57864ZM4.9245 8.74537C4.27953 10.4868 4 12.5985 4 15H8C8 12.8681 8.2538 11.2732 8.6755 10.1346L4.9245 8.74537ZM4 15C4 17.3803 4.28089 19.4848 4.92041 21.2435L8.67959 19.8765C8.25244 18.7019 8 17.0997 8 15H4ZM4.93156 21.2734C5.5855 22.9861 6.53806 24.4335 7.88 25.44L10.28 22.24C9.70194 21.8065 9.1345 21.0672 8.66844 19.8466L4.93156 21.2734ZM7.93011 25.4764C9.26735 26.4161 10.7923 26.88 12.44 26.88V22.88C11.581 22.88 10.866 22.6506 10.2299 22.2036L7.93011 25.4764ZM31.2741 22.64H29.2741V24.64H31.2741V22.64ZM31.2741 19.04L29.6855 17.8248L29.2741 18.3627V19.04H31.2741ZM45.0741 0.999998V-1H44.0859L43.4855 -0.215164L45.0741 0.999998ZM50.6341 0.999998L52.2311 2.20396L54.6465 -1H50.6341V0.999998ZM37.0341 19.04L36.4459 20.9516L37.7866 21.3641L38.6311 20.244L37.0341 19.04ZM34.4341 18.24V16.24L33.8459 20.1516L34.4341 18.24ZM56.6341 18.24H58.6341V16.24H56.6341V18.24ZM56.6341 22.64V24.64H58.6341V22.64H56.6341ZM46.6341 29H44.6341V31H46.6341V29ZM46.6341 22.64L44.6354 22.5673L44.6341 22.6036V22.64H46.6341ZM46.7941 18.24L48.7927 18.3127L48.7941 18.2764V18.24H46.7941ZM46.7941 12.6V10.6H44.7941V12.6H46.7941ZM51.6741 12.6H53.6741V10.6H51.6741V12.6ZM51.6741 29V31H53.6741V29H51.6741ZM33.2741 22.64V19.04H29.2741V22.64H33.2741ZM32.8626 20.2552L46.6626 2.21516L43.4855 -0.215164L29.6855 17.8248L32.8626 20.2552ZM45.0741 3H50.6341V-1H45.0741V3ZM49.037 -0.203964L35.437 17.836L38.6311 20.244L52.2311 2.20396L49.037 -0.203964ZM37.6222 17.1284L35.0222 16.3284L33.8459 20.1516L36.4459 20.9516L37.6222 17.1284ZM34.4341 20.24H56.6341V16.24H34.4341V20.24ZM54.6341 18.24V22.64H58.6341V18.24H54.6341ZM56.6341 20.64H31.2741V24.64H56.6341V20.64ZM48.6341 29V22.64H44.6341V29H48.6341ZM48.6327 22.7127L48.7927 18.3127L44.7954 18.1673L44.6354 22.5673L48.6327 22.7127ZM48.7941 18.24V12.6H44.7941V18.24H48.7941ZM46.7941 14.6H51.6741V10.6H46.7941V14.6ZM49.6741 12.6V29H53.6741V12.6H49.6741ZM51.6741 27H46.6341V31H51.6741V27Z" fill="#D1BE99"/>
</svg>
