<svg width="32" height="32" viewBox="0 0 32 32" fill="none" xmlns="http://www.w3.org/2000/svg">
<path fill-rule="evenodd" clip-rule="evenodd" d="M3.42859 16.2428C3.42859 15.7458 3.83153 15.3428 4.32859 15.3428H27.6714C28.1685 15.3428 28.5714 15.7458 28.5714 16.2428C28.5714 16.7399 28.1685 17.1428 27.6714 17.1428H4.32859C3.83153 17.1428 3.42859 16.7399 3.42859 16.2428Z" fill="white"/>
<path fill-rule="evenodd" clip-rule="evenodd" d="M3.42859 8.24283C3.42859 7.74578 3.83153 7.34283 4.32859 7.34283H27.6714C28.1685 7.34283 28.5714 7.74578 28.5714 8.24283C28.5714 8.73989 28.1685 9.14283 27.6714 9.14283H4.32859C3.83153 9.14283 3.42859 8.73989 3.42859 8.24283Z" fill="white"/>
<path fill-rule="evenodd" clip-rule="evenodd" d="M3.42859 24.2428C3.42859 23.7458 3.83153 23.3428 4.32859 23.3428H27.6714C28.1685 23.3428 28.5714 23.7458 28.5714 24.2428C28.5714 24.7399 28.1685 25.1428 27.6714 25.1428H4.32859C3.83153 25.1428 3.42859 24.7399 3.42859 24.2428Z" fill="white"/>
</svg>
