<svg width="64" height="32" viewBox="0 0 64 32" fill="none" xmlns="http://www.w3.org/2000/svg">
<path fill-rule="evenodd" clip-rule="evenodd" d="M7.64916 29.4391C5.19696 28.1512 3.31879 26.3027 1.98394 23.9834L1.97918 23.9751C0.626435 21.5954 0 18.8055 0 15.6716C0 12.5407 0.625273 9.76068 1.98155 7.4022C3.31385 5.06011 5.19103 3.19516 7.64916 1.90418L7.66242 1.89721C10.1185 0.626557 12.8644 0 15.8396 0C18.8398 0 21.5931 0.624284 24.0301 1.90418C26.4851 3.19355 28.3607 5.05546 29.6927 7.39342C31.0839 9.75483 31.7255 12.5384 31.7255 15.6716C31.7255 18.8096 31.082 21.6043 29.6928 23.9878C28.3581 26.305 26.4807 28.152 24.0301 29.4391C21.5931 30.719 18.8398 31.3432 15.8396 31.3432C12.8644 31.3432 10.1185 30.7167 7.66245 29.446L7.64916 29.4391ZM27.6035 23.1634C28.8077 21.0994 29.4098 18.6021 29.4098 15.6716C29.4098 12.7412 28.8077 10.2566 27.6035 8.21805C26.4302 6.15398 24.8247 4.58682 22.7868 3.51656C20.749 2.4463 18.4332 1.91117 15.8396 1.91117C13.2769 1.91117 10.9611 2.4463 8.89242 3.51656C6.85457 4.58682 5.249 6.15398 4.07569 8.21805C2.90239 10.2566 2.31573 12.7412 2.31573 15.6716C2.31573 18.6021 2.90239 21.0994 4.07569 23.1634C5.249 25.202 6.85457 26.7564 8.89242 27.8267C10.9611 28.8969 13.2769 29.4321 15.8396 29.4321C18.4332 29.4321 20.749 28.8969 22.7868 27.8267C24.8247 26.7564 26.4302 25.202 27.6035 23.1634ZM19.7764 7.26246C20.8879 7.925 21.7525 8.95703 22.37 10.3586C23.0184 11.7346 23.3426 13.5056 23.3426 15.6716C23.3426 17.8121 23.0184 19.5832 22.37 20.9847C21.7525 22.3862 20.8879 23.431 19.7764 24.119C18.6648 24.7816 17.3526 25.1128 15.8396 25.1128C14.3884 25.1128 13.0916 24.7816 11.9492 24.119C10.8376 23.431 9.95765 22.3862 9.30925 20.9847C8.69172 19.5832 8.38296 17.8121 8.38296 15.6716C8.38296 13.5056 8.69172 11.7346 9.30925 10.3586C9.95765 8.95703 10.8376 7.925 11.9492 7.26246C13.0916 6.57444 14.3884 6.23043 15.8396 6.23043C17.3526 6.23043 18.6648 6.57444 19.7764 7.26246ZM11.4769 11.0312C10.991 12.1186 10.6987 13.64 10.6987 15.6716C10.6987 17.6697 10.9885 19.1962 11.4793 20.3174C12.0102 21.459 12.6538 22.1578 13.3107 22.5726C14.0397 22.9884 14.8586 23.2016 15.8396 23.2016C16.9095 23.2016 17.7304 22.9765 18.4033 22.5798C19.0558 22.1711 19.6885 21.4781 20.1937 20.3316L20.2 20.3172L20.2066 20.303C20.7212 19.1907 21.0269 17.6705 21.0269 15.6716C21.0269 13.6419 20.7195 12.1288 20.2117 11.0513L20.2024 11.0316L20.1937 11.0117C19.685 9.85721 19.0532 9.18893 18.4205 8.81181L18.4036 8.80173L18.3869 8.7914C17.7124 8.37386 16.8987 8.1416 15.8396 8.1416C14.8654 8.1416 14.0493 8.36357 13.3142 8.80629L13.305 8.81182C12.6626 9.19475 12.0149 9.87206 11.4769 11.0312ZM41.4639 30.4575L41.4452 30.4526C39.0664 29.8356 36.9798 28.9731 35.237 27.8344L33.708 26.8354L38.5227 19.5384L40.6855 20.9945C41.6185 21.6227 42.7917 22.1594 44.245 22.5819C45.6946 22.9946 47.1967 23.2016 48.7625 23.2016C50.5978 23.2016 51.7146 22.8807 52.3827 22.4707L52.3939 22.4638L52.4052 22.457C53.0454 22.074 53.3013 21.6531 53.3013 21.0229C53.3013 20.5286 53.1546 20.1717 52.9148 19.8806L52.8966 19.8586L52.8792 19.8362C52.7933 19.7254 52.4768 19.4392 51.4587 19.1792L51.4435 19.1753C50.5054 18.9298 49.0326 18.7677 46.9099 18.7677H46.7638L46.7443 18.9372L46.5154 18.7677H36.5378L37.3175 11.9581L37.4568 10.7408L37.7282 8.37094L37.7972 7.76825L38.6428 0.382234H47.6128H48.8742H62.1011V8.37094H47.9572L47.6852 10.7408H48.253C51.629 10.7408 54.5584 11.1107 56.9077 11.9683C59.2195 12.7764 61.0767 13.9763 62.2732 15.6337C63.4413 17.1845 64 18.937 64 20.8318C64 22.7159 63.4332 24.4792 62.2908 26.0818C61.1023 27.7494 59.3173 29.028 57.0759 29.9539C54.7705 30.9193 51.9898 31.3432 48.8551 31.3432C46.3478 31.3432 43.888 31.0492 41.4827 30.4621L41.4639 30.4575ZM60.2948 16.6272C59.3994 15.3786 57.9637 14.4102 55.9876 13.7222C54.0423 13.0087 51.4642 12.652 48.253 12.652H45.1397L45.8505 6.45977H59.7854V2.29341H40.75L39.0827 16.8566H46.9099C46.9344 16.8566 46.9588 16.8566 46.9831 16.8566C49.1713 16.8602 50.8914 17.0258 52.1434 17.3535C53.4403 17.6847 54.3357 18.1689 54.8297 18.8059C55.3546 19.443 55.617 20.182 55.617 21.0229C55.617 22.2715 54.9995 23.2654 53.7645 24.0043C52.5603 24.7433 50.8929 25.1128 48.7625 25.1128C46.9408 25.1128 45.1808 24.8707 43.4826 24.3866C42.6445 24.1432 41.8689 23.8612 41.1556 23.5406C40.4499 23.2234 39.8052 22.8683 39.2217 22.4754L36.6743 26.336C38.1564 27.3043 39.9781 28.0688 42.1395 28.6294C44.3317 29.1645 46.5702 29.4321 48.8551 29.4321C51.7575 29.4321 54.1504 29.0371 56.0339 28.2471C57.9482 27.4572 59.3685 26.4124 60.2948 25.1128C61.2211 23.8132 61.6843 22.3862 61.6843 20.8318C61.6843 19.2519 61.2211 17.8504 60.2948 16.6272Z" fill="#D1BE99"/>
</svg>
