<svg width="64" height="64" viewBox="0 0 64 64" fill="none" xmlns="http://www.w3.org/2000/svg">
<g clip-path="url(#clip0_491_182)">
<path fill-rule="evenodd" clip-rule="evenodd" d="M21.3335 39.6666C15.2584 39.6666 10.3335 44.5915 10.3335 50.6666C10.3335 56.7418 15.2584 61.6666 21.3335 61.6666C27.4086 61.6666 32.3335 56.7418 32.3335 50.6666C32.3335 44.5915 27.4086 39.6666 21.3335 39.6666ZM8.3335 50.6666C8.3335 43.4869 14.1538 37.6666 21.3335 37.6666C28.5132 37.6666 34.3335 43.4869 34.3335 50.6666C34.3335 57.8463 28.5132 63.6666 21.3335 63.6666C14.1538 63.6666 8.3335 57.8463 8.3335 50.6666Z" fill="#D1BE99"/>
<path fill-rule="evenodd" clip-rule="evenodd" d="M12.0973 37.7265C13.9808 37.5451 15.8813 37.777 17.6659 38.4062L17.001 40.2924C15.4909 39.7601 13.8828 39.5638 12.289 39.7173C10.6953 39.8708 9.15421 40.3704 7.77351 41.1812C6.39282 41.9921 5.20578 43.0945 4.29529 44.4116C3.38481 45.7287 2.77284 47.2287 2.50212 48.8068C2.2314 50.3849 2.30846 52.0031 2.72792 53.5483C3.14738 55.0936 3.89913 56.5286 4.93065 57.7532C5.96218 58.9778 7.24861 59.9625 8.70011 60.6384C10.1516 61.3143 11.7332 61.6653 13.3343 61.6666H21.3335V63.6666H13.3335C11.4412 63.665 9.57122 63.2503 7.85581 62.4515C6.14041 61.6526 4.62008 60.489 3.401 59.0417C2.18192 57.5944 1.2935 55.8985 0.797771 54.0723C0.302045 52.2461 0.210972 50.3337 0.530912 48.4686C0.850853 46.6036 1.57409 44.8309 2.65012 43.2743C3.72614 41.7178 5.12901 40.4149 6.76074 39.4566C8.39247 38.4984 10.2137 37.908 12.0973 37.7265Z" fill="#D1BE99"/>
<path fill-rule="evenodd" clip-rule="evenodd" d="M21.3333 2.33331C20.1841 2.33331 19.0819 2.78986 18.2692 3.60252C17.4565 4.41517 17 5.51737 17 6.66665V40H15V6.66665C15 4.98694 15.6673 3.37603 16.855 2.1883C18.0427 1.00057 19.6536 0.333313 21.3333 0.333313H57.3333C59.013 0.333313 60.6239 1.00057 61.8117 2.1883C62.9994 3.37603 63.6667 4.98694 63.6667 6.66665V57.3333C63.6667 59.013 62.9994 60.6239 61.8117 61.8117C60.6239 62.9994 59.013 63.6666 57.3333 63.6666H17.3333V61.6666H57.3333C58.4826 61.6666 59.5848 61.2101 60.3975 60.3974C61.2101 59.5848 61.6667 58.4826 61.6667 57.3333V6.66665C61.6667 5.51737 61.2101 4.41517 60.3975 3.60252C59.5848 2.78986 58.4826 2.33331 57.3333 2.33331H21.3333Z" fill="#D1BE99"/>
<path fill-rule="evenodd" clip-rule="evenodd" d="M25.3337 9C24.8916 9 24.4677 9.17559 24.1551 9.48816C23.8426 9.80072 23.667 10.2246 23.667 10.6667V38.6667H21.667V10.6667C21.667 9.69421 22.0533 8.76157 22.7409 8.07394C23.4286 7.38631 24.3612 7 25.3337 7H53.3337C54.3061 7 55.2388 7.38631 55.9264 8.07394C56.614 8.76158 57.0003 9.69421 57.0003 10.6667V53.3333C57.0003 54.3058 56.614 55.2384 55.9264 55.9261C55.2388 56.6137 54.3061 57 53.3337 57H32.0003V55H53.3337C53.7757 55 54.1996 54.8244 54.5122 54.5118C54.8247 54.1993 55.0003 53.7754 55.0003 53.3333V10.6667C55.0003 10.2246 54.8247 9.80071 54.5122 9.48816C54.1996 9.1756 53.7757 9 53.3337 9H25.3337Z" fill="#D1BE99"/>
<path fill-rule="evenodd" clip-rule="evenodd" d="M30.6667 17C29.7462 17 29 17.7462 29 18.6667C29 19.5871 29.7462 20.3333 30.6667 20.3333C31.5871 20.3333 32.3333 19.5871 32.3333 18.6667C32.3333 17.7462 31.5871 17 30.6667 17ZM27 18.6667C27 16.6416 28.6416 15 30.6667 15C32.6917 15 34.3333 16.6416 34.3333 18.6667C34.3333 20.6917 32.6917 22.3333 30.6667 22.3333C28.6416 22.3333 27 20.6917 27 18.6667Z" fill="#D1BE99"/>
<path fill-rule="evenodd" clip-rule="evenodd" d="M36.0002 17C35.0797 17 34.3335 17.7462 34.3335 18.6667C34.3335 19.5871 35.0797 20.3333 36.0002 20.3333C36.9206 20.3333 37.6668 19.5871 37.6668 18.6667C37.6668 17.7462 36.9206 17 36.0002 17ZM32.3335 18.6667C32.3335 16.6416 33.9751 15 36.0002 15C38.0252 15 39.6668 16.6416 39.6668 18.6667C39.6668 20.6917 38.0252 22.3333 36.0002 22.3333C33.9751 22.3333 32.3335 20.6917 32.3335 18.6667Z" fill="#D1BE99"/>
<path fill-rule="evenodd" clip-rule="evenodd" d="M41.3337 17C40.4132 17 39.667 17.7462 39.667 18.6667C39.667 19.5871 40.4132 20.3333 41.3337 20.3333C42.2541 20.3333 43.0003 19.5871 43.0003 18.6667C43.0003 17.7462 42.2541 17 41.3337 17ZM37.667 18.6667C37.667 16.6416 39.3086 15 41.3337 15C43.3587 15 45.0003 16.6416 45.0003 18.6667C45.0003 20.6917 43.3587 22.3333 41.3337 22.3333C39.3086 22.3333 37.667 20.6917 37.667 18.6667Z" fill="#D1BE99"/>
<path fill-rule="evenodd" clip-rule="evenodd" d="M42.6667 30.3333C41.7462 30.3333 41 31.0795 41 32C41 32.9205 41.7462 33.6666 42.6667 33.6666C43.5871 33.6666 44.3333 32.9205 44.3333 32C44.3333 31.0795 43.5871 30.3333 42.6667 30.3333ZM39 32C39 29.9749 40.6416 28.3333 42.6667 28.3333C44.6917 28.3333 46.3333 29.9749 46.3333 32C46.3333 34.025 44.6917 35.6666 42.6667 35.6666C40.6416 35.6666 39 34.025 39 32Z" fill="#D1BE99"/>
<path fill-rule="evenodd" clip-rule="evenodd" d="M48.0002 30.3333C47.0797 30.3333 46.3335 31.0795 46.3335 32C46.3335 32.9205 47.0797 33.6666 48.0002 33.6666C48.9206 33.6666 49.6668 32.9205 49.6668 32C49.6668 31.0795 48.9206 30.3333 48.0002 30.3333ZM44.3335 32C44.3335 29.9749 45.9751 28.3333 48.0002 28.3333C50.0252 28.3333 51.6668 29.9749 51.6668 32C51.6668 34.025 50.0252 35.6666 48.0002 35.6666C45.9751 35.6666 44.3335 34.025 44.3335 32Z" fill="#D1BE99"/>
<path fill-rule="evenodd" clip-rule="evenodd" d="M36.0002 43.6666C35.0797 43.6666 34.3335 44.4128 34.3335 45.3333C34.3335 46.2538 35.0797 47 36.0002 47C36.9206 47 37.6668 46.2538 37.6668 45.3333C37.6668 44.4128 36.9206 43.6666 36.0002 43.6666ZM32.3335 45.3333C32.3335 43.3082 33.9751 41.6666 36.0002 41.6666C38.0252 41.6666 39.6668 43.3082 39.6668 45.3333C39.6668 47.3583 38.0252 49 36.0002 49C33.9751 49 32.3335 47.3583 32.3335 45.3333Z" fill="#D1BE99"/>
<path fill-rule="evenodd" clip-rule="evenodd" d="M41.3337 43.6666C40.4132 43.6666 39.667 44.4128 39.667 45.3333C39.667 46.2538 40.4132 47 41.3337 47C42.2541 47 43.0003 46.2538 43.0003 45.3333C43.0003 44.4128 42.2541 43.6666 41.3337 43.6666ZM37.667 45.3333C37.667 43.3082 39.3086 41.6666 41.3337 41.6666C43.3587 41.6666 45.0003 43.3082 45.0003 45.3333C45.0003 47.3583 43.3587 49 41.3337 49C39.3086 49 37.667 47.3583 37.667 45.3333Z" fill="#D1BE99"/>
<path fill-rule="evenodd" clip-rule="evenodd" d="M22.667 17.6666H28.0003V19.6666H22.667V17.6666ZM56.0003 19.6666H44.0003V17.6666H56.0003V19.6666ZM22.667 31H40.0003V33H22.667V31ZM56.0003 33H50.667V31H56.0003V33ZM56.0003 46.3333H44.0003V44.3333H56.0003V46.3333Z" fill="#D1BE99"/>
</g>
<defs>
<clipPath id="clip0_491_182">
<rect width="64" height="64" fill="white"/>
</clipPath>
</defs>
</svg>
