<svg width="64" height="64" viewBox="0 0 64 64" fill="none" xmlns="http://www.w3.org/2000/svg">
<g clip-path="url(#clip0_481_93)">
<path fill-rule="evenodd" clip-rule="evenodd" d="M33.3333 53C32.1841 53 31.0819 53.4565 30.2692 54.2692C29.4565 55.0819 29 56.1841 29 57.3333V61.6667H61.6667V57.3333C61.6667 56.1841 61.2101 55.0819 60.3975 54.2692C59.5848 53.4565 58.4826 53 57.3333 53H49.3333V51H57.3333C59.013 51 60.6239 51.6673 61.8117 52.855C62.9994 54.0427 63.6667 55.6536 63.6667 57.3333V62.6667C63.6667 63.219 63.219 63.6667 62.6667 63.6667H28C27.4477 63.6667 27 63.219 27 62.6667V57.3333C27 55.6536 27.6673 54.0427 28.855 52.855C30.0427 51.6673 31.6536 51 33.3333 51H46.6667V53H33.3333Z" fill="#D1BE99"/>
<path fill-rule="evenodd" clip-rule="evenodd" d="M41.6668 45.7461V38.6667H43.6668V45.6667H47.0002V38.6667H49.0002V45.7461C50.3093 45.9554 51.5291 46.5723 52.4785 47.5217C53.6662 48.7094 54.3335 50.3203 54.3335 52V54.6667C54.3335 55.6391 53.9472 56.5718 53.2596 57.2594C52.5719 57.947 51.6393 58.3334 50.6668 58.3334H40.0002C39.0277 58.3334 38.0951 57.947 37.4074 57.2594C36.7198 56.5718 36.3335 55.6391 36.3335 54.6667V52C36.3335 50.3203 37.0008 48.7094 38.1885 47.5217C39.1379 46.5723 40.3577 45.9554 41.6668 45.7461ZM42.6668 47.6667C41.5176 47.6667 40.4154 48.1232 39.6027 48.9359C38.79 49.7485 38.3335 50.8507 38.3335 52V54.6667C38.3335 55.1087 38.5091 55.5326 38.8217 55.8452C39.1342 56.1578 39.5581 56.3334 40.0002 56.3334H50.6668C51.1089 56.3334 51.5328 56.1578 51.8453 55.8452C52.1579 55.5326 52.3335 55.1087 52.3335 54.6667V52C52.3335 50.8507 51.8769 49.7485 51.0643 48.9359C50.2516 48.1232 49.1494 47.6667 48.0002 47.6667H42.6668Z" fill="#D1BE99"/>
<path fill-rule="evenodd" clip-rule="evenodd" d="M45.3337 27.6667C42.204 27.6667 39.667 30.2037 39.667 33.3334C39.667 36.463 42.204 39 45.3337 39C48.4633 39 51.0003 36.463 51.0003 33.3334C51.0003 30.2037 48.4633 27.6667 45.3337 27.6667ZM37.667 33.3334C37.667 29.0992 41.0995 25.6667 45.3337 25.6667C49.5678 25.6667 53.0003 29.0992 53.0003 33.3334C53.0003 37.5675 49.5678 41 45.3337 41C41.0995 41 37.667 37.5675 37.667 33.3334Z" fill="#D1BE99"/>
<path fill-rule="evenodd" clip-rule="evenodd" d="M45.3335 29.6667C46.306 29.6667 47.2386 30.053 47.9262 30.7406C48.6139 31.4283 49.0002 32.3609 49.0002 33.3334H47.0002C47.0002 32.8913 46.8246 32.4674 46.512 32.1548C46.1994 31.8423 45.7755 31.6667 45.3335 31.6667V29.6667Z" fill="#D1BE99"/>
<path fill-rule="evenodd" clip-rule="evenodd" d="M21.3335 2.33334C19.6766 2.33334 18.3335 3.67649 18.3335 5.33334C18.3335 6.9902 19.6766 8.33334 21.3335 8.33334C22.9904 8.33334 24.3335 6.9902 24.3335 5.33334C24.3335 3.67649 22.9904 2.33334 21.3335 2.33334ZM16.3335 5.33334C16.3335 2.57192 18.5721 0.333344 21.3335 0.333344C24.0949 0.333344 26.3335 2.57192 26.3335 5.33334C26.3335 8.09477 24.0949 10.3333 21.3335 10.3333C18.5721 10.3333 16.3335 8.09477 16.3335 5.33334Z" fill="#D1BE99"/>
<path fill-rule="evenodd" clip-rule="evenodd" d="M8 15.6667C6.34315 15.6667 5 17.0098 5 18.6667C5 20.3235 6.34315 21.6667 8 21.6667C9.65685 21.6667 11 20.3235 11 18.6667C11 17.0098 9.65685 15.6667 8 15.6667ZM3 18.6667C3 15.9053 5.23858 13.6667 8 13.6667C10.7614 13.6667 13 15.9053 13 18.6667C13 21.4281 10.7614 23.6667 8 23.6667C5.23858 23.6667 3 21.4281 3 18.6667Z" fill="#D1BE99"/>
<path fill-rule="evenodd" clip-rule="evenodd" d="M7.29297 13.9596L16.6263 4.62625L18.0405 6.04046L8.70718 15.3738L7.29297 13.9596ZM11.293 17.9596L20.6263 8.62625L22.0405 10.0405L12.7072 19.3738L11.293 17.9596Z" fill="#D1BE99"/>
<path fill-rule="evenodd" clip-rule="evenodd" d="M34.667 15.6667C33.0101 15.6667 31.667 17.0098 31.667 18.6667C31.667 20.3235 33.0101 21.6667 34.667 21.6667C36.3238 21.6667 37.667 20.3235 37.667 18.6667C37.667 17.0098 36.3238 15.6667 34.667 15.6667ZM29.667 18.6667C29.667 15.9053 31.9056 13.6667 34.667 13.6667C37.4284 13.6667 39.667 15.9053 39.667 18.6667C39.667 21.4281 37.4284 23.6667 34.667 23.6667C31.9056 23.6667 29.667 21.4281 29.667 18.6667Z" fill="#D1BE99"/>
<path fill-rule="evenodd" clip-rule="evenodd" d="M33.9597 15.3738L24.6264 6.04046L26.0406 4.62625L35.3739 13.9596L33.9597 15.3738ZM34.6668 5.66669C38.1146 5.66669 41.4212 7.03633 43.8592 9.4743C46.2972 11.9123 47.6668 15.2189 47.6668 18.6667H45.6668C45.6668 15.7493 44.5079 12.9514 42.445 10.8885C40.3821 8.82562 37.5842 7.66669 34.6668 7.66669V5.66669ZM29.9597 19.3738L20.6264 10.0405L22.0406 8.62625L31.3739 17.9596L29.9597 19.3738ZM34.6668 9.66669C37.0538 9.66669 39.343 10.6149 41.0308 12.3027C42.7186 13.9906 43.6668 16.2797 43.6668 18.6667H41.6668C41.6668 16.8102 40.9293 15.0297 39.6166 13.7169C38.3038 12.4042 36.5233 11.6667 34.6668 11.6667V9.66669ZM4.3335 28.3334H4.00016C3.44788 28.3334 3.00016 28.7811 3.00016 29.3334V37.8057C2.40343 37.9749 1.85381 38.2943 1.40744 38.7406C0.719805 39.4283 0.333496 40.3609 0.333496 41.3334V60C0.333496 60.9725 0.719804 61.9051 1.40744 62.5928C2.09507 63.2804 3.0277 63.6667 4.00016 63.6667H28.0002V61.6667H4.00016C3.55813 61.6667 3.13421 61.4911 2.82165 61.1785C2.50909 60.866 2.3335 60.4421 2.3335 60V55.6667H28.0002V53.6667H15.6668V41.3334C15.6668 40.3609 15.2805 39.4283 14.5929 38.7406C14.1465 38.2943 13.5969 37.9749 13.0002 37.8057V29.3334C13.0002 28.7811 12.5524 28.3334 12.0002 28.3334H11.6668V21.3334H9.66683V28.3334H6.3335V21.3334H4.3335V28.3334ZM11.0002 30.3334H5.00016V37.6667H11.0002V30.3334ZM13.6668 53.6667V41.3334C13.6668 40.8913 13.4912 40.4674 13.1787 40.1548C12.8661 39.8423 12.4422 39.6667 12.0002 39.6667H4.00016C3.55814 39.6667 3.13421 39.8423 2.82165 40.1548C2.50909 40.4674 2.3335 40.8913 2.3335 41.3334V53.6667H13.6668ZM32.3335 25.3334V22.6667H34.3335V24.3334H35.0002V22.6667H37.0002V25.3334C37.0002 25.8856 36.5524 26.3334 36.0002 26.3334H35.6668V29.3334H33.6668V26.3334H33.3335C32.7812 26.3334 32.3335 25.8856 32.3335 25.3334ZM8.00016 45H5.3335V43H8.00016V45ZM8.00016 50.3334H5.3335V48.3334H8.00016V50.3334Z" fill="#D1BE99"/>
<path fill-rule="evenodd" clip-rule="evenodd" d="M34.6668 1.66669C39.1755 1.66669 43.4995 3.45775 46.6876 6.64587C49.8758 9.83399 51.6668 14.158 51.6668 18.6667H49.6668C49.6668 14.6884 48.0865 10.8731 45.2734 8.06009C42.4604 5.24704 38.6451 3.66669 34.6668 3.66669V1.66669ZM25.3335 28.3334H28.0002V30.3334H25.3335V28.3334ZM28.0002 31H30.6668V33H28.0002V31ZM25.3335 33.6667H28.0002V35.6667H25.3335V33.6667Z" fill="#D1BE99"/>
</g>
<defs>
<clipPath id="clip0_481_93">
<rect width="64" height="64" fill="white"/>
</clipPath>
</defs>
</svg>
