<svg width="64" height="64" viewBox="0 0 64 64" fill="none" xmlns="http://www.w3.org/2000/svg">
<g clip-path="url(#clip0_540_105)">
<path d="M56.8725 4.13094H49.2024V1.84968C49.2024 1.32992 48.7815 0.908508 48.2613 0.908508C47.741 0.908508 47.3201 1.32992 47.3201 1.84968V4.13094H16.6804V1.84968C16.6804 1.32992 16.2594 0.908508 15.7392 0.908508C15.219 0.908508 14.798 1.32992 14.798 1.84968V4.13094H7.12798C3.71714 4.13094 0.941406 6.90621 0.941406 10.318C0.941406 25.7828 0.941406 42.8219 0.941406 56.9044C0.941406 60.3161 3.71714 63.0914 7.12798 63.0914H56.8725C60.2833 63.0914 63.0591 60.3161 63.0591 56.9044C63.0591 42.8216 63.0591 25.7823 63.0591 10.318C63.0591 6.90621 60.2833 4.13094 56.8725 4.13094ZM7.12798 6.01329H14.798V7.9011C12.7047 8.33705 11.1261 10.1953 11.1261 12.4163C11.1261 14.96 13.196 17.0294 15.7392 17.0294C18.2824 17.0294 20.3522 14.96 20.3522 12.4163C20.3522 10.1953 18.7737 8.33704 16.6804 7.9011V6.01329H47.3201V7.9011C45.2267 8.33705 43.6482 10.1953 43.6482 12.4163C43.6482 14.96 45.7181 17.0294 48.2613 17.0294C50.8045 17.0294 52.8743 14.96 52.8743 12.4163C52.8743 10.1953 51.2958 8.33704 49.2024 7.9011V6.01329H56.8725C59.2456 6.01329 61.1767 7.94436 61.1767 10.318V18.7274H2.82376V10.318C2.82376 7.94436 4.75483 6.01329 7.12798 6.01329ZM15.7392 13.3575C16.2594 13.3575 16.6804 12.9361 16.6804 12.4163V9.86307C17.7217 10.2485 18.4699 11.2428 18.4699 12.4163C18.4699 13.9218 17.2447 15.147 15.7392 15.147C14.2337 15.147 13.0085 13.9218 13.0085 12.4163C13.0085 11.2428 13.7567 10.2485 14.798 9.86307V12.4163C14.798 12.9361 15.219 13.3575 15.7392 13.3575ZM48.2613 13.3575C48.7815 13.3575 49.2024 12.9361 49.2024 12.4163V9.86307C50.2437 10.2485 50.992 11.2428 50.992 12.4163C50.992 13.9218 49.7668 15.147 48.2613 15.147C46.7557 15.147 45.5306 13.9218 45.5306 12.4163C45.5306 11.2428 46.2788 10.2485 47.3201 9.86307V12.4163C47.3201 12.9361 47.741 13.3575 48.2613 13.3575ZM56.8725 61.2091H7.12798C4.75483 61.2091 2.82376 59.278 2.82376 56.9044V20.7013H61.1767V56.9044C61.1767 59.278 59.2456 61.2091 56.8725 61.2091Z" fill="#D1BE99"/>
<path d="M41.2995 23.988H35.9889C34.9512 23.988 34.1065 24.8322 34.1065 25.8704V31.1806C34.1065 32.2187 34.9512 33.0629 35.9889 33.0629H41.2995C42.3372 33.0629 43.1819 32.2187 43.1819 31.1806V25.8704C43.1819 24.8322 42.3372 23.988 41.2995 23.988ZM35.9889 31.1806V25.8704H41.2995L41.3004 31.1806H35.9889ZM54.5881 23.988H49.2775C48.2398 23.988 47.3951 24.8322 47.3951 25.8704V31.1806C47.3951 32.2187 48.2398 33.0629 49.2775 33.0629H54.5881C55.6258 33.0629 56.4705 32.2187 56.4705 31.1806V25.8704C56.4705 24.8322 55.6258 23.988 54.5881 23.988ZM49.2775 31.1806V25.8704H54.5881L54.589 31.1806H49.2775ZM14.7223 36.3718H9.41165C8.37397 36.3718 7.5293 37.216 7.5293 38.2541V43.5648C7.5293 44.6029 8.37397 45.4471 9.41165 45.4471H14.7223C15.76 45.4471 16.6047 44.6029 16.6047 43.5648V38.2541C16.6047 37.216 15.76 36.3718 14.7223 36.3718ZM9.41165 43.5648V38.2541H14.7223L14.7232 43.5648H9.41165ZM28.0109 36.3718H22.7003C21.6626 36.3718 20.8179 37.216 20.8179 38.2541V43.5648C20.8179 44.6029 21.6626 45.4471 22.7003 45.4471H28.0109C29.0486 45.4471 29.8933 44.6029 29.8933 43.5648V38.2541C29.8933 37.216 29.0486 36.3718 28.0109 36.3718ZM22.7003 43.5648V38.2541H28.0109L28.0118 43.5648H22.7003ZM41.2995 36.3718H35.9889C34.9512 36.3718 34.1065 37.216 34.1065 38.2541V43.5648C34.1065 44.6029 34.9512 45.4471 35.9889 45.4471H41.2995C42.3372 45.4471 43.1819 44.6029 43.1819 43.5648V38.2541C43.1819 37.216 42.3372 36.3718 41.2995 36.3718ZM35.9889 43.5648V38.2541H41.2995L41.3004 43.5648H35.9889ZM54.5881 36.3718H49.2775C48.2398 36.3718 47.3951 37.216 47.3951 38.2541V43.5648C47.3951 44.6029 48.2398 45.4471 49.2775 45.4471H54.5881C55.6258 45.4471 56.4705 44.6029 56.4705 43.5648V38.2541C56.4705 37.216 55.6258 36.3718 54.5881 36.3718ZM49.2775 43.5648V38.2541H54.5881L54.589 43.5648H49.2775ZM14.7223 48.756H9.41165C8.37397 48.756 7.5293 49.6002 7.5293 50.6383V55.9485C7.5293 56.9867 8.37397 57.8309 9.41165 57.8309H14.7223C15.76 57.8309 16.6047 56.9867 16.6047 55.9485V50.6383C16.6047 49.6002 15.76 48.756 14.7223 48.756ZM9.41165 55.9485V50.6383H14.7223L14.7232 55.9485H9.41165ZM28.0109 48.756H22.7003C21.6626 48.756 20.8179 49.6002 20.8179 50.6383V55.9485C20.8179 56.9867 21.6626 57.8309 22.7003 57.8309H28.0109C29.0486 57.8309 29.8933 56.9867 29.8933 55.9485V50.6383C29.8933 49.6002 29.0486 48.756 28.0109 48.756ZM22.7003 55.9485V50.6383H28.0109L28.0118 55.9485H22.7003ZM41.2995 48.756H35.9889C34.9512 48.756 34.1065 49.6002 34.1065 50.6383V55.9485C34.1065 56.9867 34.9512 57.8309 35.9889 57.8309H41.2995C42.3372 57.8309 43.1819 56.9867 43.1819 55.9485V50.6383C43.1819 49.6002 42.3372 48.756 41.2995 48.756ZM35.9889 55.9485V50.6383H41.2995L41.3004 55.9485H35.9889ZM54.5881 48.756H49.2775C48.2398 48.756 47.3951 49.6002 47.3951 50.6383V55.9485C47.3951 56.9867 48.2398 57.8309 49.2775 57.8309H54.5881C55.6258 57.8309 56.4705 56.9867 56.4705 55.9485V50.6383C56.4705 49.6002 55.6258 48.756 54.5881 48.756ZM49.2775 55.9485V50.6383H54.5881L54.589 55.9485H49.2775ZM33.8023 13.3575H39.0587C39.5789 13.3575 39.9999 12.9361 39.9999 12.4163C39.9999 11.8966 39.5789 11.4752 39.0587 11.4752H33.8023C33.2821 11.4752 32.8611 11.8966 32.8611 12.4163C32.8611 12.9361 33.282 13.3575 33.8023 13.3575ZM24.9411 13.3575H29.2986C29.8188 13.3575 30.2398 12.9361 30.2398 12.4163C30.2398 11.8966 29.8188 11.4752 29.2986 11.4752H24.9411C24.4208 11.4752 23.9999 11.8966 23.9999 12.4163C23.9999 12.9361 24.4208 13.3575 24.9411 13.3575Z" fill="#D1BE99"/>
</g>
<defs>
<clipPath id="clip0_540_105">
<rect width="64" height="64" fill="white"/>
</clipPath>
</defs>
</svg>
