<svg width="22" height="22" viewBox="0 0 22 22" fill="none" xmlns="http://www.w3.org/2000/svg">
<path fill-rule="evenodd" clip-rule="evenodd" d="M0.363579 0.363579C0.715051 0.0121076 1.2849 0.0121076 1.63637 0.363579L11 9.72718L20.3636 0.363579C20.7151 0.0121076 21.2849 0.0121076 21.6364 0.363579C21.9878 0.715051 21.9878 1.2849 21.6364 1.63637L12.2728 11L21.6364 20.3636C21.9878 20.7151 21.9878 21.2849 21.6364 21.6364C21.2849 21.9878 20.7151 21.9878 20.3636 21.6364L11 12.2728L1.63637 21.6364C1.2849 21.9878 0.715051 21.9878 0.363579 21.6364C0.0121076 21.2849 0.0121076 20.7151 0.363579 20.3636L9.72718 11L0.363579 1.63637C0.0121076 1.2849 0.0121076 0.715051 0.363579 0.363579Z" fill="#474350"/>
</svg>
