<?xml version="1.0" encoding="utf-8"?><svg viewBox="0 0 68 64" xmlns="http://www.w3.org/2000/svg" xmlns:xlink="http://www.w3.org/1999/xlink"><style>:root>svg{display:none}:root>svg:target{display:block}</style><svg viewBox="0 0 32 64" id="icon-001" xmlns="http://www.w3.org/2000/svg"><text y="16">01</text></svg><svg viewBox="0 0 50 33" id="icon-01" xmlns="http://www.w3.org/2000/svg"><path fill-rule="evenodd" clip-rule="evenodd" d="M7.414 30.582c-2.377-1.315-4.197-3.202-5.491-5.57l-.005-.008C.608 22.574 0 19.726 0 16.526c0-3.196.606-6.034 1.92-8.442C3.213 5.693 5.032 3.788 7.415 2.47l.012-.007C9.806 1.166 12.468.526 15.352.526c2.908 0 5.576.638 7.938 1.944 2.38 1.317 4.197 3.218 5.488 5.605 1.349 2.41 1.97 5.253 1.97 8.451 0 3.204-.623 6.057-1.97 8.49-1.293 2.367-3.113 4.252-5.488 5.566-2.362 1.307-5.03 1.944-7.938 1.944-2.884 0-5.545-.64-7.926-1.937l-.012-.007zm19.34-6.407c1.166-2.107 1.75-4.657 1.75-7.649s-.584-5.528-1.75-7.61c-1.138-2.107-2.694-3.707-4.669-4.8-1.975-1.092-4.22-1.638-6.733-1.638-2.484 0-4.728.546-6.733 1.639-1.976 1.092-3.532 2.692-4.669 4.8-1.137 2.08-1.706 4.617-1.706 7.61 0 2.991.569 5.54 1.706 7.648 1.137 2.081 2.693 3.668 4.669 4.761 2.005 1.093 4.249 1.64 6.733 1.64 2.514 0 4.758-.547 6.733-1.64 1.975-1.093 3.531-2.68 4.668-4.76zM19.166 7.941c1.078.676 1.916 1.73 2.514 3.161.628 1.405.943 3.213.943 5.424 0 2.186-.314 3.994-.943 5.425-.598 1.43-1.436 2.497-2.514 3.2-1.077.676-2.349 1.014-3.815 1.014-1.407 0-2.664-.338-3.77-1.014-1.078-.703-1.931-1.77-2.56-3.2-.598-1.431-.897-3.24-.897-5.425 0-2.211.299-4.02.898-5.424.628-1.43 1.48-2.485 2.558-3.161 1.107-.702 2.364-1.054 3.77-1.054 1.467 0 2.739.352 3.816 1.054zm-8.044 3.848c-.47 1.11-.754 2.663-.754 4.737 0 2.04.281 3.599.757 4.744.514 1.165 1.138 1.878 1.775 2.302.706.424 1.5.642 2.45.642 1.038 0 1.833-.23 2.486-.635.632-.417 1.245-1.125 1.735-2.295l.006-.015.006-.014c.499-1.136.795-2.688.795-4.729 0-2.072-.298-3.617-.79-4.717l-.009-.02-.008-.02c-.493-1.179-1.105-1.861-1.719-2.246l-.016-.01-.016-.011c-.654-.426-1.443-.663-2.47-.663-.943 0-1.734.226-2.447.678l-.009.006c-.622.39-1.25 1.082-1.772 2.266zm28.553 20.347V9.073h-6.644V.917H50v31.22H39.676zm-4.4-29.268V7.12h6.644v23.064h5.836V2.868h-12.48z"/></svg><svg viewBox="0 0 64 32" id="icon-02" xmlns="http://www.w3.org/2000/svg"><path fill-rule="evenodd" clip-rule="evenodd" d="M7.666 30.056c-2.458-1.315-4.34-3.202-5.678-5.57l-.005-.009C.628 22.047 0 19.2 0 16c0-3.197.627-6.035 1.986-8.443 1.335-2.39 3.216-4.295 5.68-5.613l.013-.007C10.14.64 12.892 0 15.874 0c3.006 0 5.766.637 8.208 1.944 2.46 1.316 4.34 3.217 5.675 5.604C31.15 9.96 31.794 12.801 31.794 16c0 3.204-.645 6.057-2.037 8.49-1.338 2.366-3.22 4.252-5.675 5.566C21.64 31.363 18.88 32 15.874 32c-2.982 0-5.734-.64-8.195-1.937l-.013-.007zm19.997-6.407c1.207-2.108 1.81-4.657 1.81-7.649s-.603-5.528-1.81-7.61c-1.176-2.107-2.785-3.707-4.827-4.8-2.042-1.092-4.363-1.639-6.962-1.639-2.569 0-4.89.547-6.962 1.64-2.043 1.092-3.652 2.692-4.828 4.8C2.91 10.47 2.321 13.007 2.321 16s.588 5.541 1.763 7.649c1.176 2.081 2.785 3.668 4.828 4.76 2.073 1.093 4.393 1.64 6.962 1.64 2.599 0 4.92-.547 6.962-1.64 2.042-1.092 3.651-2.679 4.827-4.76zM19.82 7.415c1.114.676 1.98 1.73 2.6 3.16.65 1.405.974 3.214.974 5.425 0 2.185-.325 3.994-.975 5.424-.619 1.431-1.485 2.498-2.599 3.2-1.114.677-2.429 1.015-3.945 1.015-1.455 0-2.754-.338-3.899-1.015-1.114-.702-1.996-1.769-2.646-3.2-.619-1.43-.928-3.239-.928-5.424 0-2.211.31-4.02.928-5.424.65-1.431 1.532-2.485 2.646-3.161 1.145-.703 2.444-1.054 3.899-1.054 1.516 0 2.831.351 3.945 1.054zm-8.317 3.847c-.487 1.11-.78 2.664-.78 4.738 0 2.04.29 3.598.782 4.743.532 1.166 1.177 1.88 1.835 2.303.731.424 1.552.642 2.535.642 1.072 0 1.895-.23 2.57-.635.653-.417 1.287-1.125 1.793-2.295l.007-.015.006-.015c.516-1.135.822-2.687.822-4.728 0-2.072-.308-3.617-.817-4.717l-.009-.02-.009-.02c-.51-1.18-1.143-1.862-1.777-2.247l-.017-.01-.016-.01c-.676-.427-1.492-.664-2.553-.664-.976 0-1.794.227-2.531.679l-.01.005c-.643.391-1.292 1.083-1.831 2.266zM35.409 31.61v-6.184L49.04 14.54c1.023-.81 1.693-1.455 2.086-1.94.426-.528.614-.907.683-1.15l.008-.031.01-.031c.142-.437.197-.796.197-1.087 0-.747-.269-1.104-.647-1.355l-.017-.01-.017-.012c-.443-.305-1.33-.613-3.032-.613-1.296 0-2.416.19-3.393.541a6.39 6.39 0 00-2.416 1.586l-1.425 1.477-7.829-5.063 1.366-1.541c1.532-1.728 3.568-3.035 6.034-3.938C43.144.446 45.88 0 48.822 0c2.593 0 4.963.357 7.05 1.137 2.106.749 3.826 1.866 5.036 3.388 1.254 1.536 1.839 3.322 1.839 5.27 0 1.059-.167 2.111-.495 3.153l-.002.007-.003.007c-.362 1.117-1.019 2.222-1.894 3.31-.898 1.119-2.153 2.305-3.705 3.556l-.008.006-4.483 3.58H64v8.196H35.409zm10.934-6.244l8.699-6.947c1.485-1.196 2.615-2.276 3.388-3.239.774-.962 1.3-1.873 1.578-2.731.279-.885.418-1.77.418-2.654 0-1.613-.48-3.005-1.439-4.175-.928-1.171-2.274-2.069-4.038-2.693-1.733-.65-3.775-.976-6.127-.976-2.66 0-5.074.403-7.24 1.21-1.351.494-2.53 1.118-3.533 1.872a10.7 10.7 0 00-1.573 1.445L40.7 9.21a8.706 8.706 0 013.295-2.147c1.3-.468 2.739-.702 4.317-.702 1.98 0 3.48.351 4.502 1.054 1.021.676 1.532 1.639 1.532 2.887 0 .495-.093 1.028-.279 1.6-.154.547-.495 1.145-1.02 1.796-.527.65-1.331 1.404-2.414 2.263L37.729 26.263v3.395h23.95v-4.292H46.343z"/></svg><svg viewBox="0 0 64 32" id="icon-03" xmlns="http://www.w3.org/2000/svg"><path fill-rule="evenodd" clip-rule="evenodd" d="M7.772 30.056c-2.492-1.315-4.4-3.202-5.756-5.57l-.005-.009C.636 22.047 0 19.2 0 16c0-3.197.635-6.035 2.013-8.443 1.354-2.39 3.261-4.295 5.759-5.613l.013-.007C10.28.64 13.07 0 16.093 0c3.048 0 5.846.637 8.322 1.944 2.494 1.316 4.4 3.217 5.753 5.604C31.58 9.96 32.233 12.801 32.233 16c0 3.204-.654 6.057-2.065 8.49-1.356 2.366-3.264 4.252-5.753 5.566C21.939 31.363 19.14 32 16.093 32c-3.023 0-5.813-.64-8.308-1.937l-.013-.007zm20.273-6.407C29.27 21.54 29.88 18.992 29.88 16s-.611-5.528-1.835-7.61c-1.192-2.107-2.823-3.707-4.894-4.8-2.07-1.092-4.423-1.639-7.058-1.639-2.604 0-4.956.547-7.058 1.64-2.07 1.092-3.702 2.692-4.894 4.8C2.949 10.47 2.353 13.007 2.353 16s.596 5.541 1.788 7.649c1.192 2.081 2.823 3.668 4.894 4.76 2.102 1.093 4.454 1.64 7.058 1.64 2.635 0 4.988-.547 7.058-1.64 2.07-1.092 3.702-2.679 4.894-4.76zM20.093 7.415c1.13.676 2.008 1.73 2.635 3.16.659 1.405.988 3.214.988 5.425 0 2.185-.33 3.994-.988 5.424-.627 1.431-1.506 2.498-2.635 3.2-1.13.677-2.463 1.015-4 1.015-1.474 0-2.792-.338-3.953-1.015-1.129-.702-2.023-1.769-2.682-3.2-.627-1.43-.94-3.239-.94-5.424 0-2.211.313-4.02.94-5.424.659-1.431 1.553-2.485 2.682-3.161 1.161-.703 2.479-1.054 3.953-1.054 1.537 0 2.87.351 4 1.054zm-8.432 3.847c-.494 1.11-.791 2.664-.791 4.738 0 2.04.294 3.598.793 4.743.54 1.166 1.193 1.88 1.86 2.303.741.424 1.573.642 2.57.642 1.087 0 1.921-.23 2.605-.635.663-.417 1.306-1.125 1.819-2.295l.006-.015.007-.015c.523-1.135.833-2.687.833-4.728 0-2.072-.312-3.617-.828-4.717l-.01-.02-.008-.02c-.517-1.18-1.159-1.862-1.802-2.247l-.017-.01-.017-.01c-.685-.427-1.512-.664-2.588-.664-.99 0-1.819.227-2.566.679l-.009.005c-.653.391-1.31 1.083-1.857 2.266zm29.442 19.834l-.019-.005c-2.417-.63-4.537-1.51-6.307-2.673L33.21 27.39l4.968-7.43 2.18 1.474c.95.643 2.144 1.191 3.623 1.623 1.436.419 2.944.63 4.537.63 1.904 0 3.06-.317 3.74-.716.61-.38.871-.81.871-1.469 0-.683-.263-1.088-.786-1.425-.505-.326-1.675-.682-4.014-.682h-5.364v-5.963l1.77-1.92 3.006-2.966H35.484V.39h27.151v6.058l-6.091 6.012c1.357.435 2.57 1.031 3.61 1.81C62.717 16.14 64 18.592 64 21.463c0 1.885-.584 3.65-1.747 5.258-1.212 1.675-3.026 2.962-5.294 3.902l-.014.006C54.609 31.582 51.792 32 48.613 32c-2.548 0-5.047-.3-7.49-.9l-.02-.004zm17.486-15.37c-.98-.735-2.2-1.291-3.665-1.668a18.036 18.036 0 00-2.61-.457l7.969-7.864V2.34H37.837v4.254h14.955l-7.473 7.376v3.473h3.011c2.51 0 4.33.364 5.459 1.093 1.13.728 1.694 1.717 1.694 2.965 0 1.275-.612 2.29-1.835 3.044-1.224.729-2.933 1.093-5.13 1.093a18.9 18.9 0 01-5.317-.741 17.993 17.993 0 01-2.365-.865 13.184 13.184 0 01-1.964-1.087l-2.635 3.942c1.506.988 3.357 1.769 5.553 2.341 2.227.547 4.501.82 6.823.82 2.949 0 5.38-.39 7.293-1.171 1.945-.806 3.388-1.86 4.33-3.16.94-1.302 1.411-2.72 1.411-4.255 0-2.341-1.02-4.253-3.058-5.736z"/></svg><svg viewBox="0 0 68 32" id="icon-04" xmlns="http://www.w3.org/2000/svg"><path fill-rule="evenodd" clip-rule="evenodd" d="M7.503 30.056c-2.405-1.315-4.248-3.202-5.557-5.57l-.005-.009C.614 22.047 0 19.2 0 16c0-3.197.613-6.035 1.944-8.443 1.306-2.39 3.148-4.295 5.559-5.613l.013-.007C9.925.64 12.618 0 15.536 0c2.943 0 5.644.637 8.034 1.944 2.409 1.316 4.248 3.217 5.555 5.604 1.364 2.411 1.994 5.253 1.994 8.452 0 3.204-.632 6.057-1.994 8.49-1.31 2.366-3.15 4.252-5.555 5.566C21.18 31.363 18.48 32 15.537 32c-2.919 0-5.612-.64-8.021-1.937l-.013-.007zm19.573-6.407c1.18-2.108 1.771-4.657 1.771-7.649s-.59-5.528-1.771-7.61c-1.151-2.107-2.726-3.707-4.725-4.8-1.999-1.092-4.27-1.639-6.814-1.639-2.514 0-4.786.547-6.815 1.64-1.999 1.092-3.573 2.692-4.724 4.8C2.847 10.47 2.27 13.007 2.27 16s.576 5.541 1.727 7.649c1.15 2.081 2.725 3.668 4.724 4.76 2.03 1.093 4.3 1.64 6.815 1.64 2.544 0 4.815-.547 6.814-1.64 1.999-1.092 3.574-2.679 4.725-4.76zM19.398 7.415c1.09.676 1.938 1.73 2.544 3.16.636 1.405.954 3.214.954 5.425 0 2.185-.318 3.994-.954 5.424-.606 1.431-1.454 2.498-2.544 3.2-1.09.677-2.377 1.015-3.861 1.015-1.424 0-2.696-.338-3.816-1.015-1.09-.702-1.954-1.769-2.59-3.2-.606-1.43-.908-3.239-.908-5.424 0-2.211.302-4.02.908-5.424.636-1.431 1.5-2.485 2.59-3.161 1.12-.703 2.392-1.054 3.816-1.054 1.484 0 2.77.351 3.861 1.054zm-8.14 3.847c-.477 1.11-.764 2.664-.764 4.738 0 2.04.284 3.598.766 4.743.52 1.166 1.152 1.88 1.796 2.303.715.424 1.518.642 2.48.642 1.05 0 1.855-.23 2.515-.635.64-.417 1.26-1.125 1.756-2.295l.007-.015.006-.015c.505-1.135.805-2.687.805-4.728 0-2.072-.302-3.617-.8-4.717l-.009-.02-.009-.02c-.499-1.18-1.118-1.862-1.739-2.247l-.016-.01-.017-.01c-.662-.427-1.46-.664-2.498-.664-.956 0-1.756.227-2.478.679l-.008.005c-.63.391-1.266 1.083-1.794 2.266zm23.397 14.143V19.28L51.477.39h11.994L53.54 11.706h8.828v5.503H68v8.195h-5.633v6.205H52.1v-6.205H34.655zm19.716-1.951v6.204h5.724v-6.204h5.634V19.16h-5.634v-5.503h-5.542v5.503h-10.4L58.914 2.34H52.6l-15.673 17.6v3.513H54.37zm-5.66-6.244h3.57v-4.07l-3.57 4.07z"/></svg><svg viewBox="0 0 64 32" id="icon-05" xmlns="http://www.w3.org/2000/svg"><path fill-rule="evenodd" clip-rule="evenodd" d="M7.65 29.44a13.867 13.867 0 01-5.666-5.457l-.005-.008C.626 21.595 0 18.805 0 15.672c0-3.131.625-5.911 1.982-8.27C3.314 5.06 5.19 3.195 7.649 1.904l.013-.007C10.118.627 12.864 0 15.84 0c3 0 5.753.624 8.19 1.904 2.455 1.29 4.33 3.151 5.663 5.49 1.39 2.36 2.032 5.144 2.032 8.278 0 3.138-.643 5.932-2.032 8.316a13.868 13.868 0 01-5.663 5.451c-2.437 1.28-5.19 1.904-8.19 1.904-2.976 0-5.722-.626-8.178-1.897l-.013-.007zm19.954-6.277c1.204-2.064 1.806-4.56 1.806-7.491 0-2.93-.602-5.415-1.806-7.454-1.174-2.064-2.78-3.631-4.817-4.701-2.038-1.07-4.354-1.606-6.947-1.606-2.563 0-4.879.535-6.948 1.606-2.037 1.07-3.643 2.637-4.816 4.701-1.174 2.039-1.76 4.523-1.76 7.454 0 2.93.586 5.427 1.76 7.491 1.173 2.039 2.779 3.593 4.816 4.664 2.07 1.07 4.385 1.605 6.948 1.605 2.593 0 4.909-.535 6.947-1.605 2.038-1.07 3.643-2.625 4.817-4.664zm-7.828-15.9c1.112.662 1.977 1.694 2.594 3.096.648 1.376.973 3.147.973 5.313 0 2.14-.325 3.911-.973 5.313-.617 1.401-1.482 2.446-2.594 3.134-1.111.663-2.423.994-3.936.994-1.452 0-2.748-.331-3.89-.994-1.112-.688-1.992-1.733-2.64-3.134-.618-1.402-.927-3.173-.927-5.313 0-2.166.309-3.937.926-5.313.649-1.402 1.529-2.434 2.64-3.097 1.143-.688 2.44-1.032 3.89-1.032 1.514 0 2.826.344 3.937 1.032zm-8.3 3.768c-.485 1.088-.777 2.609-.777 4.64 0 1.999.29 3.525.78 4.646.531 1.142 1.175 1.84 1.832 2.256.729.415 1.548.629 2.529.629 1.07 0 1.89-.226 2.563-.622.653-.409 1.286-1.102 1.79-2.248l.007-.015.007-.014c.514-1.112.82-2.633.82-4.631 0-2.03-.308-3.543-.815-4.62l-.01-.02-.008-.02c-.509-1.155-1.14-1.823-1.773-2.2l-.017-.01-.017-.01c-.675-.418-1.488-.65-2.547-.65-.975 0-1.79.222-2.526.664l-.009.006c-.642.383-1.29 1.06-1.828 2.22zm29.988 19.426l-.019-.004c-2.379-.617-4.465-1.48-6.208-2.619l-1.529-.999 4.815-7.297 2.162 1.456c.933.629 2.107 1.165 3.56 1.588 1.45.413 2.952.62 4.518.62 1.835 0 2.952-.321 3.62-.731l.01-.007.012-.007c.64-.383.896-.804.896-1.434 0-.494-.146-.851-.386-1.142l-.018-.022-.018-.023c-.086-.11-.402-.397-1.42-.657l-.016-.004c-.938-.245-2.41-.407-4.533-.407h-.146l-.02.17-.229-.17h-9.977l.78-6.81.139-1.217.271-2.37.07-.603.845-7.386H62.1v7.989H47.957l-.272 2.37h.568c3.376 0 6.305.37 8.655 1.227 2.311.808 4.169 2.008 5.365 3.666C63.441 17.184 64 18.937 64 20.832c0 1.884-.567 3.647-1.71 5.25-1.188 1.667-2.973 2.946-5.214 3.872-2.306.965-5.086 1.39-8.22 1.39-2.508 0-4.968-.295-7.373-.882l-.02-.005zm18.83-13.83c-.895-1.248-2.33-2.217-4.306-2.905-1.946-.713-4.524-1.07-7.735-1.07H45.14l.71-6.192h13.935V2.293H40.75l-1.667 14.564h7.9c2.188.003 3.908.169 5.16.497 1.297.33 2.193.815 2.687 1.452.525.637.787 1.376.787 2.217 0 1.248-.617 2.242-1.852 2.981-1.205.74-2.872 1.109-5.002 1.109-1.822 0-3.582-.242-5.28-.726a17.748 17.748 0 01-2.327-.846 12.988 12.988 0 01-1.934-1.066l-2.548 3.861c1.482.968 3.304 1.733 5.465 2.293a28.23 28.23 0 006.716.803c2.903 0 5.295-.395 7.179-1.185 1.914-.79 3.334-1.835 4.26-3.134.927-1.3 1.39-2.727 1.39-4.281 0-1.58-.463-2.982-1.39-4.205z"/></svg><svg viewBox="0 0 64 32" id="icon-06" xmlns="http://www.w3.org/2000/svg"><path fill-rule="evenodd" clip-rule="evenodd" d="M7.372 30.05l-.01-.005c-2.36-1.343-4.168-3.255-5.452-5.646l-.004-.008C.608 21.947 0 19.131 0 16c0-3.128.607-5.934 1.908-8.356C3.189 5.23 4.998 3.31 7.372 1.989 9.724.654 12.384 0 15.287 0c2.899 0 5.558.652 7.908 1.985 2.404 1.32 4.23 3.24 5.515 5.659 1.3 2.422 1.908 5.228 1.908 8.356 0 3.131-.609 5.947-1.906 8.391l-.004.009c-1.289 2.397-3.116 4.31-5.51 5.652l-.007.004C20.839 31.363 18.181 32 15.287 32c-2.896 0-5.553-.637-7.905-1.944l-.01-.006zM26.684 8.468c-1.132-2.133-2.696-3.746-4.693-4.839-1.967-1.118-4.201-1.678-6.704-1.678-2.504 0-4.738.56-6.705 1.678-1.967 1.093-3.516 2.706-4.649 4.84C2.801 10.575 2.235 13.085 2.235 16c0 2.914.566 5.437 1.698 7.57 1.133 2.108 2.682 3.721 4.649 4.84 1.967 1.092 4.201 1.639 6.704 1.639 2.504 0 4.738-.547 6.705-1.64 1.997-1.118 3.561-2.731 4.693-4.838 1.133-2.134 1.699-4.657 1.699-7.571 0-2.914-.566-5.424-1.699-7.532zm-7.953 13.63l.007-.008c.923-1.135 1.555-3.066 1.555-6.09s-.632-4.955-1.555-6.09l-.007-.009-.007-.009c-.866-1.09-1.94-1.58-3.438-1.58-1.453 0-2.54.481-3.444 1.589-.901 1.14-1.517 3.076-1.517 6.099s.616 4.959 1.517 6.099c.904 1.108 1.99 1.589 3.444 1.589 1.497 0 2.572-.49 3.438-1.58l.007-.01zM10.012 8.78c1.311-1.613 3.07-2.419 5.274-2.419 2.235 0 3.993.806 5.275 2.42 1.31 1.612 1.966 4.019 1.966 7.219s-.655 5.607-1.966 7.22c-1.282 1.613-3.04 2.419-5.274 2.419-2.206 0-3.964-.806-5.275-2.42C8.731 21.607 8.09 19.2 8.09 16s.64-5.607 1.922-7.22zm46.37-2.021c-1.199-.37-2.578-.554-4.137-.554-3.01 0-5.364.806-7.063 2.42-1.138 1.08-1.895 2.482-2.27 4.206a13.061 13.061 0 00-.277 2.779v.039a8.133 8.133 0 012.331-1.632 10.41 10.41 0 011.2-.476c1.43-.494 3.04-.741 4.827-.741 2.056 0 3.904.351 5.542 1.054 1.64.676 2.92 1.652 3.845 2.927.923 1.274 1.385 2.744 1.385 4.41 0 1.768-.506 3.33-1.52 4.682-1.013 1.327-2.383 2.355-4.112 3.083-1.728.729-3.665 1.093-5.81 1.093-4.291 0-7.629-1.171-10.013-3.512-2.354-2.342-3.53-5.698-3.53-10.069 0-3.07.64-5.684 1.921-7.844 1.282-2.185 3.07-3.837 5.364-4.956 2.324-1.144 5.006-1.717 8.046-1.717 1.609 0 3.113.156 4.514.469a15.592 15.592 0 011.778.461c.705.23 1.349.506 1.932.826l-2.146 3.825a8.94 8.94 0 00-1.807-.773zM57.15.523C55.559.17 53.875 0 52.111 0c-3.369 0-6.437.637-9.14 1.967-2.703 1.319-4.79 3.264-6.257 5.764-1.481 2.5-2.17 5.437-2.17 8.737 0 4.655 1.254 8.538 4.087 11.356l.009.009C41.531 30.673 45.53 32 50.323 32c2.441 0 4.716-.416 6.782-1.287 2.069-.872 3.754-2.126 5-3.758l.006-.007.005-.007c1.273-1.7 1.884-3.64 1.884-5.75 0-1.995-.559-3.835-1.732-5.454-1.159-1.599-2.767-2.815-4.763-3.641-1.978-.845-4.164-1.247-6.512-1.247-1.915 0-3.714.25-5.368.784a5.54 5.54 0 011.203-1.688c1.191-1.132 2.897-1.789 5.417-1.789 2.109 0 3.63.386 4.721 1.009l2.118 1.209 4.142-7.385-1.702-.934C60.24 1.35 58.77.85 57.151.523zm-4.169 22.814c-.643.467-1.566.78-2.972.78-1.655 0-2.673-.344-3.316-.81-.642-.509-.93-1.081-.93-1.844 0-.788.3-1.367.966-1.877.71-.523 1.695-.854 3.146-.854 1.535 0 2.494.33 3.12.79.57.419.902.978.902 1.902 0 .88-.32 1.456-.916 1.913zm-7.71-5.23c1.192-.884 2.726-1.326 4.604-1.326 1.907 0 3.426.416 4.559 1.248 1.132.833 1.698 1.965 1.698 3.395 0 1.405-.566 2.537-1.698 3.396-1.133.832-2.608 1.248-4.425 1.248-2.027 0-3.62-.429-4.783-1.288-1.132-.884-1.698-1.99-1.698-3.317 0-1.352.58-2.471 1.743-3.356z"/></svg><svg viewBox="0 0 32 32" id="icon-burger" xmlns="http://www.w3.org/2000/svg"><path fill-rule="evenodd" clip-rule="evenodd" d="M3.429 16.243a.9.9 0 01.9-.9H27.67a.9.9 0 010 1.8H4.33a.9.9 0 01-.9-.9zm0-8a.9.9 0 01.9-.9H27.67a.9.9 0 110 1.8H4.33a.9.9 0 01-.9-.9zm0 16a.9.9 0 01.9-.9H27.67a.9.9 0 010 1.8H4.33a.9.9 0 01-.9-.9z"/></svg><svg viewBox="0 0 64 64" id="icon-calendar" xmlns="http://www.w3.org/2000/svg"><g clip-path="url(#ia)"><path d="M56.873 4.13h-7.67V1.85a.94.94 0 10-1.883 0v2.28H16.68V1.85a.941.941 0 10-1.882 0v2.28h-7.67a6.194 6.194 0 00-6.187 6.188v46.586a6.194 6.194 0 006.187 6.187h49.745a6.194 6.194 0 006.186-6.187V10.318a6.194 6.194 0 00-6.186-6.187zM7.128 6.014h7.67v1.888a4.62 4.62 0 00-3.672 4.515 4.619 4.619 0 004.613 4.613 4.619 4.619 0 004.613-4.613 4.62 4.62 0 00-3.672-4.515V6.013h30.64v1.888a4.62 4.62 0 00-3.672 4.515 4.619 4.619 0 004.613 4.613 4.619 4.619 0 004.613-4.613 4.62 4.62 0 00-3.672-4.515V6.013h7.67a4.31 4.31 0 014.305 4.305v8.41H2.824v-8.41a4.31 4.31 0 014.304-4.305zm8.611 7.345c.52 0 .941-.422.941-.942V9.863a2.727 2.727 0 011.79 2.553 2.734 2.734 0 01-2.73 2.731 2.734 2.734 0 01-2.732-2.73 2.73 2.73 0 011.79-2.554v2.553c0 .52.421.941.941.941zm32.522 0a.94.94 0 00.941-.942V9.863a2.728 2.728 0 011.79 2.553 2.734 2.734 0 01-2.73 2.731 2.734 2.734 0 01-2.731-2.73c0-1.174.748-2.168 1.79-2.554v2.553c0 .52.42.941.94.941zm8.611 47.851H7.129a4.31 4.31 0 01-4.304-4.305V20.701h58.353v36.203a4.31 4.31 0 01-4.304 4.305z"/><path d="M41.3 23.988h-5.311a1.885 1.885 0 00-1.883 1.882v5.31c0 1.039.845 1.883 1.883 1.883h5.31a1.885 1.885 0 001.883-1.882v-5.31a1.885 1.885 0 00-1.883-1.883zm-5.311 7.193v-5.31h5.31l.001 5.31h-5.31zm18.6-7.193h-5.311a1.885 1.885 0 00-1.883 1.882v5.31c0 1.039.845 1.883 1.883 1.883h5.31a1.885 1.885 0 001.883-1.882v-5.31a1.885 1.885 0 00-1.883-1.883zm-5.311 7.193v-5.31h5.31l.001 5.31h-5.311zm-34.556 5.19h-5.31a1.884 1.884 0 00-1.883 1.883v5.31c0 1.039.845 1.883 1.883 1.883h5.31a1.885 1.885 0 001.883-1.882v-5.31a1.885 1.885 0 00-1.883-1.883zm-5.31 7.194v-5.31h5.31l.001 5.31H9.412zm18.599-7.193H22.7a1.885 1.885 0 00-1.883 1.882v5.31c0 1.039.845 1.883 1.882 1.883h5.31a1.885 1.885 0 001.883-1.882v-5.31a1.885 1.885 0 00-1.882-1.883zm-5.31 7.193v-5.31h5.31v5.31h-5.31zM41.3 36.372h-5.311a1.885 1.885 0 00-1.883 1.882v5.31c0 1.039.845 1.883 1.883 1.883h5.31a1.885 1.885 0 001.883-1.882v-5.31a1.885 1.885 0 00-1.883-1.883zm-5.311 7.193v-5.31h5.31l.001 5.31h-5.31zm18.6-7.193h-5.311a1.885 1.885 0 00-1.883 1.882v5.31c0 1.039.845 1.883 1.883 1.883h5.31a1.885 1.885 0 001.883-1.882v-5.31a1.885 1.885 0 00-1.883-1.883zm-5.311 7.193v-5.31h5.31l.001 5.31h-5.311zm-34.556 5.191h-5.31a1.884 1.884 0 00-1.883 1.882v5.31c0 1.039.845 1.883 1.883 1.883h5.31a1.885 1.885 0 001.883-1.883v-5.31a1.885 1.885 0 00-1.883-1.882zm-5.31 7.193v-5.31h5.31l.001 5.31H9.412zm18.599-7.193H22.7a1.885 1.885 0 00-1.883 1.882v5.31c0 1.039.845 1.883 1.882 1.883h5.31a1.885 1.885 0 001.883-1.883v-5.31a1.885 1.885 0 00-1.882-1.882zm-5.31 7.193v-5.31h5.31v5.31h-5.31zM41.3 48.756h-5.311a1.885 1.885 0 00-1.883 1.882v5.31c0 1.039.845 1.883 1.883 1.883h5.31a1.885 1.885 0 001.883-1.883v-5.31a1.885 1.885 0 00-1.883-1.882zm-5.311 7.193v-5.31h5.31l.001 5.31h-5.31zm18.6-7.193h-5.311a1.885 1.885 0 00-1.883 1.882v5.31c0 1.039.845 1.883 1.883 1.883h5.31a1.885 1.885 0 001.883-1.883v-5.31a1.885 1.885 0 00-1.883-1.882zm-5.311 7.193v-5.31h5.31l.001 5.31h-5.311zM33.802 13.358h5.257a.941.941 0 100-1.883h-5.257a.94.94 0 100 1.883zm-8.86 0h4.357a.941.941 0 100-1.883H24.94a.94.94 0 100 1.883z"/></g><defs><clipPath id="ia"><path d="M0 0h64v64H0z"/></clipPath></defs></svg><svg viewBox="0 0 22 22" id="icon-close" xmlns="http://www.w3.org/2000/svg"><path fill-rule="evenodd" clip-rule="evenodd" d="M.364.364a.9.9 0 011.272 0L11 9.727 20.364.364a.9.9 0 011.272 1.272L12.273 11l9.363 9.364a.9.9 0 01-1.272 1.272L11 12.273l-9.364 9.363a.9.9 0 01-1.272-1.272L9.727 11 .364 1.636a.9.9 0 010-1.272z"/></svg><svg viewBox="0 0 64 64" id="icon-controll" xmlns="http://www.w3.org/2000/svg"><g clip-path="url(#ka)" stroke-width="2" stroke-linejoin="round"><path d="M49.333 52h8a5.333 5.333 0 015.334 5.333v5.334H28v-5.334A5.333 5.333 0 0133.333 52h13.334"/><path d="M42.667 46.667H48m-5.333 0A5.333 5.333 0 0037.333 52v2.667A2.667 2.667 0 0040 57.333h10.667a2.667 2.667 0 002.666-2.666V52A5.333 5.333 0 0048 46.667m-5.333 0v-8m5.333 8v-8M45.333 40a6.667 6.667 0 100-13.333 6.667 6.667 0 000 13.333z"/><path d="M48 33.333a2.667 2.667 0 00-2.667-2.666M13.333 48h-8m-4-45.333V1.333h61.334v1.334m-1.563 19.77a5.333 5.333 0 00-3.77-9.105m0 0a5.333 5.333 0 00-3.771 9.105m3.77-9.105V1.333"/><path d="M56 1.333V4h2.667V1.333M43.77 22.437A5.334 5.334 0 0040 13.332m0 0a5.333 5.333 0 00-3.77 9.105M40 13.332V1.333m-1.333 0V4h2.666V1.333M5.333 20h24m-14.666-9.333V16M20 10.667V16M9.333 20h16v5.333a8 8 0 11-16 0V20zM20 11.059V9.333h-5.333v1.726A9.333 9.333 0 008 20h18.667A9.334 9.334 0 0020 11.059z"/><path d="M13.333 32v1.333a4 4 0 108 0V32"/><path d="M33.333 62.667h-32V45.333A10.667 10.667 0 0112 34.667h1.333m8 0h1.334a10.667 10.667 0 0110.666 10.666V52"/><path d="M17.333 37.333l2.667 4 6.667-6.666m-9.334 2.666l-2.666 4L8 34.667m9.333 2.666v25.334"/></g><defs><clipPath id="ka"><path d="M0 0h64v64H0z"/></clipPath></defs></svg><svg viewBox="0 0 64 64" id="icon-door" xmlns="http://www.w3.org/2000/svg"><path d="M62 11H2a1 1 0 00-1 1v50a1 1 0 001 1h60a1 1 0 001-1V12a1 1 0 00-1-1zm-5 50H33V17h24v44zm-26 0H7V17h24v44zm30 0h-2V16a1 1 0 00-1-1H6a1 1 0 00-1 1v45H3V13h58v48zM26 1a1 1 0 00-1 1v6a1 1 0 001 1h12a1 1 0 001-1V2a1 1 0 00-1-1H26zm11 6H27V3h10v4z"/><path d="M23 35h5a1 1 0 001-1V20a1 1 0 00-1-1h-5a1 1 0 00-1 1v14a1 1 0 001 1zm1-14h3v12h-3V21zm3 22h2v-6h-2v2H10v2h17v2zm9-8h5a1 1 0 001-1V20a1 1 0 00-1-1h-5a1 1 0 00-1 1v14a1 1 0 001 1zm1-14h3v12h-3V21zm0 22v-2h17v-2H37v-2h-2v6h2z"/></svg><svg viewBox="0 0 64 64" id="icon-garantee" xmlns="http://www.w3.org/2000/svg"><g clip-path="url(#ma)" stroke-width="2" stroke-linejoin="round"><path d="M48 26.667A9.333 9.333 0 1048 8a9.333 9.333 0 000 18.667z"/><path d="M44 17.333L46.667 20 52 14.667M26.667 36h18.666M14.667 25.333h14.666a4 4 0 000-8H14.667a8 8 0 00-8 8m0-2.666H1.333V24"/><path d="M20 25.333v32a5.333 5.333 0 005.333 5.334h32a5.333 5.333 0 005.334-5.334V38.667M20 12L30.667 1.333h26.666a5.333 5.333 0 015.334 5.334v18.666"/><path d="M25.333 12H28a2.667 2.667 0 002.667-2.667v-8L20 12v5.333M6.667 36a8 8 0 008 8H20M6.667 38.667H1.333v-1.334M61.9 30.1a2.613 2.613 0 010 3.7L43.4 52.3l-3.7-3.7 18.5-18.5a2.616 2.616 0 013.7 0zM43.4 52.3L36 56m0 0l3.7-7.4M36 56h-9.334m30.609-17.575l-3.7-3.7M26.666 49.333h8m-8-6.666h12M44 56h12m-5.334-6.667H56"/></g><defs><clipPath id="ma"><path d="M0 0h64v64H0z"/></clipPath></defs></svg><svg viewBox="0 0 64 64" id="icon-guarantee" xmlns="http://www.w3.org/2000/svg"><g clip-path="url(#na)" fill-rule="evenodd" clip-rule="evenodd"><path d="M48 9a8.333 8.333 0 100 16.667A8.333 8.333 0 0048 9zm-10.334 8.333C37.666 11.626 42.294 7 48 7s10.333 4.626 10.333 10.333S53.707 27.667 48 27.667 37.666 23.04 37.666 17.333z"/><path d="M52.707 15.374l-5.333 5.333a1 1 0 01-1.415 0l-2.666-2.666 1.414-1.415 1.96 1.96 4.626-4.626 1.414 1.414zM8.303 18.969a9 9 0 016.364-2.636h14.666a5 5 0 010 10H14.667v-2h14.666a3 3 0 000-6H14.667a7 7 0 00-7 7h-2a9 9 0 01.155-1.666H2.333V24h-2v-1.333a1 1 0 011-1h5.114a8.998 8.998 0 011.856-2.698zM45.333 37H26.667v-2h18.666v2z"/><path d="M29.96.626a1 1 0 01.707-.293h26.666a6.334 6.334 0 016.334 6.334v18.666h-2V6.667a4.334 4.334 0 00-4.334-4.334H31.081L20.707 12.707l-1.414-1.414L29.96.626zM19 57.333v-32h2v32a4.333 4.333 0 004.333 4.334h32a4.333 4.333 0 004.334-4.334V38.667h2v18.666a6.334 6.334 0 01-6.334 6.334h-32A6.333 6.333 0 0119 57.333z"/><path d="M31.05.41a1 1 0 01.617.923v8A3.667 3.667 0 0128 13h-2.667v-2H28a1.667 1.667 0 001.667-1.667V3.748L21 12.414v4.92h-2V12a1 1 0 01.293-.707L29.959.626A1 1 0 0131.05.41zm29 29.923a1.616 1.616 0 00-1.142.474h-.001L41.114 48.6l2.286 2.286 17.793-17.793a1.615 1.615 0 000-2.285v-.001a1.615 1.615 0 00-1.143-.474zm-1.384-1.724a3.615 3.615 0 013.94 5.899l-18.499 18.5a1 1 0 01-1.414 0l-3.7-3.7a1 1 0 010-1.415l18.5-18.5a3.615 3.615 0 011.173-.784zM5.822 37.667A9 9 0 015.667 36h2a7 7 0 007 7H20v2h-5.333a9 9 0 01-8.22-5.333H1.333a1 1 0 01-1-1v-1.334h2v.334h3.49z"/><path d="M54.282 34.018l3.7 3.7-1.415 1.414-3.7-3.7 1.415-1.414zm-15.615 9.649h-12v-2h12v2zm1.927 5.38l-2.358 4.717 4.717-2.358.894 1.788-7.4 3.7A1 1 0 0136 57h-9.334v-2h8.716l3.423-6.847 1.79.894zm-5.928 1.286h-8v-2h8v2zm21.334 0h-5.334v-2H56v2zM56 57H44v-2h12v2z"/></g><defs><clipPath id="na"><path d="M0 0h64v64H0z"/></clipPath></defs></svg><svg viewBox="0 0 64 64" id="icon-installation" xmlns="http://www.w3.org/2000/svg"><g clip-path="url(#oa)" fill-rule="evenodd" clip-rule="evenodd"><path d="M33.333 53A4.334 4.334 0 0029 57.333v4.334h32.667v-4.334A4.334 4.334 0 0057.333 53h-8v-2h8a6.334 6.334 0 016.334 6.333v5.334a1 1 0 01-1 1H28a1 1 0 01-1-1v-5.334A6.334 6.334 0 0133.333 51h13.334v2H33.333z"/><path d="M41.667 45.746v-7.08h2v7H47v-7h2v7.08A6.334 6.334 0 0154.333 52v2.667a3.667 3.667 0 01-3.666 3.666H40a3.667 3.667 0 01-3.667-3.666V52a6.334 6.334 0 015.334-6.254zm1 1.92A4.333 4.333 0 0038.333 52v2.667A1.667 1.667 0 0040 56.333h10.667a1.667 1.667 0 001.666-1.666V52A4.333 4.333 0 0048 47.667h-5.333z"/><path d="M45.333 27.667a5.667 5.667 0 100 11.333 5.667 5.667 0 000-11.333zm-7.666 5.666a7.667 7.667 0 1115.333 0 7.667 7.667 0 01-15.334 0z"/><path d="M.333 1.333a1 1 0 011-1h61.334a1 1 0 011 1v1.334h-2v-.334h-3.334v10.079a6.334 6.334 0 013.478 10.733l-1.414-1.415a4.333 4.333 0 10-6.127 0l-1.414 1.415a6.334 6.334 0 013.477-10.733V2.333h-54v.334h-2V1.333zm45 28.334A3.667 3.667 0 0149 33.333h-2a1.667 1.667 0 00-1.667-1.666v-2zM5.333 47h8v2h-8v-2z"/><path d="M37.667 4V1.333h4.666V4a1 1 0 01-1 1H41v7.412a6.335 6.335 0 013.478 10.733l-1.414-1.415a4.333 4.333 0 10-6.128 0l-1.414 1.415A6.334 6.334 0 0139 12.412V5h-.333a1 1 0 01-1-1zM55 4V1.333h2V3h.667V1.333h2V4a1 1 0 01-1 1H56a1 1 0 01-1-1zM13.667 9.333a1 1 0 011-1H20a1 1 0 011 1v1.009A10.334 10.334 0 0127.618 19h1.715v2h-3v4.333a9 9 0 11-18 0V21h-3v-2H7.05a10.334 10.334 0 016.618-8.658V9.333zm2 6.667h-2v-3.48A8.333 8.333 0 009.06 19h16.546A8.333 8.333 0 0021 12.52V16h-2v-5.667h-3.333V16zm-5.334 5v4.333a7 7 0 1014 0V21h-14z"/><path d="M12.333 33.333V32h2v1.333a3 3 0 106 0V32h2v1.333a5 5 0 01-10 0z"/><path d="M12 35.667a9.666 9.666 0 00-9.667 9.666v16.334h31v2h-32a1 1 0 01-1-1V45.333A11.667 11.667 0 0112 33.667h1.333v2H12zm10.667 0h-1.334v-2h1.334a11.667 11.667 0 0111.666 11.666V52h-2v-6.667a9.667 9.667 0 00-9.666-9.666z"/><path d="M13.96 42.04l-6.667-6.666 1.414-1.414 5.804 5.804 1.99-2.985a1 1 0 011.664 0l1.99 2.985 5.804-5.804 1.415 1.414-6.667 6.666a1 1 0 01-1.54-.152l-.834-1.252v22.03h-2v-22.03l-.834 1.252a1 1 0 01-1.54.152z"/></g><defs><clipPath id="oa"><path d="M0 0h64v64H0z"/></clipPath></defs></svg><svg viewBox="0 0 64 64" id="icon-lock" xmlns="http://www.w3.org/2000/svg"><path d="M32 18a3 3 0 100-5.999A3 3 0 0032 18zm0-4a1 1 0 110 2.002A1 1 0 0132 14z"/><path d="M58.5 18H43c-.089 0-.177.012-.263.035l-.737.2V18a10 10 0 00-20 0v31a10 10 0 0020 0V27.31l1.134-.31H58.5a4.5 4.5 0 100-9zM40 49a8 8 0 01-16 0V18a8 8 0 0116 0v.783l-5.892 1.607a6 6 0 103.311 8.17l2.581-.7V49zm-4-23a4 4 0 11-8 0 4 4 0 018 0zm22.5-1H43c-.089 0-.177.012-.263.035l-4.754 1.3c.006-.111.017-.221.017-.333 0-1.545-.6-3.03-1.671-4.143L43.134 20H58.5a2.5 2.5 0 010 5z"/><path d="M32 34a3.98 3.98 0 00-3 6.618V44a3 3 0 106 0v-3.382A3.98 3.98 0 0032 34zm0 2a2 2 0 110 4 2 2 0 010-4zm0 9a1 1 0 01-1-1v-2.142a3.58 3.58 0 002 0V44a1 1 0 01-1 1zm0 4a3 3 0 100 6 3 3 0 000-6zm0 4a1 1 0 110-2 1 1 0 010 2zM19 1h-2v62h2V1zM2 51h8v12h2V1h-2v12H2a1 1 0 00-1 1v3a1 1 0 00.293.707L2.586 19A1.4 1.4 0 013 20c-.001.375-.15.734-.414 1l-1.293 1.293A1 1 0 001 23v3a1 1 0 001 1h8v10H2a1 1 0 00-1 1v4a1 1 0 001 1h8v2H2a1 1 0 00-1 1v4a1 1 0 001 1zm1-26v-1.586l1-1A3.438 3.438 0 005 20a3.388 3.388 0 00-1-2.414l-1-1V15h7v10H3zm0 16v-2h7v2H3zm0 6h7v2H3v-2z"/></svg><svg viewBox="0 0 64 64" id="icon-machine" xmlns="http://www.w3.org/2000/svg"><g clip-path="url(#qa)" fill-rule="evenodd" clip-rule="evenodd"><path d="M33.333 53A4.333 4.333 0 0029 57.333v4.334h32.667v-4.334A4.334 4.334 0 0057.333 53h-8v-2h8a6.334 6.334 0 016.334 6.333v5.334a1 1 0 01-1 1H28a1 1 0 01-1-1v-5.334A6.333 6.333 0 0133.333 51h13.334v2H33.333z"/><path d="M41.667 45.746v-7.08h2v7H47v-7h2v7.08A6.333 6.333 0 0154.334 52v2.667a3.667 3.667 0 01-3.667 3.666H40a3.667 3.667 0 01-3.666-3.666V52a6.333 6.333 0 015.333-6.254zm1 1.92A4.333 4.333 0 0038.333 52v2.667A1.667 1.667 0 0040 56.333h10.667a1.666 1.666 0 001.666-1.666V52A4.333 4.333 0 0048 47.667h-5.333z"/><path d="M45.334 27.667a5.667 5.667 0 100 11.333 5.667 5.667 0 000-11.333zm-7.667 5.666a7.667 7.667 0 1115.333 0 7.667 7.667 0 01-15.333 0z"/><path d="M45.334 29.667A3.667 3.667 0 0149 33.333h-2a1.667 1.667 0 00-1.666-1.666v-2zm-24-27.334a3 3 0 100 6 3 3 0 000-6zm-5 3a5 5 0 1110 0 5 5 0 01-10 0zM8 15.667a3 3 0 100 6 3 3 0 000-6zm-5 3a5 5 0 1110 0 5 5 0 01-10 0z"/><path d="M7.293 13.96l9.333-9.334 1.415 1.414-9.334 9.334-1.414-1.414zm4 4l9.333-9.334 1.415 1.415-9.334 9.333-1.414-1.414zm23.374-2.293a3 3 0 100 6 3 3 0 000-6zm-5 3a5 5 0 1110 0 5 5 0 01-10 0z"/><path d="M33.96 15.374L24.626 6.04l1.415-1.414 9.333 9.334-1.414 1.414zm.707-9.707a13 13 0 0113 13h-2a11 11 0 00-11-11v-2zM29.96 19.374l-9.334-9.333 1.415-1.415 9.333 9.334-1.414 1.414zm4.707-9.707a9 9 0 019 9h-2a7 7 0 00-7-7v-2zM4.333 28.333H4a1 1 0 00-1 1v8.473a3.667 3.667 0 00-2.667 3.527V60A3.667 3.667 0 004 63.667h24v-2H4A1.667 1.667 0 012.333 60v-4.333H28v-2H15.667V41.333A3.667 3.667 0 0013 37.806v-8.473a1 1 0 00-1-1h-.333v-7h-2v7H6.334v-7h-2v7zm6.667 2H5v7.334h6v-7.334zm2.667 23.334V41.333A1.667 1.667 0 0012 39.667H4a1.667 1.667 0 00-1.667 1.666v12.334h11.334zm18.666-28.334v-2.666h2v1.666H35v-1.666h2v2.666a1 1 0 01-1 1h-.333v3h-2v-3h-.334a1 1 0 01-1-1zM8 45H5.333v-2H8v2zm0 5.333H5.333v-2H8v2z"/><path d="M34.667 1.667a17 17 0 0117 17h-2a15 15 0 00-15-15v-2zm-9.334 26.666H28v2h-2.666v-2zM28 31h2.667v2H28v-2zm-2.666 2.667H28v2h-2.666v-2z"/></g><defs><clipPath id="qa"><path d="M0 0h64v64H0z"/></clipPath></defs></svg><svg viewBox="0 0 20 20" id="icon-phone" xmlns="http://www.w3.org/2000/svg"><path d="M17.067 12.906l-1.374-1.375a2.2 2.2 0 00-3.087-.014 1.345 1.345 0 01-1.705.167 9.393 9.393 0 01-2.588-2.583A1.363 1.363 0 018.49 7.39a2.2 2.2 0 00-.02-3.077L7.097 2.937a2.196 2.196 0 00-3.101 0l-.396.397C1.537 5.396 1.691 9.732 5.983 14.02c2.587 2.588 5.191 3.672 7.303 3.672a4.687 4.687 0 003.386-1.288l.397-.396a2.195 2.195 0 00-.002-3.103zm-.883 2.219l-.397.396c-1.625 1.625-5.211 1.328-8.922-2.383-3.71-3.711-4.008-7.3-2.383-8.926l.393-.395a.944.944 0 011.333 0l1.375 1.375a.944.944 0 01.013 1.319 2.613 2.613 0 00-.332 3.274 10.631 10.631 0 002.946 2.941 2.612 2.612 0 003.27-.323.944.944 0 011.323.008l1.375 1.375a.944.944 0 01.006 1.339z"/></svg><svg viewBox="0 0 64 64" id="icon-price" xmlns="http://www.w3.org/2000/svg"><g clip-path="url(#sa)" fill-rule="evenodd" clip-rule="evenodd"><path d="M21.334 39.667c-6.076 0-11 4.925-11 11s4.924 11 11 11c6.075 0 11-4.925 11-11s-4.925-11-11-11zm-13 11c0-7.18 5.82-13 13-13s13 5.82 13 13-5.82 13-13 13-13-5.82-13-13z"/><path d="M12.097 37.727a13 13 0 015.569.68L17 40.291A11.001 11.001 0 004.93 57.752a11 11 0 008.403 3.914h8v2h-8A13.004 13.004 0 01.798 54.072a13 13 0 0111.3-16.346z"/><path d="M21.333 2.333A4.333 4.333 0 0017 6.667V40h-2V6.667A6.333 6.333 0 0121.333.333h36a6.334 6.334 0 016.334 6.334v50.666a6.334 6.334 0 01-6.334 6.334h-40v-2h40a4.333 4.333 0 004.334-4.334V6.667a4.334 4.334 0 00-4.334-4.334h-36z"/><path d="M25.334 9a1.667 1.667 0 00-1.667 1.667v28h-2v-28A3.667 3.667 0 0125.334 7h28A3.667 3.667 0 0157 10.667v42.666A3.667 3.667 0 0153.334 57H32v-2h21.334A1.667 1.667 0 0055 53.333V10.667A1.667 1.667 0 0053.334 9h-28z"/><path d="M30.667 17a1.667 1.667 0 100 3.333 1.667 1.667 0 000-3.333zM27 18.667a3.667 3.667 0 117.333 0 3.667 3.667 0 01-7.333 0z"/><path d="M36 17a1.667 1.667 0 100 3.333A1.667 1.667 0 0036 17zm-3.666 1.667a3.667 3.667 0 117.333 0 3.667 3.667 0 01-7.334 0z"/><path d="M41.334 17a1.667 1.667 0 100 3.333 1.667 1.667 0 000-3.333zm-3.667 1.667a3.667 3.667 0 117.333 0 3.667 3.667 0 01-7.333 0zm5 11.666a1.667 1.667 0 100 3.334 1.667 1.667 0 000-3.334zM39 32a3.667 3.667 0 117.333 0A3.667 3.667 0 0139 32z"/><path d="M48 30.333a1.667 1.667 0 100 3.334 1.667 1.667 0 000-3.334zM44.334 32a3.667 3.667 0 117.333 0 3.667 3.667 0 01-7.334 0zM36 43.667A1.667 1.667 0 1036 47a1.667 1.667 0 000-3.333zm-3.666 1.666a3.667 3.667 0 117.333 0 3.667 3.667 0 01-7.334 0z"/><path d="M41.334 43.667a1.667 1.667 0 100 3.333 1.667 1.667 0 000-3.333zm-3.667 1.666a3.667 3.667 0 117.333 0 3.667 3.667 0 01-7.333 0z"/><path d="M22.667 17.667H28v2h-5.333v-2zm33.333 2H44v-2h12v2zM22.667 31H40v2H22.667v-2zM56 33h-5.333v-2H56v2zm0 13.333H44v-2h12v2z"/></g><defs><clipPath id="sa"><path d="M0 0h64v64H0z"/></clipPath></defs></svg><svg viewBox="0 0 40 40" id="icon-slider-arrow" xmlns="http://www.w3.org/2000/svg"><path d="M1.269 19.2h34.869l-5.035-5.034 1.131-1.131L39.2 20l-6.966 6.966-1.13-1.131 5.034-5.035H1.268v-1.6z"/></svg><svg viewBox="0 0 64 64" id="icon-user" xmlns="http://www.w3.org/2000/svg"><g clip-path="url(#ua)"><path d="M60 60H4c-2.2 0-4-1.8-4-4s1.8-4 4-4h56c2.2 0 4 1.8 4 4s-1.8 4-4 4zM4 54c-1.2 0-2 .8-2 2s.8 2 2 2h56c1.2 0 2-.8 2-2s-.8-2-2-2H4z"/><path d="M59 64c-.6 0-1-.4-1-1v-3H6v3c0 .6-.4 1-1 1s-1-.4-1-1v-4c0-.6.4-1 1-1h54c.6 0 1 .4 1 1v4c0 .6-.4 1-1 1zM49 17.6h-.6c-.6 0-1-.4-1-1s.4-1 .8-1l1.8-5c.2-.8 0-1.8-.6-2.4C48.8 7.4 48 7 47 7c-.6 0-1-.4-1-1 0-1.2-.6-2.4-1.4-3.2-.8-.8-2-1-3.2-.8l-12 2c-1 .2-2 .8-2.6 1.6-.6.8-.8 2-.6 3l1.8 6.8c.4 0 .8.4.8 1s-.4 1-1 1h-.6c-.4 0-.8-.4-1-.8l-2-7.6c-.4-1.6 0-3.2 1-4.6 1-1.4 2.4-2.2 4-2.4l12-2C43-.2 44.6.2 46 1.4c1.2 1 1.8 2.4 2 3.8 1.2.2 2.2.8 3 1.8 1 1.2 1.4 2.8 1 4.2l-2 5.6c-.2.6-.6.8-1 .8z"/><path d="M48.8 17.6h-.6c-1.4 0-2.8-1.2-2.8-2.8v-3c-3.6 2.6-8.4 3.6-12.8 2.8l-1.8-.4c-.2 0-.6.4-.6.8 0 1.4-1.2 2.8-2.8 2.8h-.6c-.6 0-1-.4-1-1s.4-1 1-1h.6c.4 0 .8-.4.8-.8 0-1.4 1.2-2.8 2.8-2.8l2 .4c4 .8 8.2-.2 11.4-2.6.6-.4 1.4-.4 2-.2.6.4 1 1 1 1.6v3.4c0 .4.4.8.8.8h.6c.6 0 1 .4 1 1s-.4 1-1 1zM59 54H17c-.6 0-1-.4-1-1s.4-1 1-1h41v-6.4c0-3.2-2-6-5-7l-9.4-3.2c-.6-.2-.8-.8-.6-1.2.2-.6.8-.8 1.2-.6l9.4 3.2c3.8 1.2 6.4 4.8 6.4 9v7.4c0 .4-.4.8-1 .8z"/><path d="M59 54H49c-.6 0-1-.4-1-1v-1.6c0-5.6 4.2-10.4 9.8-11 .4 0 .8.2 1 .4.8 1.4 1.4 3.2 1.4 4.8V53c-.2.6-.6 1-1.2 1zm-9-2h8v-6.4c0-1-.2-2.2-.8-3.2-4.2.8-7.4 4.6-7.4 9v.6h.2zm-2-24.8h-7c-.6 0-1-.4-1-1s.4-1 1-1h7c2.2 0 4-1.8 4-4v-3.4c0-.6.4-1 1-1s1 .4 1 1v3.4c0 3.2-2.8 6-6 6zM27 22h-2c-1.6 0-3-1.4-3-3v-2c0-1.6 1.4-3 3-3h1c.6 0 1 .4 1 1s-.4 1-1 1h-1c-.6 0-1 .4-1 1v2c0 .6.4 1 1 1h1v-2c0-.6.4-1 1-1s1 .4 1 1v3c0 .6-.4 1-1 1z"/><path d="M51 22h-2c-.6 0-1-.4-1-1v-3c0-.6.4-1 1-1s1 .4 1 1v2h1c.6 0 1-.4 1-1v-2c0-.6-.4-1-1-1h-1c-.6 0-1-.4-1-1s.4-1 1-1h1c1.6 0 3 1.4 3 3v2c0 1.6-1.4 3-3 3zM36 54H8c-2.2 0-4-1.8-4-4v-3c0-.6.4-1 1-1h34c.6 0 1 .4 1 1v3c0 2.2-1.8 4-4 4zM6 48v2c0 1.2.8 2 2 2h28c1.2 0 2-.8 2-2v-2H6z"/><path d="M35 48H5c-.6 0-1-.4-1-1V27c0-.6.4-1 1-1h30c.6 0 1 .4 1 1v20c0 .6-.4 1-1 1zM6 46h28V28H6v18z"/><path d="M38 40.6h-.4s-1.6-.8-3.2-1.8c-.4-.4-.6-1-.2-1.4.4-.4 1-.6 1.4-.2 1 .6 1.8 1.2 2.4 1.4 1.6-.8 4.8-2.8 4.8-4.8v-4.2c0-.6.4-1 1-1s1 .4 1 1v4.2c0 3.8-5.8 6.4-6.4 6.8H38z"/><path d="M38 32c-1 0-2.2-.2-3.2-.4-.4-.2-.8-.6-.8-1V28h-4.4c-.2 0-.6-.2-.8-.4-1.8-2-2.8-4.8-2.8-7.6v-3c0-.6.4-1 1-1s1 .4 1 1v3c0 2.2.8 4.4 2 6h5c.6 0 1 .4 1 1v2.8c.6.2 1.4.2 2 .2 5.6 0 10-4.4 10-10v-3c0-.6.4-1 1-1s1 .4 1 1v3c0 6.6-5.4 12-12 12zm-18 7a2 2 0 100-4 2 2 0 000 4z"/></g><defs><clipPath id="ua"><path d="M0 0h64v64H0z"/></clipPath></defs></svg></svg>